{
.appVersion = "915";
DisplayStrings = (
"/Uhungarumlaut-cy",
"/Gje-cy/hungarumlautcomb/Uhungarumlaut-cy"
);
classes = (
{
automatic = 1;
code = "A B C D E F G H I J K L M N O P R S T U V W X Y Z Thorn Q Eth OE AE Oslash Agrave Aacute Acircumflex Atilde Adieresis Aring Ccedilla Egrave Eacute Ecircumflex Edieresis Igrave Iacute Icircumflex Idieresis Ntilde Ograve Oacute Ocircumflex Otilde Odieresis Ugrave Uacute Ucircumflex Udieresis Yacute A-cy Be-cy Ve-cy Ge-cy Gje-cy Gheupturn-cy De-cy Ie-cy Iegrave-cy Io-cy Zhe-cy Ze-cy Ii-cy Iishort-cy Iigrave-cy Ka-cy Kje-cy El-cy Em-cy En-cy O-cy Pe-cy Er-cy Es-cy Te-cy U-cy Ushort-cy Ef-cy Ha-cy Che-cy Tse-cy Sha-cy Shcha-cy Dzhe-cy Softsign-cy Hardsign-cy Yeru-cy Lje-cy Nje-cy Dze-cy E-cy Ereversed-cy I-cy Yi-cy Je-cy Tshe-cy Iu-cy Ia-cy Dje-cy Yat-cy Yusbig-cy Fita-cy Izhitsa-cy Ghestroke-cy Ghemiddlehook-cy Zhedescender-cy Zedescender-cy Kadescender-cy Kaverticalstroke-cy Kabashkir-cy Endescender-cy Pedescender-cy Esdescender-cy Ustrait-cy Ustraitstroke-cy Chedescender-cy Cheverticalstroke-cy Shha-cy Palochka-cy Zhebreve-cy Chekhakassian-cy Abreve-cy Adieresis-cy Iebreve-cy Schwa-cy Zhedieresis-cy Zedieresis-cy Imacron-cy Idieresis-cy Odieresis-cy Obarred-cy Umacron-cy Udieresis-cy Uhungarumlaut-cy Chedieresis-cy Gedescender-cy Yerudieresis-cy Qa-cy We-cy Ghestroke-cy.loclBSH Zedescender-cy.loclBSH Esdescender-cy.loclBSH Esdescender-cy.loclCHU";
name = Uppercase;
}
);
copyright = "Copyright (c) 2011, Cyreal (www.cyreal.org).";
customParameters = (
{
name = licenseURL;
value = "http://scripts.sil.org/OFL";
},
{
name = description;
value = "Prata is designed by Ivan Petrov for Cyreal.";
},
{
name = fsType;
value = (
);
},
{
name = vendorID;
value = CYRE;
},
{
name = license;
value = "This Font Software is licensed under the SIL Open Font License, Version 1.1. This license is available with a FAQ at: http://scripts.sil.org/OFL";
},
{
name = openTypeOS2VendorID;
value = CYRE;
}
);
date = "2016-09-01 08:23:02 +0000";

glyphs = (
{
glyphname = A;
lastChange = "2016-09-06 15:50:07 +0000";
layers = (
{
anchors = (
{
name = top;
position = "{368, 800}";
}
);
layerId = UUID0;
paths = (
{
closed = 1;
nodes = (
"187 21 LINE",
"97 61 LINE",
"178 271 LINE",
"444 271 LINE",
"529 34 LINE",
"447 21 LINE",
"447 0 LINE",
"741 0 LINE",
"741 21 LINE",
"649 36 LINE",
"376 820 LINE",
"360 820 LINE",
"71 61 LINE",
"-27 21 LINE",
"-27 0 LINE",
"187 0 LINE"
);
},
{
closed = 1;
nodes = (
"317 644 LINE",
"437 292 LINE",
"186 292 LINE"
);
}
);
width = 721;
}
);
leftKerningGroup = A;
rightKerningGroup = A;
unicode = 0041;
},
{
glyphname = Aring;
lastChange = "2016-09-01 07:33:30 +0000";
layers = (
{
layerId = UUID0;
paths = (
{
closed = 1;
nodes = (
"369 978 LINE",
"409 978 LINE",
"464 922 LINE",
"464 844 LINE",
"436 816 LINE",
"415 794 LINE",
"386 789 LINE",
"649 36 LINE",
"741 21 LINE",
"741 0 LINE",
"447 0 LINE",
"447 21 LINE",
"529 34 LINE",
"444 271 LINE",
"178 271 LINE",
"97 61 LINE",
"187 21 LINE",
"187 0 LINE",
"-27 0 LINE",
"-27 21 LINE",
"71 61 LINE",
"348 790 LINE",
"322 795 LINE",
"302 816 LINE",
"275 844 LINE",
"275 922 LINE",
"330 978 LINE"
);
},
{
closed = 1;
nodes = (
"317 644 LINE",
"186 292 LINE",
"437 292 LINE"
);
},
{
closed = 1;
nodes = (
"325 926 LINE",
"307 908 LINE",
"307 858 LINE",
"344 821 LINE",
"394 821 LINE",
"432 858 LINE",
"432 908 LINE",
"394 945 LINE",
"344 945 LINE"
);
}
);
width = 721;
}
);
leftKerningGroup = A;
rightKerningGroup = A;
unicode = 00C5;
},
{
glyphname = AE;
lastChange = "2016-09-01 07:33:30 +0000";
layers = (
{
layerId = UUID0;
paths = (
{
closed = 1;
nodes = (
"831 560 LINE",
"772 415 LINE",
"652 415 LINE",
"652 775 LINE",
"933 775 LINE",
"1010 571 LINE",
"1037 571 LINE",
"1037 800 LINE",
"434 800 LINE",
"434 778 LINE",
"519 764 LINE",
"57 60 LINE",
"-38 21 LINE",
"-38 0 LINE",
"176 0 LINE",
"176 21 LINE",
"87 60 LINE",
"251 309 LINE",
"543 309 LINE",
"543 0 LINE",
"1060 0 LINE",
"1060 244 LINE",
"1033 244 LINE",
"951 24 LINE",
"652 24 LINE",
"652 391 LINE",
"772 391 LINE",
"831 244 LINE",
"858 244 LINE",
"858 560 LINE"
);
},
{
closed = 1;
nodes = (
"265 330 LINE",
"543 751 LINE",
"543 330 LINE"
);
}
);
width = 1113;
}
);
rightKerningGroup = E;
unicode = 00C6;
},
{
glyphname = B;
lastChange = "2016-09-01 07:33:30 +0000";
layers = (
{
layerId = UUID0;
paths = (
{
closed = 1;
nodes = (
"689 342 OFFCURVE",
"597 405 OFFCURVE",
"455 424 CURVE",
"455 429 LINE",
"579 456 OFFCURVE",
"637 518 OFFCURVE",
"637 613 CURVE SMOOTH",
"637 742 OFFCURVE",
"559 800 OFFCURVE",
"343 800 CURVE SMOOTH",
"38 800 LINE",
"38 778 LINE",
"130 764 LINE",
"130 36 LINE",
"38 21 LINE",
"38 0 LINE",
"391 0 LINE SMOOTH",
"563 0 OFFCURVE",
"689 62 OFFCURVE",
"689 216 CURVE SMOOTH"
);
},
{
closed = 1;
nodes = (
"391 407 LINE SMOOTH",
"503 407 OFFCURVE",
"570 350 OFFCURVE",
"570 226 CURVE SMOOTH",
"570 215 LINE SMOOTH",
"570 91 OFFCURVE",
"503 24 OFFCURVE",
"391 24 CURVE SMOOTH",
"240 24 LINE",
"240 407 LINE"
);
},
{
closed = 1;
nodes = (
"343 775 LINE SMOOTH",
"454 775 OFFCURVE",
"517 726 OFFCURVE",
"517 611 CURVE SMOOTH",
"517 605 LINE SMOOTH",
"517 494 OFFCURVE",
"457 432 OFFCURVE",
"351 432 CURVE SMOOTH",
"240 432 LINE",
"240 775 LINE"
);
}
);
width = 740;
}
);
leftKerningGroup = I;
unicode = 0042;
},
{
glyphname = C;
lastChange = "2016-09-01 07:33:30 +0000";
layers = (
{
layerId = UUID0;
paths = (
{
closed = 1;
nodes = (
"654 820 LINE",
"587 763 LINE",
"539 798 OFFCURVE",
"477 820 OFFCURVE",
"419 820 CURVE SMOOTH",
"198 820 OFFCURVE",
"52 650 OFFCURVE",
"52 400 CURVE SMOOTH",
"52 151 OFFCURVE",
"193 -20 OFFCURVE",
"414 -20 CURVE SMOOTH",
"474 -20 OFFCURVE",
"539 3 OFFCURVE",
"587 41 CURVE",
"659 -10 LINE",
"680 -10 LINE",
"680 247 LINE",
"659 247 LINE",
"601 86 LINE",
"556 36 OFFCURVE",
"482 3 OFFCURVE",
"414 3 CURVE SMOOTH",
"275 3 OFFCURVE",
"182 115 OFFCURVE",
"182 309 CURVE SMOOTH",
"182 492 LINE SMOOTH",
"182 686 OFFCURVE",
"280 797 OFFCURVE",
"419 797 CURVE SMOOTH",
"480 797 OFFCURVE",
"546 769 OFFCURVE",
"592 727 CURVE",
"654 572 LINE",
"675 572 LINE",
"675 820 LINE"
);
}
);
width = 740;
}
);
leftKerningGroup = O;
rightKerningGroup = C;
unicode = 0043;
},
{
glyphname = Ccedilla;
lastChange = "2016-09-01 07:33:30 +0000";
layers = (
{
layerId = UUID0;
paths = (
{
closed = 1;
nodes = (
"654 820 LINE",
"587 763 LINE",
"539 798 OFFCURVE",
"477 820 OFFCURVE",
"419 820 CURVE SMOOTH",
"198 820 OFFCURVE",
"52 650 OFFCURVE",
"52 400 CURVE SMOOTH",
"52 164 OFFCURVE",
"179 -2 OFFCURVE",
"380 -18 CURVE",
"364 -79 LINE",
"415 -84 OFFCURVE",
"436 -113 OFFCURVE",
"436 -147 CURVE SMOOTH",
"436 -197 OFFCURVE",
"396 -214 OFFCURVE",
"357 -214 CURVE SMOOTH",
"347 -214 OFFCURVE",
"337 -213 OFFCURVE",
"329 -211 CURVE",
"323 -233 LINE",
"344 -239 OFFCURVE",
"368 -242 OFFCURVE",
"395 -242 CURVE SMOOTH",
"458 -242 OFFCURVE",
"521 -215 OFFCURVE",
"521 -146 CURVE SMOOTH",
"521 -83 OFFCURVE",
"470 -57 OFFCURVE",
"399 -54 CURVE",
"407 -20 LINE",
"414 -20 LINE SMOOTH",
"474 -20 OFFCURVE",
"539 3 OFFCURVE",
"587 41 CURVE",
"659 -10 LINE",
"680 -10 LINE",
"680 247 LINE",
"659 247 LINE",
"601 86 LINE",
"556 36 OFFCURVE",
"482 3 OFFCURVE",
"414 3 CURVE SMOOTH",
"275 3 OFFCURVE",
"182 115 OFFCURVE",
"182 309 CURVE SMOOTH",
"182 492 LINE SMOOTH",
"182 686 OFFCURVE",
"280 797 OFFCURVE",
"419 797 CURVE SMOOTH",
"480 797 OFFCURVE",
"546 769 OFFCURVE",
"592 727 CURVE",
"654 572 LINE",
"675 572 LINE",
"675 820 LINE"
);
}
);
width = 740;
}
);
leftKerningGroup = O;
rightKerningGroup = C;
unicode = 00C7;
},
{
glyphname = D;
lastChange = "2016-09-01 07:33:30 +0000";
layers = (
{
layerId = UUID0;
paths = (
{
closed = 1;
nodes = (
"240 800 LINE",
"38 800 LINE",
"38 778 LINE",
"130 764 LINE",
"130 36 LINE",
"38 21 LINE",
"38 0 LINE",
"421 0 LINE SMOOTH",
"641 0 OFFCURVE",
"798 157 OFFCURVE",
"798 400 CURVE SMOOTH",
"798 644 OFFCURVE",
"641 800 OFFCURVE",
"421 800 CURVE SMOOTH"
);
},
{
closed = 1;
nodes = (
"421 775 LINE SMOOTH",
"564 775 OFFCURVE",
"671 675 OFFCURVE",
"671 477 CURVE SMOOTH",
"671 323 LINE SMOOTH",
"671 125 OFFCURVE",
"564 24 OFFCURVE",
"421 24 CURVE SMOOTH",
"240 24 LINE",
"240 775 LINE"
);
}
);
width = 850;
}
);
leftKerningGroup = I;
rightKerningGroup = D;
unicode = 0044;
},
{
glyphname = Eth;
lastChange = "2016-09-01 07:33:30 +0000";
layers = (
{
layerId = UUID0;
paths = (
{
closed = 1;
nodes = (
"54 375 LINE",
"130 375 LINE",
"130 36 LINE",
"38 21 LINE",
"38 0 LINE",
"421 0 LINE SMOOTH",
"641 0 OFFCURVE",
"798 157 OFFCURVE",
"798 400 CURVE SMOOTH",
"798 644 OFFCURVE",
"641 800 OFFCURVE",
"421 800 CURVE SMOOTH",
"38 800 LINE",
"38 778 LINE",
"130 764 LINE",
"130 408 LINE",
"54 408 LINE"
);
},
{
closed = 1;
nodes = (
"421 775 LINE SMOOTH",
"564 775 OFFCURVE",
"671 675 OFFCURVE",
"671 477 CURVE SMOOTH",
"671 323 LINE SMOOTH",
"671 127 OFFCURVE",
"566 26 OFFCURVE",
"425 24 CURVE",
"240 24 LINE",
"240 375 LINE",
"424 375 LINE",
"424 408 LINE",
"240 408 LINE",
"240 775 LINE"
);
}
);
width = 854;
}
);
leftKerningGroup = I;
rightKerningGroup = D;
unicode = 00D0;
},
{
glyphname = E;
lastChange = "2016-09-01 07:33:30 +0000";
layers = (
{
layerId = UUID0;
paths = (
{
closed = 1;
nodes = (
"429 560 LINE",
"370 415 LINE",
"240 415 LINE",
"240 775 LINE",
"536 775 LINE",
"613 571 LINE",
"640 571 LINE",
"640 800 LINE",
"38 800 LINE",
"38 778 LINE",
"130 764 LINE",
"130 36 LINE",
"38 21 LINE",
"38 0 LINE",
"662 0 LINE",
"662 244 LINE",
"636 244 LINE",
"554 24 LINE",
"240 24 LINE",
"240 391 LINE",
"369 391 LINE",
"429 244 LINE",
"455 244 LINE",
"455 560 LINE"
);
}
);
width = 716;
}
);
leftKerningGroup = I;
rightKerningGroup = E;
unicode = 0045;
},
{
glyphname = F;
lastChange = "2016-09-01 07:33:30 +0000";
layers = (
{
layerId = UUID0;
paths = (
{
closed = 1;
nodes = (
"332 21 LINE",
"240 36 LINE",
"240 376 LINE",
"409 376 LINE",
"468 229 LINE",
"495 229 LINE",
"495 545 LINE",
"468 545 LINE",
"409 400 LINE",
"240 400 LINE",
"240 775 LINE",
"536 775 LINE",
"613 556 LINE",
"640 556 LINE",
"640 800 LINE",
"38 800 LINE",
"38 778 LINE",
"130 764 LINE",
"130 36 LINE",
"38 21 LINE",
"38 0 LINE",
"332 0 LINE"
);
}
);
width = 669;
}
);
leftKerningGroup = I;
unicode = 0046;
},
{
glyphname = G;
lastChange = "2016-09-01 07:33:30 +0000";
layers = (
{
layerId = UUID0;
paths = (
{
closed = 1;
nodes = (
"659 820 LINE",
"598 768 LINE",
"554 800 OFFCURVE",
"498 820 OFFCURVE",
"424 820 CURVE SMOOTH",
"203 820 OFFCURVE",
"52 650 OFFCURVE",
"52 400 CURVE SMOOTH",
"52 151 OFFCURVE",
"193 -20 OFFCURVE",
"414 -20 CURVE SMOOTH",
"625 -20 OFFCURVE",
"708 100 OFFCURVE",
"708 218 CURVE SMOOTH",
"708 331 LINE",
"801 345 LINE",
"801 367 LINE",
"502 367 LINE",
"502 345 LINE",
"595 331 LINE",
"595 218 LINE SMOOTH",
"595 89 OFFCURVE",
"531 3 OFFCURVE",
"414 3 CURVE SMOOTH",
"275 3 OFFCURVE",
"180 115 OFFCURVE",
"180 309 CURVE SMOOTH",
"180 492 LINE SMOOTH",
"180 686 OFFCURVE",
"285 797 OFFCURVE",
"424 797 CURVE SMOOTH",
"496 797 OFFCURVE",
"550 773 OFFCURVE",
"593 737 CURVE",
"659 572 LINE",
"680 572 LINE",
"680 820 LINE"
);
}
);
width = 812;
}
);
leftKerningGroup = O;
unicode = 0047;
},
{
glyphname = H;
lastChange = "2016-09-06 17:19:44 +0000";
layers = (
{
layerId = UUID0;
paths = (
{
closed = 1;
nodes = (
"823 21 LINE",
"730 36 LINE",
"730 764 LINE",
"823 778 LINE",
"823 800 LINE",
"527 800 LINE",
"527 778 LINE",
"620 764 LINE",
"620 436 LINE",
"240 436 LINE",
"240 764 LINE",
"332 778 LINE",
"332 800 LINE",
"38 800 LINE",
"38 778 LINE",
"130 764 LINE",
"130 36 LINE",
"38 21 LINE",
"38 0 LINE",
"332 0 LINE",
"332 21 LINE",
"240 36 LINE",
"240 411 LINE",
"620 411 LINE",
"620 36 LINE",
"527 21 LINE",
"527 0 LINE",
"823 0 LINE"
);
}
);
width = 861;
}
);
leftKerningGroup = I;
rightKerningGroup = I;
unicode = 0048;
},
{
glyphname = I;
lastChange = "2016-09-05 19:48:13 +0000";
layers = (
{
anchors = (
{
name = top;
position = "{183, 800}";
}
);
layerId = UUID0;
paths = (
{
closed = 1;
nodes = (
"332 21 LINE",
"240 36 LINE",
"240 764 LINE",
"332 778 LINE",
"332 800 LINE",
"38 800 LINE",
"38 778 LINE",
"130 764 LINE",
"130 36 LINE",
"38 21 LINE",
"38 0 LINE",
"332 0 LINE"
);
}
);
width = 370;
}
);
leftKerningGroup = I;
rightKerningGroup = I;
unicode = 0049;
},
{
glyphname = J;
lastChange = "2016-09-01 07:33:30 +0000";
layers = (
{
background = {
paths = (
{
closed = 1;
nodes = (
"146 -20 LINE",
"86 -20 LINE",
"7 32 LINE",
"7 82 LINE",
"7 115 LINE",
"44 156 LINE",
"74 156 LINE",
"98 156 LINE",
"130 126 LINE",
"134 112 LINE",
"137 97 LINE",
"108 76 LINE",
"108 48 LINE",
"108 29 LINE",
"132 3 LINE",
"153 3 LINE",
"185 3 LINE",
"218 89 LINE",
"222 197 LINE",
"222 764 LINE",
"130 778 LINE",
"130 800 LINE",
"420 800 LINE",
"420 778 LINE",
"328 764 LINE",
"328 197 LINE",
"328 145 LINE",
"315 75 LINE",
"278 11 LINE",
"203 -20 LINE"
);
}
);
};
layerId = UUID0;
paths = (
{
closed = 1;
nodes = (
"304 -20 OFFCURVE",
"328 73 OFFCURVE",
"328 197 CURVE SMOOTH",
"328 764 LINE",
"420 778 LINE",
"420 800 LINE",
"130 800 LINE",
"130 778 LINE",
"222 764 LINE",
"222 197 LINE SMOOTH",
"222 45 OFFCURVE",
"192 3 OFFCURVE",
"153 3 CURVE SMOOTH",
"124 3 OFFCURVE",
"108 24 OFFCURVE",
"108 48 CURVE SMOOTH",
"108 67 OFFCURVE",
"119 84 OFFCURVE",
"137 97 CURVE",
"137 97 OFFCURVE",
"129 156 OFFCURVE",
"74 156 CURVE SMOOTH",
"34 156 OFFCURVE",
"7 126 OFFCURVE",
"7 82 CURVE SMOOTH",
"7 12 OFFCURVE",
"71 -20 OFFCURVE",
"146 -20 CURVE SMOOTH"
);
}
);
width = 447;
}
);
unicode = 004A;
},
{
glyphname = K;
lastChange = "2016-09-01 07:33:30 +0000";
layers = (
{
layerId = UUID0;
paths = (
{
closed = 1;
nodes = (
"766 0 LINE",
"766 21 LINE",
"698 36 LINE",
"378 508 LINE",
"605 736 LINE",
"687 778 LINE",
"687 800 LINE",
"456 800 LINE",
"456 778 LINE",
"565 736 LINE",
"240 404 LINE",
"240 764 LINE",
"332 778 LINE",
"332 800 LINE",
"38 800 LINE",
"38 778 LINE",
"130 764 LINE",
"130 36 LINE",
"38 21 LINE",
"38 0 LINE",
"332 0 LINE",
"332 21 LINE",
"240 36 LINE",
"240 369 LINE",
"300 430 LINE",
"562 35 LINE",
"471 21 LINE",
"471 0 LINE"
);
}
);
width = 737;
}
);
leftKerningGroup = I;
unicode = 004B;
},
{
glyphname = L;
lastChange = "2016-09-01 07:33:30 +0000";
layers = (
{
layerId = UUID0;
paths = (
{
closed = 1;
nodes = (
"38 800 LINE",
"38 778 LINE",
"130 764 LINE",
"130 36 LINE",
"38 21 LINE",
"38 0 LINE",
"648 0 LINE",
"648 244 LINE",
"621 244 LINE",
"539 24 LINE",
"240 24 LINE",
"240 764 LINE",
"332 778 LINE",
"332 800 LINE"
);
}
);
width = 672;
}
);
leftKerningGroup = I;
unicode = 004C;
},
{
glyphname = M;
lastChange = "2016-09-01 07:33:30 +0000";
layers = (
{
layerId = UUID0;
paths = (
{
closed = 1;
nodes = (
"132 61 LINE",
"38 21 LINE",
"38 0 LINE",
"252 0 LINE",
"252 21 LINE",
"156 61 LINE",
"156 764 LINE",
"454 -10 LINE",
"472 -10 LINE",
"768 734 LINE",
"768 36 LINE",
"676 21 LINE",
"676 0 LINE",
"970 0 LINE",
"970 21 LINE",
"878 36 LINE",
"878 764 LINE",
"970 778 LINE",
"970 800 LINE",
"768 800 LINE",
"512 158 LINE",
"261 800 LINE",
"40 800 LINE",
"40 778 LINE",
"132 764 LINE"
);
}
);
width = 1008;
}
);
leftKerningGroup = I;
rightKerningGroup = I;
unicode = 004D;
},
{
glyphname = N;
lastChange = "2016-09-01 07:33:30 +0000";
layers = (
{
background = {
paths = (
{
closed = 1;
nodes = (
"134 61 LINE",
"134 739 LINE",
"41 778 LINE",
"41 800 LINE",
"227 800 LINE",
"658 196 LINE",
"658 739 LINE",
"565 778 LINE",
"565 800 LINE",
"778 800 LINE",
"778 778 LINE",
"683 739 LINE",
"683 0 LINE",
"658 0 LINE",
"159 701 LINE",
"159 61 LINE",
"255 21 LINE",
"255 0 LINE",
"41 0 LINE",
"41 21 LINE"
);
}
);
};
layerId = UUID0;
paths = (
{
closed = 1;
nodes = (
"134 61 LINE",
"41 21 LINE",
"41 0 LINE",
"255 0 LINE",
"255 21 LINE",
"159 61 LINE",
"159 701 LINE",
"658 0 LINE",
"683 0 LINE",
"683 739 LINE",
"778 778 LINE",
"778 800 LINE",
"565 800 LINE",
"565 778 LINE",
"658 739 LINE",
"658 196 LINE",
"227 800 LINE",
"41 800 LINE",
"41 778 LINE",
"134 739 LINE"
);
}
);
width = 810;
}
);
leftKerningGroup = N;
rightKerningGroup = N;
unicode = 004E;
},
{
glyphname = O;
lastChange = "2016-09-06 18:01:57 +0000";
layers = (
{
anchors = (
{
name = top;
position = "{428, 800}";
}
);
layerId = UUID0;
paths = (
{
closed = 1;
nodes = (
"648 -20 OFFCURVE",
"805 151 OFFCURVE",
"805 400 CURVE SMOOTH",
"805 650 OFFCURVE",
"648 820 OFFCURVE",
"428 820 CURVE SMOOTH",
"207 820 OFFCURVE",
"51 650 OFFCURVE",
"51 400 CURVE SMOOTH",
"51 151 OFFCURVE",
"207 -20 OFFCURVE",
"428 -20 CURVE SMOOTH"
);
},
{
closed = 1;
nodes = (
"284 3 OFFCURVE",
"175 119 OFFCURVE",
"175 323 CURVE SMOOTH",
"175 477 LINE SMOOTH",
"175 681 OFFCURVE",
"284 797 OFFCURVE",
"428 797 CURVE SMOOTH",
"571 797 OFFCURVE",
"681 681 OFFCURVE",
"681 477 CURVE SMOOTH",
"681 323 LINE SMOOTH",
"681 119 OFFCURVE",
"571 3 OFFCURVE",
"428 3 CURVE SMOOTH"
);
}
);
width = 856;
}
);
leftKerningGroup = O;
rightKerningGroup = O;
unicode = 004F;
},
{
glyphname = Oslash;
lastChange = "2016-09-01 07:33:30 +0000";
layers = (
{
layerId = UUID0;
paths = (
{
closed = 1;
nodes = (
"648 -20 OFFCURVE",
"805 151 OFFCURVE",
"805 400 CURVE SMOOTH",
"805 569 OFFCURVE",
"733 701 OFFCURVE",
"618 769 CURVE",
"642 822 LINE",
"601 822 LINE",
"585 787 LINE",
"538 808 OFFCURVE",
"485 820 OFFCURVE",
"428 820 CURVE SMOOTH",
"207 820 OFFCURVE",
"51 650 OFFCURVE",
"51 400 CURVE SMOOTH",
"51 230 OFFCURVE",
"123 96 OFFCURVE",
"240 28 CURVE",
"218 -22 LINE",
"260 -22 LINE",
"274 11 LINE",
"320 -9 OFFCURVE",
"372 -20 OFFCURVE",
"428 -20 CURVE SMOOTH"
);
},
{
closed = 1;
nodes = (
"175 477 LINE SMOOTH",
"175 681 OFFCURVE",
"284 797 OFFCURVE",
"428 797 CURVE SMOOTH",
"479 797 OFFCURVE",
"526 782 OFFCURVE",
"566 753 CURVE",
"263 69 LINE",
"208 123 OFFCURVE",
"175 210 OFFCURVE",
"175 323 CURVE"
);
},
{
closed = 1;
nodes = (
"377 3 OFFCURVE",
"331 17 OFFCURVE",
"292 44 CURVE",
"595 727 LINE",
"648 673 OFFCURVE",
"681 588 OFFCURVE",
"681 477 CURVE SMOOTH",
"681 323 LINE SMOOTH",
"681 119 OFFCURVE",
"571 3 OFFCURVE",
"428 3 CURVE SMOOTH"
);
}
);
width = 856;
}
);
leftKerningGroup = O;
rightKerningGroup = O;
unicode = 00D8;
},
{
glyphname = OE;
lastChange = "2016-09-01 07:33:30 +0000";
layers = (
{
layerId = UUID0;
paths = (
{
closed = 1;
nodes = (
"954 560 LINE",
"894 415 LINE",
"777 415 LINE",
"777 775 LINE",
"1053 775 LINE",
"1130 571 LINE",
"1157 571 LINE",
"1157 800 LINE",
"678 800 LINE",
"678 709 LINE",
"620 779 OFFCURVE",
"536 820 OFFCURVE",
"428 820 CURVE SMOOTH",
"207 820 OFFCURVE",
"51 650 OFFCURVE",
"51 400 CURVE SMOOTH",
"51 151 OFFCURVE",
"207 -20 OFFCURVE",
"428 -20 CURVE SMOOTH",
"535 -20 OFFCURVE",
"620 20 OFFCURVE",
"678 91 CURVE",
"678 0 LINE",
"1179 0 LINE",
"1179 244 LINE",
"1153 244 LINE",
"1071 24 LINE",
"777 24 LINE",
"777 391 LINE",
"894 391 LINE",
"954 244 LINE",
"980 244 LINE",
"980 560 LINE"
);
},
{
closed = 1;
nodes = (
"284 3 OFFCURVE",
"179 119 OFFCURVE",
"179 323 CURVE SMOOTH",
"179 477 LINE SMOOTH",
"179 681 OFFCURVE",
"284 797 OFFCURVE",
"428 797 CURVE SMOOTH",
"572 797 OFFCURVE",
"667 681 OFFCURVE",
"667 477 CURVE SMOOTH",
"667 323 LINE SMOOTH",
"667 119 OFFCURVE",
"572 3 OFFCURVE",
"428 3 CURVE SMOOTH"
);
}
);
width = 1233;
}
);
leftKerningGroup = O;
rightKerningGroup = E;
unicode = 0152;
},
{
glyphname = P;
lastChange = "2016-09-01 07:33:30 +0000";
layers = (
{
layerId = UUID0;
paths = (
{
closed = 1;
nodes = (
"644 710 OFFCURVE",
"553 800 OFFCURVE",
"352 800 CURVE SMOOTH",
"240 800 LINE",
"38 800 LINE",
"38 778 LINE",
"130 764 LINE",
"130 36 LINE",
"38 21 LINE",
"38 0 LINE",
"332 0 LINE",
"332 21 LINE",
"240 36 LINE",
"240 310 LINE",
"352 310 LINE SMOOTH",
"553 310 OFFCURVE",
"644 399 OFFCURVE",
"644 555 CURVE SMOOTH"
);
},
{
closed = 1;
nodes = (
"338 775 LINE SMOOTH",
"466 775 OFFCURVE",
"523 704 OFFCURVE",
"523 575 CURVE SMOOTH",
"523 535 LINE SMOOTH",
"523 406 OFFCURVE",
"466 334 OFFCURVE",
"338 334 CURVE SMOOTH",
"240 334 LINE",
"240 775 LINE"
);
}
);
width = 676;
}
);
leftKerningGroup = I;
unicode = 0050;
},
{
glyphname = Thorn;
lastChange = "2016-09-01 07:33:30 +0000";
layers = (
{
layerId = UUID0;
paths = (
{
closed = 1;
nodes = (
"336 21 LINE",
"244 36 LINE",
"244 183 LINE",
"356 183 LINE SMOOTH",
"574 183 OFFCURVE",
"676 248 OFFCURVE",
"676 403 CURVE SMOOTH",
"676 559 OFFCURVE",
"574 624 OFFCURVE",
"356 624 CURVE SMOOTH",
"244 624 LINE",
"244 764 LINE",
"336 778 LINE",
"336 800 LINE",
"38 800 LINE",
"38 778 LINE",
"130 764 LINE",
"130 36 LINE",
"38 21 LINE",
"38 0 LINE",
"336 0 LINE"
);
},
{
closed = 1;
nodes = (
"342 600 LINE SMOOTH",
"487 600 OFFCURVE",
"548 533 OFFCURVE",
"548 418 CURVE SMOOTH",
"548 388 LINE SMOOTH",
"548 274 OFFCURVE",
"487 207 OFFCURVE",
"342 207 CURVE SMOOTH",
"244 207 LINE",
"244 600 LINE"
);
}
);
width = 704;
}
);
leftKerningGroup = I;
unicode = 00DE;
},
{
glyphname = Q;
lastChange = "2016-09-01 07:33:30 +0000";
layers = (
{
layerId = UUID0;
paths = (
{
closed = 1;
nodes = (
"613 -208 LINE",
"533 -208 OFFCURVE",
"491 -167 OFFCURVE",
"491 -82 CURVE SMOOTH",
"491 -15 LINE",
"677 14 OFFCURVE",
"805 175 OFFCURVE",
"805 400 CURVE SMOOTH",
"805 650 OFFCURVE",
"648 820 OFFCURVE",
"428 820 CURVE SMOOTH",
"207 820 OFFCURVE",
"51 650 OFFCURVE",
"51 400 CURVE SMOOTH",
"51 174 OFFCURVE",
"179 12 OFFCURVE",
"368 -15 CURVE",
"368 -58 LINE SMOOTH",
"368 -174 OFFCURVE",
"440 -231 OFFCURVE",
"580 -231 CURVE SMOOTH",
"613 -231 LINE"
);
},
{
closed = 1;
nodes = (
"284 3 OFFCURVE",
"177 119 OFFCURVE",
"177 323 CURVE SMOOTH",
"177 477 LINE SMOOTH",
"177 681 OFFCURVE",
"284 797 OFFCURVE",
"428 797 CURVE SMOOTH",
"571 797 OFFCURVE",
"679 681 OFFCURVE",
"679 477 CURVE SMOOTH",
"679 323 LINE SMOOTH",
"679 119 OFFCURVE",
"571 3 OFFCURVE",
"428 3 CURVE SMOOTH"
);
}
);
width = 856;
}
);
leftKerningGroup = O;
rightKerningGroup = O;
unicode = 0051;
},
{
glyphname = R;
lastChange = "2016-09-01 07:33:30 +0000";
layers = (
{
layerId = UUID0;
paths = (
{
closed = 1;
nodes = (
"729 69 LINE",
"707 46 OFFCURVE",
"679 32 OFFCURVE",
"657 36 CURVE SMOOTH",
"633 41 OFFCURVE",
"624 66 OFFCURVE",
"614 131 CURVE SMOOTH",
"601 217 LINE SMOOTH",
"585 315 OFFCURVE",
"521 375 OFFCURVE",
"419 389 CURVE",
"419 395 LINE",
"563 414 OFFCURVE",
"627 484 OFFCURVE",
"627 594 CURVE SMOOTH",
"627 730 OFFCURVE",
"540 800 OFFCURVE",
"318 800 CURVE SMOOTH",
"240 800 LINE",
"38 800 LINE",
"38 778 LINE",
"130 764 LINE",
"130 36 LINE",
"38 21 LINE",
"38 0 LINE",
"332 0 LINE",
"332 21 LINE",
"240 36 LINE",
"240 388 LINE",
"318 388 LINE SMOOTH",
"428 388 OFFCURVE",
"466 324 OFFCURVE",
"478 243 CURVE SMOOTH",
"497 109 LINE SMOOTH",
"510 21 OFFCURVE",
"545 -10 OFFCURVE",
"619 -10 CURVE SMOOTH",
"665 -10 OFFCURVE",
"706 6 OFFCURVE",
"746 51 CURVE"
);
},
{
closed = 1;
nodes = (
"318 775 LINE SMOOTH",
"433 775 OFFCURVE",
"506 728 OFFCURVE",
"506 609 CURVE SMOOTH",
"506 588 LINE SMOOTH",
"506 469 OFFCURVE",
"447 412 OFFCURVE",
"352 412 CURVE SMOOTH",
"240 412 LINE",
"240 775 LINE"
);
}
);
width = 726;
}
);
leftKerningGroup = I;
unicode = 0052;
},
{
glyphname = S;
lastChange = "2016-09-01 07:33:30 +0000";
layers = (
{
layerId = UUID0;
paths = (
{
closed = 1;
nodes = (
"537 820 LINE",
"464 789 LINE",
"413 811 OFFCURVE",
"358 820 OFFCURVE",
"301 820 CURVE SMOOTH",
"152 820 OFFCURVE",
"67 723 OFFCURVE",
"67 585 CURVE SMOOTH",
"67 487 OFFCURVE",
"123 407 OFFCURVE",
"242 375 CURVE",
"408 332 LINE SMOOTH",
"517 304 OFFCURVE",
"565 262 OFFCURVE",
"565 179 CURVE SMOOTH",
"565 63 OFFCURVE",
"475 2 OFFCURVE",
"362 2 CURVE SMOOTH",
"291 2 OFFCURVE",
"228 21 OFFCURVE",
"172 61 CURVE",
"86 247 LINE",
"64 247 LINE",
"64 -10 LINE",
"86 -10 LINE",
"171 33 LINE",
"227 0 OFFCURVE",
"291 -20 OFFCURVE",
"354 -20 CURVE SMOOTH",
"505 -20 OFFCURVE",
"606 67 OFFCURVE",
"606 217 CURVE SMOOTH",
"606 370 OFFCURVE",
"543 427 OFFCURVE",
"434 455 CURVE SMOOTH",
"255 502 LINE SMOOTH",
"169 524 OFFCURVE",
"115 561 OFFCURVE",
"115 636 CURVE SMOOTH",
"115 731 OFFCURVE",
"184 798 OFFCURVE",
"302 798 CURVE SMOOTH",
"362 798 OFFCURVE",
"419 784 OFFCURVE",
"465 762 CURVE",
"537 616 LINE",
"559 616 LINE",
"559 820 LINE"
);
}
);
width = 651;
}
);
unicode = 0053;
},
{
glyphname = T;
lastChange = "2016-09-01 07:33:30 +0000";
layers = (
{
layerId = UUID0;
paths = (
{
closed = 1;
nodes = (
"645 577 LINE",
"675 577 LINE",
"675 800 LINE",
"24 800 LINE",
"24 577 LINE",
"53 577 LINE",
"129 775 LINE",
"294 775 LINE",
"294 36 LINE",
"202 21 LINE",
"202 0 LINE",
"496 0 LINE",
"496 21 LINE",
"404 36 LINE",
"404 775 LINE",
"570 775 LINE"
);
}
);
width = 698;
}
);
unicode = 0054;
},
{
glyphname = U;
lastChange = "2016-09-01 07:33:30 +0000";
layers = (
{
layerId = UUID0;
paths = (
{
closed = 1;
nodes = (
"686 739 LINE",
"782 778 LINE",
"782 800 LINE",
"569 800 LINE",
"569 778 LINE",
"662 739 LINE",
"662 219 LINE SMOOTH",
"662 73 OFFCURVE",
"579 16 OFFCURVE",
"450 16 CURVE SMOOTH",
"297 16 OFFCURVE",
"228 91 OFFCURVE",
"228 219 CURVE SMOOTH",
"228 764 LINE",
"320 778 LINE",
"320 800 LINE",
"26 800 LINE",
"26 778 LINE",
"118 764 LINE",
"118 219 LINE SMOOTH",
"118 87 OFFCURVE",
"193 -20 OFFCURVE",
"401 -20 CURVE SMOOTH",
"608 -20 OFFCURVE",
"686 63 OFFCURVE",
"686 219 CURVE"
);
}
);
width = 807;
}
);
leftKerningGroup = U;
rightKerningGroup = U;
unicode = 0055;
},
{
glyphname = V;
lastChange = "2016-09-01 07:33:30 +0000";
layers = (
{
layerId = UUID0;
paths = (
{
closed = 1;
nodes = (
"340 -20 LINE",
"348 -20 LINE",
"634 734 LINE",
"707 778 LINE",
"707 800 LINE",
"492 800 LINE",
"492 778 LINE",
"607 733 LINE",
"391 167 LINE",
"171 766 LINE",
"265 778 LINE",
"265 800 LINE",
"-28 800 LINE",
"-28 778 LINE",
"52 764 LINE"
);
}
);
width = 693;
}
);
unicode = 0056;
},
{
glyphname = W;
lastChange = "2016-09-01 07:33:30 +0000";
layers = (
{
layerId = UUID0;
paths = (
{
closed = 1;
nodes = (
"891 778 LINE",
"1004 733 LINE",
"789 173 LINE",
"572 766 LINE",
"658 778 LINE",
"658 800 LINE",
"361 800 LINE",
"361 778 LINE",
"453 764 LINE",
"528 554 LINE",
"382 172 LINE",
"167 764 LINE",
"258 778 LINE",
"258 800 LINE",
"-20 800 LINE",
"-20 778 LINE",
"47 764 LINE",
"329 -20 LINE",
"337 -20 LINE",
"541 519 LINE",
"736 -20 LINE",
"744 -20 LINE",
"1030 734 LINE",
"1106 778 LINE",
"1106 800 LINE",
"891 800 LINE"
);
}
);
width = 1083;
}
);
unicode = 0057;
},
{
glyphname = X;
lastChange = "2016-09-01 07:33:30 +0000";
layers = (
{
layerId = UUID0;
paths = (
{
closed = 1;
nodes = (
"241 21 LINE",
"123 68 LINE",
"344 362 LINE",
"562 34 LINE",
"483 21 LINE",
"483 0 LINE",
"787 0 LINE",
"787 21 LINE",
"701 35 LINE",
"424 452 LINE",
"628 725 LINE",
"723 778 LINE",
"723 800 LINE",
"484 800 LINE",
"484 778 LINE",
"603 730 LINE",
"410 472 LINE",
"216 766 LINE",
"295 778 LINE",
"295 800 LINE",
"-8 800 LINE",
"-8 778 LINE",
"77 764 LINE",
"330 383 LINE",
"101 77 LINE",
"2 21 LINE",
"2 0 LINE",
"241 0 LINE"
);
}
);
width = 761;
}
);
unicode = 0058;
},
{
glyphname = Y;
lastChange = "2016-09-06 19:18:23 +0000";
layers = (
{
layerId = UUID0;
paths = (
{
closed = 1;
nodes = (
"399 373 LINE",
"607 729 LINE",
"684 778 LINE",
"684 800 LINE",
"460 800 LINE",
"460 778 LINE",
"580 730 LINE",
"387 401 LINE",
"177 764 LINE",
"270 778 LINE",
"270 800 LINE",
"-31 800 LINE",
"-31 778 LINE",
"48 764 LINE",
"291 340 LINE",
"291 36 LINE",
"198 21 LINE",
"198 0 LINE",
"492 0 LINE",
"492 21 LINE",
"399 36 LINE"
);
}
);
width = 676;
}
);
leftKerningGroup = Y;
rightKerningGroup = Y;
unicode = 0059;
},
{
glyphname = Z;
lastChange = "2016-09-01 07:33:30 +0000";
layers = (
{
layerId = UUID0;
paths = (
{
closed = 1;
nodes = (
"80 800 LINE",
"56 585 LINE",
"82 585 LINE",
"185 775 LINE",
"495 775 LINE",
"27 24 LINE",
"27 0 LINE",
"616 0 LINE",
"640 229 LINE",
"614 229 LINE",
"511 24 LINE",
"161 24 LINE",
"630 775 LINE",
"630 800 LINE"
);
}
);
width = 682;
}
);
unicode = 005A;
},
{
glyphname = a;
lastChange = "2016-09-06 18:06:49 +0000";
layers = (
{
anchors = (
{
name = top;
position = "{264, 518}";
}
);
layerId = UUID0;
paths = (
{
closed = 1;
nodes = (
"368 20 OFFCURVE",
"420 -10 OFFCURVE",
"472 -10 CURVE SMOOTH",
"529 -10 OFFCURVE",
"561 18 OFFCURVE",
"561 65 CURVE",
"540 65 LINE",
"540 38 OFFCURVE",
"526 22 OFFCURVE",
"503 22 CURVE SMOOTH",
"479 22 OFFCURVE",
"466 38 OFFCURVE",
"466 67 CURVE SMOOTH",
"466 373 LINE SMOOTH",
"466 489 OFFCURVE",
"380 527 OFFCURVE",
"264 527 CURVE SMOOTH",
"158 527 OFFCURVE",
"63 478 OFFCURVE",
"63 399 CURVE SMOOTH",
"63 365 OFFCURVE",
"90 336 OFFCURVE",
"125 336 CURVE SMOOTH",
"159 336 OFFCURVE",
"189 365 OFFCURVE",
"189 399 CURVE",
"171 405 OFFCURVE",
"161 417 OFFCURVE",
"161 437 CURVE SMOOTH",
"161 469 OFFCURVE",
"200 505 OFFCURVE",
"264 505 CURVE SMOOTH",
"328 505 OFFCURVE",
"366 470 OFFCURVE",
"366 393 CURVE SMOOTH",
"366 298 LINE",
"329 298 LINE SMOOTH",
"188 298 OFFCURVE",
"37 262 OFFCURVE",
"37 123 CURVE SMOOTH",
"37 31 OFFCURVE",
"103 -10 OFFCURVE",
"178 -10 CURVE SMOOTH",
"262 -10 OFFCURVE",
"333 30 OFFCURVE",
"366 99 CURVE"
);
},
{
closed = 1;
nodes = (
"366 170 LINE",
"357 84 OFFCURVE",
"289 37 OFFCURVE",
"228 37 CURVE SMOOTH",
"177 37 OFFCURVE",
"146 69 OFFCURVE",
"146 123 CURVE SMOOTH",
"146 231 OFFCURVE",
"234 273 OFFCURVE",
"329 273 CURVE SMOOTH",
"366 273 LINE"
);
}
);
width = 558;
}
);
leftKerningGroup = a;
rightKerningGroup = a;
unicode = 0061;
},
{
glyphname = ae;
lastChange = "2016-09-01 07:33:30 +0000";
layers = (
{
layerId = UUID0;
paths = (
{
closed = 1;
nodes = (
"519 12 OFFCURVE",
"468 96 OFFCURVE",
"468 209 CURVE SMOOTH",
"468 308 LINE",
"836 308 LINE",
"834 437 OFFCURVE",
"744 527 OFFCURVE",
"616 527 CURVE SMOOTH",
"548 527 OFFCURVE",
"487 504 OFFCURVE",
"441 461 CURVE",
"408 509 OFFCURVE",
"343 527 OFFCURVE",
"264 527 CURVE SMOOTH",
"158 527 OFFCURVE",
"63 478 OFFCURVE",
"63 399 CURVE SMOOTH",
"63 365 OFFCURVE",
"90 336 OFFCURVE",
"125 336 CURVE SMOOTH",
"159 336 OFFCURVE",
"189 365 OFFCURVE",
"189 399 CURVE",
"171 405 OFFCURVE",
"161 417 OFFCURVE",
"161 437 CURVE SMOOTH",
"161 469 OFFCURVE",
"200 505 OFFCURVE",
"264 505 CURVE SMOOTH",
"328 505 OFFCURVE",
"366 470 OFFCURVE",
"366 393 CURVE SMOOTH",
"366 298 LINE",
"329 298 LINE SMOOTH",
"188 298 OFFCURVE",
"37 262 OFFCURVE",
"37 123 CURVE SMOOTH",
"37 31 OFFCURVE",
"103 -10 OFFCURVE",
"178 -10 CURVE SMOOTH",
"271 -10 OFFCURVE",
"341 30 OFFCURVE",
"381 138 CURVE",
"419 46 OFFCURVE",
"513 -10 OFFCURVE",
"622 -10 CURVE SMOOTH",
"732 -10 OFFCURVE",
"813 53 OFFCURVE",
"832 152 CURVE",
"809 152 LINE",
"793 68 OFFCURVE",
"712 12 OFFCURVE",
"622 12 CURVE SMOOTH"
);
},
{
closed = 1;
nodes = (
"177 37 OFFCURVE",
"146 69 OFFCURVE",
"146 123 CURVE SMOOTH",
"146 231 OFFCURVE",
"234 273 OFFCURVE",
"329 273 CURVE SMOOTH",
"366 273 LINE",
"366 191 LINE SMOOTH",
"366 104 OFFCURVE",
"296 37 OFFCURVE",
"228 37 CURVE SMOOTH"
);
},
{
closed = 1;
nodes = (
"691 505 OFFCURVE",
"727 449 OFFCURVE",
"727 333 CURVE",
"469 333 LINE",
"476 433 OFFCURVE",
"523 505 OFFCURVE",
"616 505 CURVE SMOOTH"
);
}
);
width = 874;
}
);
leftKerningGroup = a;
rightKerningGroup = e;
unicode = 00E6;
},
{
glyphname = b;
lastChange = "2016-09-01 07:33:30 +0000";
layers = (
{
layerId = UUID0;
paths = (
{
closed = 1;
nodes = (
"20 0 LINE",
"190 0 LINE",
"190 104 LINE",
"222 36 OFFCURVE",
"278 -10 OFFCURVE",
"359 -10 CURVE SMOOTH",
"502 -10 OFFCURVE",
"598 96 OFFCURVE",
"598 259 CURVE SMOOTH",
"598 422 OFFCURVE",
"502 527 OFFCURVE",
"359 527 CURVE SMOOTH",
"278 527 OFFCURVE",
"222 481 OFFCURVE",
"190 413 CURVE",
"190 800 LINE",
"20 800 LINE",
"20 780 LINE",
"90 770 LINE",
"90 30 LINE",
"20 20 LINE"
);
},
{
closed = 1;
nodes = (
"488 209 LINE SMOOTH",
"488 96 OFFCURVE",
"452 15 OFFCURVE",
"349 15 CURVE SMOOTH",
"256 15 OFFCURVE",
"190 106 OFFCURVE",
"190 209 CURVE SMOOTH",
"190 316 LINE",
"193 416 OFFCURVE",
"258 502 OFFCURVE",
"349 502 CURVE SMOOTH",
"452 502 OFFCURVE",
"488 422 OFFCURVE",
"488 309 CURVE SMOOTH"
);
}
);
width = 640;
}
);
leftKerningGroup = h;
unicode = 0062;
},
{
glyphname = c;
lastChange = "2016-09-01 07:33:30 +0000";
layers = (
{
layerId = UUID0;
paths = (
{
closed = 1;
nodes = (
"381 333 OFFCURVE",
"408 306 OFFCURVE",
"444 306 CURVE SMOOTH",
"479 306 OFFCURVE",
"506 328 OFFCURVE",
"506 374 CURVE SMOOTH",
"506 463 OFFCURVE",
"415 527 OFFCURVE",
"300 527 CURVE SMOOTH",
"168 527 OFFCURVE",
"41 432 OFFCURVE",
"41 259 CURVE SMOOTH",
"41 96 OFFCURVE",
"157 -10 OFFCURVE",
"300 -10 CURVE SMOOTH",
"405 -10 OFFCURVE",
"485 53 OFFCURVE",
"504 152 CURVE",
"481 152 LINE",
"465 68 OFFCURVE",
"390 12 OFFCURVE",
"300 12 CURVE SMOOTH",
"197 12 OFFCURVE",
"151 96 OFFCURVE",
"151 209 CURVE SMOOTH",
"151 309 LINE SMOOTH",
"151 432 OFFCURVE",
"204 505 OFFCURVE",
"300 505 CURVE SMOOTH",
"366 505 OFFCURVE",
"408 470 OFFCURVE",
"408 421 CURVE SMOOTH",
"408 397 OFFCURVE",
"401 383 OFFCURVE",
"381 369 CURVE"
);
}
);
width = 543;
}
);
leftKerningGroup = o;
rightKerningGroup = c;
unicode = 0063;
},
{
glyphname = ccedilla;
lastChange = "2016-09-05 17:04:42 +0000";
layers = (
{
layerId = UUID0;
paths = (
{
closed = 1;
nodes = (
"381 333 OFFCURVE",
"408 306 OFFCURVE",
"444 306 CURVE SMOOTH",
"479 306 OFFCURVE",
"506 328 OFFCURVE",
"506 374 CURVE SMOOTH",
"506 463 OFFCURVE",
"415 527 OFFCURVE",
"300 527 CURVE SMOOTH",
"168 527 OFFCURVE",
"41 432 OFFCURVE",
"41 259 CURVE SMOOTH",
"41 101 OFFCURVE",
"150 -3 OFFCURVE",
"287 -10 CURVE",
"271 -69 LINE",
"322 -74 OFFCURVE",
"343 -103 OFFCURVE",
"343 -137 CURVE SMOOTH",
"343 -187 OFFCURVE",
"303 -204 OFFCURVE",
"264 -204 CURVE SMOOTH",
"254 -204 OFFCURVE",
"244 -203 OFFCURVE",
"236 -201 CURVE",
"230 -223 LINE",
"251 -229 OFFCURVE",
"275 -232 OFFCURVE",
"302 -232 CURVE SMOOTH",
"365 -232 OFFCURVE",
"428 -205 OFFCURVE",
"428 -136 CURVE SMOOTH",
"428 -73 OFFCURVE",
"377 -47 OFFCURVE",
"306 -44 CURVE",
"314 -9 LINE",
"412 -4 OFFCURVE",
"486 57 OFFCURVE",
"504 152 CURVE",
"481 152 LINE",
"465 68 OFFCURVE",
"390 12 OFFCURVE",
"300 12 CURVE SMOOTH",
"197 12 OFFCURVE",
"151 96 OFFCURVE",
"151 209 CURVE SMOOTH",
"151 309 LINE SMOOTH",
"151 432 OFFCURVE",
"204 505 OFFCURVE",
"300 505 CURVE SMOOTH",
"366 505 OFFCURVE",
"408 470 OFFCURVE",
"408 421 CURVE SMOOTH",
"408 397 OFFCURVE",
"401 383 OFFCURVE",
"381 369 CURVE"
);
}
);
width = 543;
}
);
leftKerningGroup = o;
rightKerningGroup = c;
unicode = 00E7;
},
{
glyphname = d;
lastChange = "2016-09-01 07:33:30 +0000";
layers = (
{
layerId = UUID0;
paths = (
{
closed = 1;
nodes = (
"450 0 LINE",
"620 0 LINE",
"620 20 LINE",
"550 30 LINE",
"550 800 LINE",
"380 800 LINE",
"380 780 LINE",
"450 770 LINE",
"450 413 LINE",
"418 481 OFFCURVE",
"361 527 OFFCURVE",
"281 527 CURVE SMOOTH",
"138 527 OFFCURVE",
"42 422 OFFCURVE",
"42 259 CURVE SMOOTH",
"42 96 OFFCURVE",
"138 -10 OFFCURVE",
"281 -10 CURVE SMOOTH",
"361 -10 OFFCURVE",
"418 36 OFFCURVE",
"450 104 CURVE"
);
},
{
closed = 1;
nodes = (
"152 309 LINE SMOOTH",
"152 422 OFFCURVE",
"188 502 OFFCURVE",
"291 502 CURVE SMOOTH",
"381 502 OFFCURVE",
"447 416 OFFCURVE",
"450 316 CURVE",
"450 201 LINE",
"447 101 OFFCURVE",
"381 15 OFFCURVE",
"291 15 CURVE SMOOTH",
"188 15 OFFCURVE",
"152 96 OFFCURVE",
"152 209 CURVE SMOOTH"
);
}
);
width = 640;
}
);
unicode = 0064;
},
{
glyphname = eth;
lastChange = "2016-09-01 07:33:30 +0000";
layers = (
{
layerId = UUID0;
paths = (
{
closed = 1;
nodes = (
"498 798 LINE",
"383 735 LINE",
"332 768 OFFCURVE",
"270 793 OFFCURVE",
"197 810 CURVE",
"192 788 LINE",
"263 770 OFFCURVE",
"314 747 OFFCURVE",
"352 718 CURVE",
"233 653 LINE",
"245 629 LINE",
"373 700 LINE",
"424 649 OFFCURVE",
"442 582 OFFCURVE",
"447 493 CURVE",
"406 514 OFFCURVE",
"353 527 OFFCURVE",
"300 527 CURVE SMOOTH",
"157 527 OFFCURVE",
"41 422 OFFCURVE",
"41 259 CURVE SMOOTH",
"41 96 OFFCURVE",
"157 -10 OFFCURVE",
"300 -10 CURVE SMOOTH",
"443 -10 OFFCURVE",
"560 96 OFFCURVE",
"560 259 CURVE SMOOTH",
"560 372 LINE SMOOTH",
"560 527 OFFCURVE",
"508 642 OFFCURVE",
"406 718 CURVE",
"511 776 LINE"
);
},
{
closed = 1;
nodes = (
"450 209 LINE SMOOTH",
"450 96 OFFCURVE",
"403 12 OFFCURVE",
"300 12 CURVE SMOOTH",
"197 12 OFFCURVE",
"151 96 OFFCURVE",
"151 209 CURVE SMOOTH",
"151 309 LINE SMOOTH",
"151 422 OFFCURVE",
"197 505 OFFCURVE",
"300 505 CURVE SMOOTH",
"353 505 OFFCURVE",
"408 489 OFFCURVE",
"448 467 CURVE",
"449 444 OFFCURVE",
"450 419 OFFCURVE",
"450 393 CURVE"
);
}
);
width = 622;
}
);
unicode = 00F0;
},
{
glyphname = e;
lastChange = "2016-09-06 11:22:21 +0000";
layers = (
{
anchors = (
{
name = top;
position = "{298, 518}";
}
);
layerId = UUID0;
paths = (
{
closed = 1;
nodes = (
"202 12 OFFCURVE",
"151 96 OFFCURVE",
"151 209 CURVE SMOOTH",
"151 308 LINE",
"519 308 LINE",
"517 437 OFFCURVE",
"427 527 OFFCURVE",
"299 527 CURVE SMOOTH",
"156 527 OFFCURVE",
"41 422 OFFCURVE",
"41 259 CURVE SMOOTH",
"41 96 OFFCURVE",
"157 -10 OFFCURVE",
"305 -10 CURVE SMOOTH",
"415 -10 OFFCURVE",
"496 53 OFFCURVE",
"515 152 CURVE",
"492 152 LINE",
"476 68 OFFCURVE",
"395 12 OFFCURVE",
"305 12 CURVE SMOOTH"
);
},
{
closed = 1;
nodes = (
"374 505 OFFCURVE",
"409 449 OFFCURVE",
"409 333 CURVE",
"152 333 LINE",
"158 433 OFFCURVE",
"206 505 OFFCURVE",
"298 505 CURVE SMOOTH"
);
}
);
width = 557;
}
);
leftKerningGroup = o;
rightKerningGroup = e;
unicode = 0065;
},
{
glyphname = f;
lastChange = "2016-09-01 07:33:30 +0000";
layers = (
{
layerId = UUID0;
paths = (
{
closed = 1;
nodes = (
"26 0 LINE",
"315 0 LINE",
"315 20 LINE",
"196 30 LINE",
"196 488 LINE",
"326 498 LINE",
"326 518 LINE",
"196 518 LINE",
"196 633 LINE SMOOTH",
"196 741 OFFCURVE",
"216 788 OFFCURVE",
"268 788 CURVE SMOOTH",
"294 788 OFFCURVE",
"314 768 OFFCURVE",
"314 746 CURVE SMOOTH",
"314 726 OFFCURVE",
"306 707 OFFCURVE",
"280 699 CURVE",
"280 665 OFFCURVE",
"309 636 OFFCURVE",
"343 636 CURVE SMOOTH",
"381 636 OFFCURVE",
"404 665 OFFCURVE",
"404 704 CURVE SMOOTH",
"404 771 OFFCURVE",
"344 810 OFFCURVE",
"268 810 CURVE SMOOTH",
"134 810 OFFCURVE",
"96 717 OFFCURVE",
"96 602 CURVE SMOOTH",
"96 518 LINE",
"26 518 LINE",
"26 498 LINE",
"96 488 LINE",
"96 30 LINE",
"26 20 LINE"
);
}
);
width = 342;
}
);
unicode = 0066;
},
{
glyphname = g;
lastChange = "2016-09-01 07:33:30 +0000";
layers = (
{
layerId = UUID0;
paths = (
{
closed = 1;
nodes = (
"381 -27 LINE SMOOTH",
"462 -27 OFFCURVE",
"484 -54 OFFCURVE",
"484 -109 CURVE SMOOTH",
"484 -187 OFFCURVE",
"401 -273 OFFCURVE",
"269 -273 CURVE SMOOTH",
"150 -273 OFFCURVE",
"118 -199 OFFCURVE",
"118 -148 CURVE SMOOTH",
"118 -112 OFFCURVE",
"130 -84 OFFCURVE",
"149 -64 CURVE",
"135 -62 OFFCURVE",
"124 -60 OFFCURVE",
"112 -60 CURVE SMOOTH",
"48 -60 OFFCURVE",
"15 -107 OFFCURVE",
"15 -152 CURVE SMOOTH",
"15 -231 OFFCURVE",
"86 -292 OFFCURVE",
"268 -292 CURVE SMOOTH",
"425 -292 OFFCURVE",
"513 -189 OFFCURVE",
"513 -67 CURVE SMOOTH",
"513 36 OFFCURVE",
"451 69 OFFCURVE",
"351 69 CURVE SMOOTH",
"186 69 LINE SMOOTH",
"136 69 OFFCURVE",
"96 85 OFFCURVE",
"96 117 CURVE SMOOTH",
"96 150 OFFCURVE",
"124 167 OFFCURVE",
"163 169 CURVE",
"191 156 OFFCURVE",
"224 150 OFFCURVE",
"261 150 CURVE SMOOTH",
"375 150 OFFCURVE",
"466 218 OFFCURVE",
"466 338 CURVE SMOOTH",
"466 391 OFFCURVE",
"448 434 OFFCURVE",
"419 465 CURVE",
"528 474 OFFCURVE",
"567 521 OFFCURVE",
"567 574 CURVE SMOOTH",
"567 612 OFFCURVE",
"539 635 OFFCURVE",
"504 635 CURVE SMOOTH",
"471 635 OFFCURVE",
"442 608 OFFCURVE",
"442 574 CURVE",
"459 574 OFFCURVE",
"476 562 OFFCURVE",
"476 538 CURVE SMOOTH",
"476 512 OFFCURVE",
"453 487 OFFCURVE",
"400 483 CURVE",
"363 512 OFFCURVE",
"315 527 OFFCURVE",
"261 527 CURVE SMOOTH",
"149 527 OFFCURVE",
"58 459 OFFCURVE",
"58 338 CURVE SMOOTH",
"58 267 OFFCURVE",
"87 215 OFFCURVE",
"136 183 CURVE",
"81 172 OFFCURVE",
"45 133 OFFCURVE",
"45 72 CURVE SMOOTH",
"45 8 OFFCURVE",
"88 -27 OFFCURVE",
"186 -27 CURVE SMOOTH"
);
},
{
closed = 1;
nodes = (
"372 314 LINE SMOOTH",
"372 226 OFFCURVE",
"338 167 OFFCURVE",
"261 167 CURVE SMOOTH",
"185 167 OFFCURVE",
"152 226 OFFCURVE",
"152 314 CURVE SMOOTH",
"152 363 LINE SMOOTH",
"152 456 OFFCURVE",
"185 510 OFFCURVE",
"261 510 CURVE SMOOTH",
"338 510 OFFCURVE",
"372 456 OFFCURVE",
"372 363 CURVE SMOOTH"
);
}
);
width = 539;
}
);
unicode = 0067;
},
{
glyphname = h;
lastChange = "2016-09-01 07:33:30 +0000";
layers = (
{
layerId = UUID0;
paths = (
{
closed = 1;
nodes = (
"20 780 LINE",
"90 770 LINE",
"90 30 LINE",
"20 20 LINE",
"20 0 LINE",
"250 0 LINE",
"250 20 LINE",
"190 30 LINE",
"190 375 LINE",
"228 432 OFFCURVE",
"288 491 OFFCURVE",
"354 491 CURVE SMOOTH",
"414 491 OFFCURVE",
"440 449 OFFCURVE",
"440 382 CURVE SMOOTH",
"440 30 LINE",
"380 20 LINE",
"380 0 LINE",
"610 0 LINE",
"610 20 LINE",
"540 30 LINE",
"540 384 LINE SMOOTH",
"540 482 OFFCURVE",
"478 527 OFFCURVE",
"385 527 CURVE SMOOTH",
"305 527 OFFCURVE",
"237 478 OFFCURVE",
"190 410 CURVE",
"190 800 LINE",
"20 800 LINE"
);
}
);
width = 627;
}
);
leftKerningGroup = h;
rightKerningGroup = n;
unicode = 0068;
},
{
glyphname = i;
lastChange = "2016-09-01 07:33:30 +0000";
layers = (
{
layerId = UUID0;
paths = (
{
closed = 1;
nodes = (
"65 664 OFFCURVE",
"95 634 OFFCURVE",
"133 634 CURVE SMOOTH",
"169 634 OFFCURVE",
"198 664 OFFCURVE",
"198 701 CURVE SMOOTH",
"198 738 OFFCURVE",
"169 767 OFFCURVE",
"133 767 CURVE SMOOTH",
"95 767 OFFCURVE",
"65 738 OFFCURVE",
"65 701 CURVE SMOOTH"
);
},
{
closed = 1;
nodes = (
"27 497 LINE",
"97 487 LINE",
"97 30 LINE",
"27 20 LINE",
"27 0 LINE",
"267 0 LINE",
"267 20 LINE",
"197 30 LINE",
"197 517 LINE",
"27 517 LINE"
);
}
);
width = 287;
}
);
leftKerningGroup = i;
rightKerningGroup = i;
unicode = 0069;
},
{
glyphname = idotless;
lastChange = "2016-09-06 14:54:58 +0000";
layers = (
{
anchors = (
{
name = top;
position = "{136, 518}";
}
);
layerId = UUID0;
paths = (
{
closed = 1;
nodes = (
"27 497 LINE",
"97 487 LINE",
"97 30 LINE",
"27 20 LINE",
"27 0 LINE",
"267 0 LINE",
"267 20 LINE",
"197 30 LINE",
"197 517 LINE",
"27 517 LINE"
);
}
);
width = 287;
}
);
leftKerningGroup = i;
rightKerningGroup = i;
unicode = 0131;
},
{
glyphname = j;
lastChange = "2016-09-01 07:33:30 +0000";
layers = (
{
layerId = UUID0;
paths = (
{
closed = 1;
nodes = (
"150 -195 OFFCURVE",
"189 -153 OFFCURVE",
"189 -57 CURVE SMOOTH",
"189 518 LINE",
"89 518 LINE",
"14 518 LINE",
"14 498 LINE",
"89 488 LINE",
"89 133 LINE SMOOTH",
"89 30 OFFCURVE",
"160 4 OFFCURVE",
"160 -87 CURVE SMOOTH",
"160 -138 OFFCURVE",
"138 -168 OFFCURVE",
"103 -168 CURVE SMOOTH",
"74 -168 OFFCURVE",
"62 -149 OFFCURVE",
"62 -127 CURVE SMOOTH",
"62 -107 OFFCURVE",
"73 -88 OFFCURVE",
"94 -74 CURVE",
"94 -74 OFFCURVE",
"86 -21 OFFCURVE",
"31 -21 CURVE SMOOTH",
"-7 -21 OFFCURVE",
"-31 -49 OFFCURVE",
"-31 -89 CURVE SMOOTH",
"-31 -157 OFFCURVE",
"21 -195 OFFCURVE",
"87 -195 CURVE SMOOTH"
);
},
{
closed = 1;
nodes = (
"59 664 OFFCURVE",
"89 634 OFFCURVE",
"127 634 CURVE SMOOTH",
"163 634 OFFCURVE",
"192 664 OFFCURVE",
"192 701 CURVE SMOOTH",
"192 738 OFFCURVE",
"163 767 OFFCURVE",
"127 767 CURVE SMOOTH",
"89 767 OFFCURVE",
"59 738 OFFCURVE",
"59 701 CURVE SMOOTH"
);
}
);
width = 266;
}
);
unicode = 006A;
},
{
glyphname = k;
lastChange = "2016-09-01 07:33:30 +0000";
layers = (
{
layerId = UUID0;
paths = (
{
closed = 1;
nodes = (
"20 0 LINE",
"250 0 LINE",
"250 20 LINE",
"190 30 LINE",
"190 256 LINE",
"216 278 LINE",
"404 30 LINE",
"344 20 LINE",
"344 0 LINE",
"578 0 LINE",
"578 20 LINE",
"524 29 LINE",
"290 339 LINE",
"456 475 LINE",
"520 498 LINE",
"520 518 LINE",
"332 518 LINE",
"332 498 LINE",
"419 475 LINE",
"190 287 LINE",
"190 800 LINE",
"20 800 LINE",
"20 780 LINE",
"90 770 LINE",
"90 30 LINE",
"20 20 LINE"
);
}
);
width = 566;
}
);
leftKerningGroup = h;
unicode = 006B;
},
{
glyphname = l;
lastChange = "2016-09-01 07:33:30 +0000";
layers = (
{
layerId = UUID0;
paths = (
{
closed = 1;
nodes = (
"18 780 LINE",
"93 770 LINE",
"93 30 LINE",
"18 20 LINE",
"18 0 LINE",
"263 0 LINE",
"263 20 LINE",
"193 30 LINE",
"193 800 LINE",
"18 800 LINE"
);
}
);
width = 283;
}
);
unicode = 006C;
},
{
glyphname = m;
lastChange = "2016-09-01 07:33:30 +0000";
layers = (
{
layerId = UUID0;
paths = (
{
closed = 1;
nodes = (
"366 0 LINE",
"587 0 LINE",
"587 20 LINE",
"527 30 LINE",
"527 384 LINE",
"527 391 LINE",
"564 443 OFFCURVE",
"617 491 OFFCURVE",
"676 491 CURVE SMOOTH",
"736 491 OFFCURVE",
"757 449 OFFCURVE",
"757 382 CURVE SMOOTH",
"757 30 LINE",
"697 20 LINE",
"697 0 LINE",
"927 0 LINE",
"927 20 LINE",
"857 30 LINE",
"857 384 LINE SMOOTH",
"857 482 OFFCURVE",
"799 527 OFFCURVE",
"707 527 CURVE SMOOTH",
"631 527 OFFCURVE",
"569 483 OFFCURVE",
"524 421 CURVE",
"510 493 OFFCURVE",
"456 527 OFFCURVE",
"376 527 CURVE SMOOTH",
"302 527 OFFCURVE",
"241 485 OFFCURVE",
"196 426 CURVE",
"196 518 LINE",
"96 518 LINE",
"26 518 LINE",
"26 498 LINE",
"96 488 LINE",
"96 30 LINE",
"26 20 LINE",
"26 0 LINE",
"256 0 LINE",
"256 20 LINE",
"196 30 LINE",
"196 391 LINE",
"233 443 OFFCURVE",
"286 491 OFFCURVE",
"345 491 CURVE SMOOTH",
"405 491 OFFCURVE",
"426 449 OFFCURVE",
"426 382 CURVE SMOOTH",
"426 30 LINE",
"366 20 LINE"
);
}
);
width = 944;
}
);
leftKerningGroup = n;
rightKerningGroup = n;
unicode = 006D;
},
{
glyphname = n;
lastChange = "2016-09-01 07:33:30 +0000";
layers = (
{
layerId = UUID0;
paths = (
{
closed = 1;
nodes = (
"386 0 LINE",
"616 0 LINE",
"616 20 LINE",
"546 30 LINE",
"546 384 LINE SMOOTH",
"546 482 OFFCURVE",
"484 527 OFFCURVE",
"391 527 CURVE SMOOTH",
"311 527 OFFCURVE",
"243 478 OFFCURVE",
"196 410 CURVE",
"196 518 LINE",
"96 518 LINE",
"26 518 LINE",
"26 498 LINE",
"96 488 LINE",
"96 30 LINE",
"26 20 LINE",
"26 0 LINE",
"256 0 LINE",
"256 20 LINE",
"196 30 LINE",
"196 375 LINE",
"234 432 OFFCURVE",
"294 491 OFFCURVE",
"360 491 CURVE SMOOTH",
"420 491 OFFCURVE",
"446 449 OFFCURVE",
"446 382 CURVE SMOOTH",
"446 30 LINE",
"386 20 LINE"
);
}
);
width = 633;
}
);
leftKerningGroup = n;
rightKerningGroup = n;
unicode = 006E;
},
{
glyphname = o;
lastChange = "2016-09-01 07:33:30 +0000";
layers = (
{
layerId = UUID0;
paths = (
{
closed = 1;
nodes = (
"449 209 LINE SMOOTH",
"449 96 OFFCURVE",
"403 12 OFFCURVE",
"300 12 CURVE SMOOTH",
"197 12 OFFCURVE",
"151 96 OFFCURVE",
"151 209 CURVE SMOOTH",
"151 309 LINE SMOOTH",
"151 422 OFFCURVE",
"197 505 OFFCURVE",
"300 505 CURVE SMOOTH",
"403 505 OFFCURVE",
"449 422 OFFCURVE",
"449 309 CURVE SMOOTH"
);
},
{
closed = 1;
nodes = (
"41 96 OFFCURVE",
"157 -10 OFFCURVE",
"300 -10 CURVE SMOOTH",
"443 -10 OFFCURVE",
"559 96 OFFCURVE",
"559 259 CURVE SMOOTH",
"559 422 OFFCURVE",
"443 527 OFFCURVE",
"300 527 CURVE SMOOTH",
"157 527 OFFCURVE",
"41 422 OFFCURVE",
"41 259 CURVE SMOOTH"
);
}
);
width = 600;
}
);
leftKerningGroup = o;
rightKerningGroup = o;
unicode = 006F;
},
{
glyphname = oslash;
lastChange = "2016-09-01 07:33:30 +0000";
layers = (
{
layerId = UUID0;
paths = (
{
closed = 1;
nodes = (
"41 149 OFFCURVE",
"93 65 OFFCURVE",
"171 22 CURVE",
"128 -74 LINE",
"168 -74 LINE",
"204 7 LINE",
"233 -4 OFFCURVE",
"266 -10 OFFCURVE",
"300 -10 CURVE SMOOTH",
"443 -10 OFFCURVE",
"559 96 OFFCURVE",
"559 259 CURVE SMOOTH",
"559 369 OFFCURVE",
"506 453 OFFCURVE",
"427 496 CURVE",
"473 601 LINE",
"433 601 LINE",
"393 511 LINE",
"364 521 OFFCURVE",
"332 527 OFFCURVE",
"300 527 CURVE SMOOTH",
"157 527 OFFCURVE",
"41 422 OFFCURVE",
"41 259 CURVE SMOOTH"
);
},
{
closed = 1;
nodes = (
"449 209 LINE SMOOTH",
"449 96 OFFCURVE",
"403 12 OFFCURVE",
"300 12 CURVE SMOOTH",
"267 12 OFFCURVE",
"241 20 OFFCURVE",
"219 35 CURVE",
"407 458 LINE",
"436 423 OFFCURVE",
"449 370 OFFCURVE",
"449 309 CURVE SMOOTH"
);
},
{
closed = 1;
nodes = (
"151 309 LINE SMOOTH",
"151 422 OFFCURVE",
"197 505 OFFCURVE",
"300 505 CURVE SMOOTH",
"331 505 OFFCURVE",
"357 497 OFFCURVE",
"378 484 CURVE",
"191 62 LINE",
"164 98 OFFCURVE",
"151 149 OFFCURVE",
"151 209 CURVE"
);
}
);
width = 600;
}
);
leftKerningGroup = o;
rightKerningGroup = o;
unicode = 00F8;
},
{
glyphname = oe;
lastChange = "2016-09-01 07:33:30 +0000";
layers = (
{
layerId = UUID0;
paths = (
{
closed = 1;
nodes = (
"610 12 OFFCURVE",
"560 96 OFFCURVE",
"560 209 CURVE SMOOTH",
"560 308 LINE",
"928 308 LINE",
"926 437 OFFCURVE",
"835 527 OFFCURVE",
"708 527 CURVE SMOOTH",
"624 527 OFFCURVE",
"551 492 OFFCURVE",
"504 430 CURVE",
"456 492 OFFCURVE",
"383 527 OFFCURVE",
"300 527 CURVE SMOOTH",
"157 527 OFFCURVE",
"41 422 OFFCURVE",
"41 259 CURVE SMOOTH",
"41 96 OFFCURVE",
"157 -10 OFFCURVE",
"300 -10 CURVE SMOOTH",
"383 -10 OFFCURVE",
"457 26 OFFCURVE",
"504 88 CURVE",
"552 26 OFFCURVE",
"627 -10 OFFCURVE",
"713 -10 CURVE SMOOTH",
"823 -10 OFFCURVE",
"904 53 OFFCURVE",
"923 152 CURVE",
"900 152 LINE",
"884 68 OFFCURVE",
"804 12 OFFCURVE",
"713 12 CURVE SMOOTH"
);
},
{
closed = 1;
nodes = (
"449 209 LINE SMOOTH",
"449 96 OFFCURVE",
"403 12 OFFCURVE",
"300 12 CURVE SMOOTH",
"197 12 OFFCURVE",
"151 96 OFFCURVE",
"151 209 CURVE SMOOTH",
"151 309 LINE SMOOTH",
"151 422 OFFCURVE",
"197 505 OFFCURVE",
"300 505 CURVE SMOOTH",
"403 505 OFFCURVE",
"449 422 OFFCURVE",
"449 309 CURVE SMOOTH"
);
},
{
closed = 1;
nodes = (
"782 505 OFFCURVE",
"818 449 OFFCURVE",
"818 333 CURVE",
"561 333 LINE",
"567 433 OFFCURVE",
"614 505 OFFCURVE",
"707 505 CURVE SMOOTH"
);
}
);
width = 966;
}
);
leftKerningGroup = o;
rightKerningGroup = e;
unicode = 0153;
},
{
glyphname = p;
lastChange = "2016-09-01 07:33:30 +0000";
layers = (
{
layerId = UUID0;
paths = (
{
closed = 1;
nodes = (
"190 517 LINE",
"20 517 LINE",
"20 497 LINE",
"90 487 LINE",
"90 -253 LINE",
"20 -263 LINE",
"20 -283 LINE",
"284 -283 LINE",
"284 -263 LINE",
"190 -253 LINE",
"190 104 LINE",
"222 36 OFFCURVE",
"278 -10 OFFCURVE",
"359 -10 CURVE SMOOTH",
"502 -10 OFFCURVE",
"598 95 OFFCURVE",
"598 258 CURVE SMOOTH",
"598 421 OFFCURVE",
"502 527 OFFCURVE",
"359 527 CURVE SMOOTH",
"278 527 OFFCURVE",
"222 481 OFFCURVE",
"190 412 CURVE"
);
},
{
closed = 1;
nodes = (
"488 208 LINE SMOOTH",
"488 95 OFFCURVE",
"452 15 OFFCURVE",
"349 15 CURVE SMOOTH",
"256 15 OFFCURVE",
"190 105 OFFCURVE",
"190 208 CURVE SMOOTH",
"190 315 LINE",
"193 415 OFFCURVE",
"258 502 OFFCURVE",
"349 502 CURVE SMOOTH",
"452 502 OFFCURVE",
"488 421 OFFCURVE",
"488 308 CURVE SMOOTH"
);
}
);
width = 640;
}
);
rightKerningGroup = p;
unicode = 0070;
},
{
glyphname = thorn;
lastChange = "2016-09-01 07:33:30 +0000";
layers = (
{
layerId = UUID0;
paths = (
{
closed = 1;
nodes = (
"177 800 LINE",
"7 800 LINE",
"7 780 LINE",
"77 770 LINE",
"77 -253 LINE",
"7 -263 LINE",
"7 -283 LINE",
"271 -283 LINE",
"271 -263 LINE",
"177 -253 LINE",
"177 97 LINE",
"209 33 OFFCURVE",
"265 -10 OFFCURVE",
"343 -10 CURVE SMOOTH",
"486 -10 OFFCURVE",
"582 95 OFFCURVE",
"582 258 CURVE SMOOTH",
"582 421 OFFCURVE",
"486 527 OFFCURVE",
"343 527 CURVE SMOOTH",
"265 527 OFFCURVE",
"209 483 OFFCURVE",
"177 418 CURVE"
);
},
{
closed = 1;
nodes = (
"472 208 LINE SMOOTH",
"472 95 OFFCURVE",
"436 15 OFFCURVE",
"333 15 CURVE SMOOTH",
"251 15 OFFCURVE",
"191 84 OFFCURVE",
"177 170 CURVE",
"177 346 LINE",
"191 432 OFFCURVE",
"251 502 OFFCURVE",
"333 502 CURVE SMOOTH",
"436 502 OFFCURVE",
"472 421 OFFCURVE",
"472 308 CURVE SMOOTH"
);
}
);
width = 624;
}
);
leftKerningGroup = h;
rightKerningGroup = p;
unicode = 00FE;
},
{
glyphname = q;
lastChange = "2016-09-01 07:33:30 +0000";
layers = (
{
layerId = UUID0;
paths = (
{
closed = 1;
nodes = (
"450 -253 LINE",
"331 -263 LINE",
"331 -283 LINE",
"620 -283 LINE",
"620 -263 LINE",
"550 -253 LINE",
"550 487 LINE",
"620 497 LINE",
"620 517 LINE",
"450 517 LINE",
"450 412 LINE",
"418 481 OFFCURVE",
"361 527 OFFCURVE",
"281 527 CURVE SMOOTH",
"138 527 OFFCURVE",
"42 421 OFFCURVE",
"42 258 CURVE SMOOTH",
"42 95 OFFCURVE",
"138 -10 OFFCURVE",
"281 -10 CURVE SMOOTH",
"361 -10 OFFCURVE",
"418 36 OFFCURVE",
"450 104 CURVE"
);
},
{
closed = 1;
nodes = (
"152 308 LINE SMOOTH",
"152 421 OFFCURVE",
"188 502 OFFCURVE",
"291 502 CURVE SMOOTH",
"381 502 OFFCURVE",
"447 415 OFFCURVE",
"450 315 CURVE",
"450 200 LINE",
"447 101 OFFCURVE",
"381 15 OFFCURVE",
"291 15 CURVE SMOOTH",
"188 15 OFFCURVE",
"152 95 OFFCURVE",
"152 208 CURVE SMOOTH"
);
}
);
width = 640;
}
);
unicode = 0071;
},
{
glyphname = r;
lastChange = "2016-09-01 07:33:30 +0000";
layers = (
{
layerId = UUID0;
paths = (
{
closed = 1;
nodes = (
"26 0 LINE",
"276 0 LINE",
"276 20 LINE",
"196 30 LINE",
"196 404 LINE",
"233 458 OFFCURVE",
"261 484 OFFCURVE",
"289 484 CURVE SMOOTH",
"315 484 OFFCURVE",
"331 468 OFFCURVE",
"331 446 CURVE SMOOTH",
"331 437 OFFCURVE",
"328 426 OFFCURVE",
"320 416 CURVE",
"333 400 OFFCURVE",
"352 391 OFFCURVE",
"372 391 CURVE SMOOTH",
"411 391 OFFCURVE",
"434 418 OFFCURVE",
"434 452 CURVE SMOOTH",
"434 503 OFFCURVE",
"384 527 OFFCURVE",
"338 527 CURVE SMOOTH",
"284 527 OFFCURVE",
"236 496 OFFCURVE",
"196 441 CURVE",
"196 518 LINE",
"96 518 LINE",
"26 518 LINE",
"26 498 LINE",
"96 488 LINE",
"96 30 LINE",
"26 20 LINE"
);
}
);
width = 441;
}
);
leftKerningGroup = n;
unicode = 0072;
},
{
glyphname = s;
lastChange = "2016-09-01 07:33:30 +0000";
layers = (
{
layerId = UUID0;
paths = (
{
closed = 1;
nodes = (
"377 -10 OFFCURVE",
"429 75 OFFCURVE",
"429 149 CURVE SMOOTH",
"429 226 OFFCURVE",
"398 273 OFFCURVE",
"321 297 CURVE SMOOTH",
"162 346 LINE SMOOTH",
"110 363 OFFCURVE",
"96 379 OFFCURVE",
"96 420 CURVE SMOOTH",
"96 466 OFFCURVE",
"146 508 OFFCURVE",
"237 508 CURVE SMOOTH",
"303 508 OFFCURVE",
"328 482 OFFCURVE",
"328 445 CURVE SMOOTH",
"328 428 OFFCURVE",
"323 417 OFFCURVE",
"307 406 CURVE",
"307 379 OFFCURVE",
"328 363 OFFCURVE",
"355 363 CURVE SMOOTH",
"389 363 OFFCURVE",
"412 390 OFFCURVE",
"412 424 CURVE SMOOTH",
"412 484 OFFCURVE",
"347 527 OFFCURVE",
"237 527 CURVE SMOOTH",
"122 527 OFFCURVE",
"49 460 OFFCURVE",
"49 374 CURVE SMOOTH",
"49 300 OFFCURVE",
"79 259 OFFCURVE",
"139 242 CURVE SMOOTH",
"268 201 LINE SMOOTH",
"337 179 OFFCURVE",
"386 162 OFFCURVE",
"386 103 CURVE SMOOTH",
"386 55 OFFCURVE",
"328 9 OFFCURVE",
"243 9 CURVE SMOOTH",
"180 9 OFFCURVE",
"143 36 OFFCURVE",
"143 88 CURVE SMOOTH",
"143 104 OFFCURVE",
"150 119 OFFCURVE",
"160 130 CURVE",
"152 156 OFFCURVE",
"129 172 OFFCURVE",
"105 172 CURVE SMOOTH",
"65 172 OFFCURVE",
"41 137 OFFCURVE",
"41 101 CURVE SMOOTH",
"41 29 OFFCURVE",
"107 -10 OFFCURVE",
"243 -10 CURVE SMOOTH"
);
}
);
width = 472;
}
);
unicode = 0073;
},
{
glyphname = germandbls;
lastChange = "2016-09-01 07:33:30 +0000";
layers = (
{
layerId = UUID0;
paths = (
{
closed = 1;
nodes = (
"537 760 OFFCURVE",
"468 820 OFFCURVE",
"326 820 CURVE SMOOTH",
"167 820 OFFCURVE",
"90 735 OFFCURVE",
"90 562 CURVE SMOOTH",
"90 30 LINE",
"20 20 LINE",
"20 0 LINE",
"190 0 LINE",
"190 605 LINE SMOOTH",
"190 744 OFFCURVE",
"239 802 OFFCURVE",
"326 802 CURVE SMOOTH",
"398 802 OFFCURVE",
"437 758 OFFCURVE",
"437 672 CURVE SMOOTH",
"437 590 OFFCURVE",
"423 557 OFFCURVE",
"356 525 CURVE SMOOTH",
"308 502 OFFCURVE",
"255 472 OFFCURVE",
"255 394 CURVE SMOOTH",
"255 304 OFFCURVE",
"303 260 OFFCURVE",
"387 236 CURVE SMOOTH",
"477 211 LINE SMOOTH",
"538 194 OFFCURVE",
"586 180 OFFCURVE",
"586 117 CURVE SMOOTH",
"586 57 OFFCURVE",
"522 9 OFFCURVE",
"437 9 CURVE SMOOTH",
"386 9 OFFCURVE",
"352 28 OFFCURVE",
"352 63 CURVE SMOOTH",
"352 80 OFFCURVE",
"359 94 OFFCURVE",
"369 106 CURVE",
"361 131 OFFCURVE",
"338 147 OFFCURVE",
"314 147 CURVE SMOOTH",
"274 147 OFFCURVE",
"250 120 OFFCURVE",
"250 84 CURVE SMOOTH",
"250 23 OFFCURVE",
"312 -10 OFFCURVE",
"437 -10 CURVE SMOOTH",
"575 -10 OFFCURVE",
"621 69 OFFCURVE",
"621 159 CURVE SMOOTH",
"621 241 OFFCURVE",
"583 296 OFFCURVE",
"500 317 CURVE SMOOTH",
"398 343 LINE SMOOTH",
"349 356 OFFCURVE",
"292 374 OFFCURVE",
"292 427 CURVE SMOOTH",
"292 463 OFFCURVE",
"321 485 OFFCURVE",
"366 507 CURVE SMOOTH",
"465 555 OFFCURVE",
"537 576 OFFCURVE",
"537 672 CURVE SMOOTH"
);
}
);
width = 646;
}
);
leftKerningGroup = h;
unicode = 00DF;
},
{
glyphname = t;
lastChange = "2016-09-01 07:33:30 +0000";
layers = (
{
layerId = UUID0;
paths = (
{
closed = 1;
nodes = (
"318 518 LINE",
"188 518 LINE",
"188 626 LINE",
"88 601 LINE",
"88 518 LINE",
"17 518 LINE",
"17 498 LINE",
"88 488 LINE",
"88 128 LINE SMOOTH",
"88 26 OFFCURVE",
"151 -10 OFFCURVE",
"233 -10 CURVE SMOOTH",
"279 -10 OFFCURVE",
"315 7 OFFCURVE",
"341 30 CURVE",
"328 46 LINE",
"328 46 OFFCURVE",
"301 24 OFFCURVE",
"264 24 CURVE SMOOTH",
"204 24 OFFCURVE",
"188 72 OFFCURVE",
"188 130 CURVE SMOOTH",
"188 488 LINE",
"318 498 LINE"
);
}
);
width = 346;
}
);
unicode = 0074;
},
{
glyphname = u;
lastChange = "2016-09-01 07:33:30 +0000";
layers = (
{
layerId = UUID0;
paths = (
{
closed = 1;
nodes = (
"16 518 LINE",
"16 498 LINE",
"86 488 LINE",
"86 133 LINE SMOOTH",
"86 35 OFFCURVE",
"148 -10 OFFCURVE",
"241 -10 CURVE SMOOTH",
"321 -10 OFFCURVE",
"389 32 OFFCURVE",
"436 96 CURVE",
"436 0 LINE",
"606 0 LINE",
"606 20 LINE",
"536 30 LINE",
"536 518 LINE",
"366 518 LINE",
"366 498 LINE",
"436 488 LINE",
"436 132 LINE",
"397 79 OFFCURVE",
"338 26 OFFCURVE",
"272 26 CURVE SMOOTH",
"212 26 OFFCURVE",
"186 69 OFFCURVE",
"186 135 CURVE SMOOTH",
"186 518 LINE"
);
}
);
width = 626;
}
);
leftKerningGroup = u;
rightKerningGroup = u;
unicode = 0075;
},
{
glyphname = v;
lastChange = "2016-09-01 07:33:30 +0000";
layers = (
{
layerId = UUID0;
paths = (
{
closed = 1;
nodes = (
"294 -20 LINE",
"478 473 LINE",
"541 497 LINE",
"541 517 LINE",
"362 517 LINE",
"362 497 LINE",
"450 472 LINE",
"315 109 LINE",
"164 485 LINE",
"236 498 LINE",
"236 518 LINE",
"-13 518 LINE",
"-13 498 LINE",
"52 488 LINE",
"266 -20 LINE"
);
}
);
width = 531;
}
);
unicode = 0076;
},
{
glyphname = w;
lastChange = "2016-09-01 07:33:30 +0000";
layers = (
{
layerId = UUID0;
paths = (
{
closed = 1;
nodes = (
"587 -20 LINE",
"771 473 LINE",
"833 497 LINE",
"833 517 LINE",
"659 517 LINE",
"659 497 LINE",
"743 471 LINE",
"608 109 LINE",
"457 485 LINE",
"529 498 LINE",
"529 518 LINE",
"293 518 LINE",
"293 498 LINE",
"345 488 LINE",
"404 352 LINE",
"315 109 LINE",
"164 485 LINE",
"211 498 LINE",
"211 518 LINE",
"-13 518 LINE",
"-13 498 LINE",
"52 488 LINE",
"266 -20 LINE",
"294 -20 LINE",
"418 318 LINE",
"559 -20 LINE"
);
}
);
width = 823;
}
);
unicode = 0077;
},
{
glyphname = x;
lastChange = "2016-09-01 07:33:30 +0000";
layers = (
{
layerId = UUID0;
paths = (
{
closed = 1;
nodes = (
"13 0 LINE",
"192 0 LINE",
"192 20 LINE",
"111 43 LINE",
"266 223 LINE",
"415 30 LINE",
"356 20 LINE",
"356 0 LINE",
"600 0 LINE",
"600 20 LINE",
"537 29 LINE",
"335 290 LINE",
"493 471 LINE",
"566 497 LINE",
"566 517 LINE",
"382 517 LINE",
"382 497 LINE",
"461 474 LINE",
"319 311 LINE",
"183 487 LINE",
"245 498 LINE",
"245 518 LINE",
"1 518 LINE",
"1 498 LINE",
"61 489 LINE",
"249 245 LINE",
"80 45 LINE",
"13 20 LINE"
);
}
);
width = 597;
}
);
unicode = 0078;
},
{
glyphname = y;
lastChange = "2016-09-06 18:45:06 +0000";
layers = (
{
anchors = (
{
name = top;
position = "{288, 518}";
}
);
layerId = UUID0;
paths = (
{
closed = 1;
nodes = (
"546 517 LINE",
"366 517 LINE",
"366 497 LINE",
"452 472 LINE",
"333 128 LINE",
"166 485 LINE",
"236 497 LINE",
"236 517 LINE",
"-13 517 LINE",
"-13 497 LINE",
"54 487 LINE",
"286 -7 LINE",
"226 -179 LINE SMOOTH",
"206 -236 OFFCURVE",
"182 -251 OFFCURVE",
"153 -251 CURVE SMOOTH",
"126 -251 OFFCURVE",
"107 -232 OFFCURVE",
"107 -205 CURVE SMOOTH",
"107 -189 OFFCURVE",
"112 -175 OFFCURVE",
"122 -161 CURVE",
"110 -139 OFFCURVE",
"88 -129 OFFCURVE",
"64 -129 CURVE SMOOTH",
"31 -129 OFFCURVE",
"3 -155 OFFCURVE",
"3 -196 CURVE SMOOTH",
"3 -255 OFFCURVE",
"51 -292 OFFCURVE",
"119 -292 CURVE SMOOTH",
"196 -292 OFFCURVE",
"228 -252 OFFCURVE",
"254 -179 CURVE",
"478 472 LINE",
"546 497 LINE"
);
}
);
width = 536;
}
);
leftKerningGroup = y;
rightKerningGroup = y;
unicode = 0079;
},
{
glyphname = z;
lastChange = "2016-09-01 07:33:30 +0000";
layers = (
{
layerId = UUID0;
paths = (
{
closed = 1;
nodes = (
"75 368 LINE",
"135 493 LINE",
"347 493 LINE",
"37 24 LINE",
"37 0 LINE",
"463 0 LINE",
"475 161 LINE",
"441 161 LINE",
"375 24 LINE",
"154 24 LINE",
"464 493 LINE",
"464 518 LINE",
"55 518 LINE",
"44 368 LINE"
);
}
);
width = 513;
}
);
unicode = 007A;
},
{
glyphname = ordfeminine;
lastChange = "2016-09-01 07:33:30 +0000";
layers = (
{
layerId = UUID0;
paths = (
{
closed = 1;
nodes = (
"307 624 LINE",
"307 696 LINE SMOOTH",
"307 758 OFFCURVE",
"281 777 OFFCURVE",
"229 777 CURVE SMOOTH",
"185 777 OFFCURVE",
"154 760 OFFCURVE",
"154 732 CURVE SMOOTH",
"154 714 OFFCURVE",
"162 704 OFFCURVE",
"179 698 CURVE",
"179 668 OFFCURVE",
"152 642 OFFCURVE",
"121 642 CURVE SMOOTH",
"90 642 OFFCURVE",
"67 668 OFFCURVE",
"67 698 CURVE SMOOTH",
"67 768 OFFCURVE",
"143 805 OFFCURVE",
"229 805 CURVE SMOOTH",
"323 805 OFFCURVE",
"397 773 OFFCURVE",
"397 680 CURVE SMOOTH",
"397 433 LINE SMOOTH",
"397 417 OFFCURVE",
"405 407 OFFCURVE",
"423 407 CURVE SMOOTH",
"436 407 OFFCURVE",
"447 416 OFFCURVE",
"447 432 CURVE",
"474 432 LINE",
"474 393 OFFCURVE",
"443 371 OFFCURVE",
"397 371 CURVE SMOOTH",
"360 371 OFFCURVE",
"321 390 OFFCURVE",
"310 436 CURVE",
"281 395 OFFCURVE",
"230 371 OFFCURVE",
"166 371 CURVE SMOOTH",
"96 371 OFFCURVE",
"41 404 OFFCURVE",
"41 478 CURVE SMOOTH",
"41 590 OFFCURVE",
"168 624 OFFCURVE",
"282 624 CURVE SMOOTH"
);
},
{
closed = 1;
nodes = (
"307 595 LINE",
"282 595 LINE SMOOTH",
"205 595 OFFCURVE",
"138 555 OFFCURVE",
"138 478 CURVE SMOOTH",
"138 435 OFFCURVE",
"159 409 OFFCURVE",
"200 409 CURVE SMOOTH",
"249 409 OFFCURVE",
"300 448 OFFCURVE",
"307 517 CURVE"
);
}
);
width = 499;
}
);
unicode = 00AA;
},
{
glyphname = ordmasculine;
lastChange = "2016-09-01 07:33:30 +0000";
layers = (
{
layerId = UUID0;
paths = (
{
closed = 1;
nodes = (
"366 547 LINE SMOOTH",
"366 460 OFFCURVE",
"333 398 OFFCURVE",
"250 398 CURVE SMOOTH",
"167 398 OFFCURVE",
"134 460 OFFCURVE",
"134 547 CURVE SMOOTH",
"134 628 LINE SMOOTH",
"134 715 OFFCURVE",
"167 777 OFFCURVE",
"250 777 CURVE SMOOTH",
"333 777 OFFCURVE",
"366 715 OFFCURVE",
"366 628 CURVE SMOOTH"
);
},
{
closed = 1;
nodes = (
"36 456 OFFCURVE",
"129 371 OFFCURVE",
"250 371 CURVE SMOOTH",
"370 371 OFFCURVE",
"465 456 OFFCURVE",
"465 587 CURVE SMOOTH",
"465 720 OFFCURVE",
"370 805 OFFCURVE",
"250 805 CURVE SMOOTH",
"129 805 OFFCURVE",
"36 720 OFFCURVE",
"36 587 CURVE SMOOTH"
);
}
);
width = 501;
}
);
unicode = 00BA;
},
{
color = 4;
glyphname = "Be-cy";
lastChange = "2016-09-05 16:45:59 +0000";
layers = (
{
layerId = UUID0;
paths = (
{
closed = 1;
nodes = (
"240 450 LINE",
"240 775 LINE",
"505 775 LINE",
"580 587 LINE",
"610 587 LINE",
"610 800 LINE",
"38 800 LINE",
"38 779 LINE",
"130 764 LINE",
"130 36 LINE",
"38 22 LINE",
"38 0 LINE",
"382 0 LINE SMOOTH",
"577 0 OFFCURVE",
"674 72 OFFCURVE",
"674 225 CURVE SMOOTH",
"674 378 OFFCURVE",
"577 450 OFFCURVE",
"382 450 CURVE SMOOTH"
);
},
{
closed = 1;
nodes = (
"240 25 LINE",
"240 426 LINE",
"368 426 LINE SMOOTH",
"491 426 OFFCURVE",
"553 369 OFFCURVE",
"553 245 CURVE SMOOTH",
"553 205 LINE SMOOTH",
"553 82 OFFCURVE",
"491 25 OFFCURVE",
"368 25 CURVE SMOOTH"
);
}
);
width = 719;
}
);
unicode = 0411;
},
{
color = 4;
glyphname = "Ge-cy";
lastChange = "2016-09-06 18:58:06 +0000";
layers = (
{
anchors = (
{
name = bottomright;
position = "{332, 0}";
},
{
name = top;
position = "{332, 800}";
}
);
layerId = UUID0;
paths = (
{
closed = 1;
nodes = (
"332 0 LINE",
"332 21 LINE",
"240 36 LINE",
"240 775 LINE",
"526 775 LINE",
"601 577 LINE",
"631 577 LINE",
"631 800 LINE",
"38 800 LINE",
"38 775 LINE",
"130 760 LINE",
"130 36 LINE",
"38 21 LINE",
"38 0 LINE"
);
}
);
width = 651;
}
);
unicode = 0413;
},
{
color = 6;
glyphname = "Gheupturn-cy";
lastChange = "2016-09-06 19:37:32 +0000";
layers = (
{
layerId = UUID0;
paths = (
{
closed = 1;
nodes = (
"240 775 LINE",
"240 36 LINE",
"332 21 LINE",
"332 0 LINE",
"38 0 LINE",
"38 21 LINE",
"130 36 LINE",
"130 760 LINE",
"38 775 LINE",
"38 800 LINE",
"526 800 LINE",
"601 998 LINE",
"631 998 LINE",
"631 775 LINE"
);
}
);
width = 651;
},
{
anchors = (
{
name = bottomright;
position = "{332, 0}";
},
{
name = top;
position = "{332, 800}";
}
);
associatedMasterId = UUID0;
layerId = "23AB9327-E777-4CA4-9442-46EEB50C0F50";
name = "Regular Sep 5 16, 22:32";
paths = (
{
closed = 1;
nodes = (
"38 800 LINE",
"631 800 LINE",
"631 577 LINE",
"601 577 LINE",
"526 775 LINE",
"240 775 LINE",
"240 36 LINE",
"332 21 LINE",
"332 0 LINE",
"38 0 LINE",
"38 21 LINE",
"130 36 LINE",
"130 760 LINE",
"38 775 LINE"
);
}
);
width = 651;
visible = 1;
}
);
unicode = 0490;
},
{
color = 4;
glyphname = "De-cy";
lastChange = "2016-09-06 17:18:30 +0000";
layers = (
{
layerId = UUID0;
paths = (
{
closed = 1;
nodes = (
"20 25 LINE",
"5 -220 LINE",
"35 -220 LINE",
"139 0 LINE",
"613 0 LINE",
"717 -220 LINE",
"747 -220 LINE",
"732 25 LINE",
"646 25 LINE",
"646 764 LINE",
"739 778 LINE",
"739 800 LINE",
"97 800 LINE",
"97 777 LINE",
"203 733 LINE",
"203 339 LINE SMOOTH",
"203 126 OFFCURVE",
"133 25 OFFCURVE",
"51 25 CURVE SMOOTH"
);
},
{
closed = 1;
nodes = (
"228 775 LINE",
"536 775 LINE",
"536 25 LINE",
"124 25 LINE",
"191 70 OFFCURVE",
"228 180 OFFCURVE",
"228 340 CURVE"
);
}
);
width = 785;
}
);
unicode = 0414;
},
{
color = 4;
glyphname = "Zhe-cy";
lastChange = "2016-09-06 15:49:55 +0000";
layers = (
{
anchors = (
{
name = top;
position = "{538, 800}";
}
);
layerId = UUID0;
paths = (
{
closed = 1;
nodes = (
"486 437 LINE",
"390 437 LINE",
"329 438 OFFCURVE",
"282 490 OFFCURVE",
"260 572 CURVE",
"229 698 LINE",
"209 774 OFFCURVE",
"174 810 OFFCURVE",
"118 810 CURVE SMOOTH",
"69 810 OFFCURVE",
"36 783 OFFCURVE",
"36 741 CURVE SMOOTH",
"36 703 OFFCURVE",
"59 676 OFFCURVE",
"96 676 CURVE SMOOTH",
"116 676 LINE",
"124 698 OFFCURVE",
"139 719 OFFCURVE",
"166 719 CURVE SMOOTH",
"189 719 OFFCURVE",
"202 706 OFFCURVE",
"207 685 CURVE SMOOTH",
"238 559 LINE",
"255 497 OFFCURVE",
"286 452 OFFCURVE",
"327 434 CURVE",
"213 421 OFFCURVE",
"158 368 OFFCURVE",
"145 282 CURVE SMOOTH",
"122 131 LINE SMOOTH",
"111 64 OFFCURVE",
"102 41 OFFCURVE",
"79 36 CURVE SMOOTH",
"56 32 OFFCURVE",
"32 43 OFFCURVE",
"7 69 CURVE",
"-10 51 LINE",
"26 10 OFFCURVE",
"68 -10 OFFCURVE",
"117 -10 CURVE SMOOTH",
"192 -10 OFFCURVE",
"226 22 OFFCURVE",
"239 109 CURVE SMOOTH",
"263 278 LINE SMOOTH",
"276 370 OFFCURVE",
"312 413 OFFCURVE",
"412 413 CURVE SMOOTH",
"486 413 LINE",
"486 36 LINE",
"394 21 LINE",
"394 0 LINE",
"688 0 LINE",
"688 21 LINE",
"596 36 LINE",
"596 413 LINE",
"670 413 LINE SMOOTH",
"770 413 OFFCURVE",
"806 370 OFFCURVE",
"819 278 CURVE SMOOTH",
"843 109 LINE SMOOTH",
"856 22 OFFCURVE",
"890 -10 OFFCURVE",
"965 -10 CURVE SMOOTH",
"1014 -10 OFFCURVE",
"1056 10 OFFCURVE",
"1092 51 CURVE",
"1075 69 LINE",
"1050 43 OFFCURVE",
"1026 32 OFFCURVE",
"1003 36 CURVE SMOOTH",
"980 41 OFFCURVE",
"971 64 OFFCURVE",
"960 131 CURVE SMOOTH",
"937 282 LINE SMOOTH",
"924 368 OFFCURVE",
"869 421 OFFCURVE",
"755 434 CURVE",
"795 452 OFFCURVE",
"827 497 OFFCURVE",
"844 559 CURVE",
"875 685 LINE SMOOTH",
"880 706 OFFCURVE",
"893 719 OFFCURVE",
"916 719 CURVE SMOOTH",
"943 719 OFFCURVE",
"958 698 OFFCURVE",
"966 676 CURVE",
"986 676 LINE SMOOTH",
"1023 676 OFFCURVE",
"1046 703 OFFCURVE",
"1046 741 CURVE SMOOTH",
"1046 783 OFFCURVE",
"1013 810 OFFCURVE",
"964 810 CURVE SMOOTH",
"908 810 OFFCURVE",
"873 774 OFFCURVE",
"853 698 CURVE",
"822 572 LINE",
"799 491 OFFCURVE",
"753 439 OFFCURVE",
"693 437 CURVE",
"596 437 LINE",
"596 764 LINE",
"688 778 LINE",
"688 800 LINE",
"394 800 LINE",
"394 778 LINE",
"486 764 LINE"
);
}
);
width = 1082;
}
);
unicode = 0416;
},
{
color = 4;
glyphname = "Ze-cy";
lastChange = "2016-09-06 17:39:50 +0000";
layers = (
{
anchors = (
{
name = top;
position = "{314, 800}";
}
);
layerId = UUID0;
paths = (
{
closed = 1;
nodes = (
"71 247 LINE",
"50 247 LINE",
"50 -10 LINE",
"71 -10 LINE",
"137 41 LINE",
"137 41 OFFCURVE",
"211 -20 OFFCURVE",
"323 -20 CURVE SMOOTH",
"514 -20 OFFCURVE",
"609 59 OFFCURVE",
"609 206 CURVE SMOOTH",
"609 316 OFFCURVE",
"551 398 OFFCURVE",
"388 423 CURVE",
"520 440 OFFCURVE",
"577 521 OFFCURVE",
"577 613 CURVE SMOOTH",
"577 734 OFFCURVE",
"507 820 OFFCURVE",
"314 820 CURVE SMOOTH",
"219 820 OFFCURVE",
"157 774 OFFCURVE",
"157 774 CURVE",
"90 820 LINE",
"69 820 LINE",
"69 572 LINE",
"90 572 LINE",
"152 740 LINE",
"152 740 OFFCURVE",
"203 797 OFFCURVE",
"313 797 CURVE SMOOTH",
"402 797 OFFCURVE",
"457 740 OFFCURVE",
"457 611 CURVE SMOOTH",
"457 605 LINE SMOOTH",
"457 494 OFFCURVE",
"407 431 OFFCURVE",
"298 431 CURVE SMOOTH",
"226 431 LINE",
"226 409 LINE",
"298 409 LINE SMOOTH",
"435 409 OFFCURVE",
"490 337 OFFCURVE",
"490 216 CURVE SMOOTH",
"490 205 LINE SMOOTH",
"490 82 OFFCURVE",
"440 3 OFFCURVE",
"323 3 CURVE SMOOTH",
"193 3 OFFCURVE",
"129 80 OFFCURVE",
"129 80 CURVE"
);
}
);
width = 660;
}
);
unicode = 0417;
},
{
color = 4;
glyphname = "Ii-cy";
lastChange = "2016-09-06 17:18:43 +0000";
layers = (
{
anchors = (
{
name = top;
position = "{431, 800}";
}
);
layerId = UUID0;
paths = (
{
closed = 1;
nodes = (
"828 21 LINE",
"828 0 LINE",
"532 0 LINE",
"532 21 LINE",
"625 36 LINE",
"625 689 LINE",
"235 69 LINE",
"235 36 LINE",
"327 21 LINE",
"327 0 LINE",
"33 0 LINE",
"33 21 LINE",
"125 36 LINE",
"125 764 LINE",
"33 778 LINE",
"33 800 LINE",
"327 800 LINE",
"327 778 LINE",
"235 764 LINE",
"235 116 LINE",
"625 736 LINE",
"625 764 LINE",
"532 778 LINE",
"532 800 LINE",
"828 800 LINE",
"828 778 LINE",
"735 764 LINE",
"735 36 LINE"
);
}
);
width = 861;
}
);
unicode = 0418;
},
{
color = 4;
glyphname = "Ka-cy";
lastChange = "2016-09-06 18:42:10 +0000";
layers = (
{
anchors = (
{
name = center;
position = "{338, 426}";
},
{
name = top;
position = "{356, 800}";
}
);
layerId = UUID0;
paths = (
{
closed = 1;
nodes = (
"240 437 LINE",
"240 764 LINE",
"332 778 LINE",
"332 800 LINE",
"38 800 LINE",
"38 778 LINE",
"130 764 LINE",
"130 36 LINE",
"38 21 LINE",
"38 0 LINE",
"332 0 LINE",
"332 21 LINE",
"240 36 LINE",
"240 413 LINE",
"324 413 LINE SMOOTH",
"424 413 OFFCURVE",
"460 370 OFFCURVE",
"473 278 CURVE SMOOTH",
"497 109 LINE SMOOTH",
"510 22 OFFCURVE",
"544 -10 OFFCURVE",
"619 -10 CURVE SMOOTH",
"668 -10 OFFCURVE",
"710 10 OFFCURVE",
"746 51 CURVE",
"729 69 LINE",
"704 43 OFFCURVE",
"680 32 OFFCURVE",
"657 36 CURVE SMOOTH",
"634 41 OFFCURVE",
"625 64 OFFCURVE",
"614 131 CURVE SMOOTH",
"591 282 LINE SMOOTH",
"578 367 OFFCURVE",
"523 420 OFFCURVE",
"410 433 CURVE",
"450 452 OFFCURVE",
"482 496 OFFCURVE",
"498 559 CURVE SMOOTH",
"529 685 LINE SMOOTH",
"534 706 OFFCURVE",
"547 719 OFFCURVE",
"570 719 CURVE SMOOTH",
"597 719 OFFCURVE",
"612 698 OFFCURVE",
"620 676 CURVE",
"640 676 LINE SMOOTH",
"677 676 OFFCURVE",
"700 703 OFFCURVE",
"700 741 CURVE SMOOTH",
"700 783 OFFCURVE",
"661 810 OFFCURVE",
"618 810 CURVE SMOOTH",
"566 810 OFFCURVE",
"526 774 OFFCURVE",
"507 698 CURVE SMOOTH",
"476 572 LINE SMOOTH",
"456 492 OFFCURVE",
"410 439 OFFCURVE",
"345 437 CURVE SMOOTH"
);
}
);
width = 736;
}
);
unicode = 041A;
},
{
color = 4;
glyphname = "El-cy";
lastChange = "2016-09-06 17:18:58 +0000";
layers = (
{
layerId = UUID0;
paths = (
{
closed = 1;
nodes = (
"521 775 LINE",
"521 36 LINE",
"428 21 LINE",
"428 0 LINE",
"724 0 LINE",
"724 21 LINE",
"631 36 LINE",
"631 764 LINE",
"724 778 LINE",
"724 800 LINE",
"91 800 LINE",
"91 778 LINE",
"197 732 LINE",
"197 359 LINE SMOOTH",
"197 98 OFFCURVE",
"154 48 OFFCURVE",
"115 48 CURVE SMOOTH",
"91 48 OFFCURVE",
"76 84 OFFCURVE",
"109 114 CURVE",
"109 114 OFFCURVE",
"91 151 OFFCURVE",
"45 151 CURVE SMOOTH",
"9 151 OFFCURVE",
"-25 126 OFFCURVE",
"-25 78 CURVE SMOOTH",
"-25 19 OFFCURVE",
"22 -10 OFFCURVE",
"80 -10 CURVE SMOOTH",
"159 -10 OFFCURVE",
"224 42 OFFCURVE",
"224 359 CURVE SMOOTH",
"224 775 LINE"
);
}
);
width = 762;
}
);
rightMetricsKey = H;
unicode = 041B;
},
{
color = 4;
glyphname = "Pe-cy";
lastChange = "2016-09-05 16:53:59 +0000";
layers = (
{
layerId = UUID0;
paths = (
{
closed = 1;
nodes = (
"813 21 LINE",
"813 0 LINE",
"517 0 LINE",
"517 21 LINE",
"610 36 LINE",
"610 775 LINE",
"240 775 LINE",
"240 36 LINE",
"332 21 LINE",
"332 0 LINE",
"38 0 LINE",
"38 21 LINE",
"130 36 LINE",
"130 764 LINE",
"38 778 LINE",
"38 800 LINE",
"813 800 LINE",
"813 778 LINE",
"720 764 LINE",
"720 36 LINE"
);
}
);
width = 851;
}
);
unicode = 041F;
},
{
color = 4;
glyphname = "U-cy";
lastChange = "2016-09-05 17:44:06 +0000";
layers = (
{
anchors = (
{
name = top;
position = "{398, 800}";
}
);
layerId = UUID0;
paths = (
{
closed = 1;
nodes = (
"394 141 LINE SMOOTH",
"341 23 OFFCURVE",
"299 -10 OFFCURVE",
"216 -10 CURVE SMOOTH",
"150 -10 OFFCURVE",
"115 30 OFFCURVE",
"115 82 CURVE SMOOTH",
"115 129 OFFCURVE",
"149 159 OFFCURVE",
"187 159 CURVE SMOOTH",
"217 159 OFFCURVE",
"240 146 OFFCURVE",
"252 123 CURVE",
"252 123 OFFCURVE",
"233 106 OFFCURVE",
"233 77 CURVE SMOOTH",
"233 53 OFFCURVE",
"246 35 OFFCURVE",
"271 35 CURVE SMOOTH",
"304 35 OFFCURVE",
"329 57 OFFCURVE",
"371 150 CURVE SMOOTH",
"384 180 LINE",
"59 764 LINE",
"-20 778 LINE",
"-20 800 LINE",
"281 800 LINE",
"281 778 LINE",
"188 764 LINE",
"442 308 LINE",
"631 730 LINE",
"511 778 LINE",
"511 800 LINE",
"735 800 LINE",
"735 778 LINE",
"658 729 LINE"
);
}
);
width = 727;
}
);
unicode = 0423;
},
{
color = 4;
glyphname = "Ef-cy";
lastChange = "2016-09-05 16:53:59 +0000";
layers = (
{
layerId = UUID0;
paths = (
{
closed = 1;
nodes = (
"416 140 LINE",
"155 141 OFFCURVE",
"40 235 OFFCURVE",
"40 420 CURVE SMOOTH",
"40 607 OFFCURVE",
"156 700 OFFCURVE",
"416 700 CURVE",
"416 784 LINE",
"324 798 LINE",
"324 820 LINE",
"618 820 LINE",
"618 798 LINE",
"526 784 LINE",
"526 700 LINE",
"786 700 OFFCURVE",
"902 607 OFFCURVE",
"902 420 CURVE SMOOTH",
"902 235 OFFCURVE",
"787 141 OFFCURVE",
"526 140 CURVE",
"526 36 LINE",
"618 21 LINE",
"618 0 LINE",
"324 0 LINE",
"324 21 LINE",
"416 36 LINE"
);
},
{
closed = 1;
nodes = (
"526 163 LINE",
"692 164 OFFCURVE",
"778 256 OFFCURVE",
"778 393 CURVE SMOOTH",
"778 447 LINE SMOOTH",
"778 583 OFFCURVE",
"693 677 OFFCURVE",
"526 677 CURVE"
);
},
{
closed = 1;
nodes = (
"416 677 LINE",
"249 677 OFFCURVE",
"164 583 OFFCURVE",
"164 447 CURVE SMOOTH",
"164 393 LINE SMOOTH",
"164 256 OFFCURVE",
"250 164 OFFCURVE",
"416 163 CURVE"
);
}
);
width = 942;
}
);
unicode = 0424;
},
{
color = 4;
glyphname = "Che-cy";
lastChange = "2016-09-06 18:42:37 +0000";
layers = (
{
anchors = (
{
name = center;
position = "{401, 345}";
},
{
name = top;
position = "{395, 800}";
}
);
layerId = UUID0;
paths = (
{
closed = 1;
nodes = (
"770 0 LINE",
"770 21 LINE",
"677 36 LINE",
"677 764 LINE",
"770 778 LINE",
"770 800 LINE",
"474 800 LINE",
"474 778 LINE",
"567 764 LINE",
"567 399 LINE",
"567 399 OFFCURVE",
"495 355 OFFCURVE",
"372 355 CURVE SMOOTH",
"260 355 OFFCURVE",
"217 415 OFFCURVE",
"217 534 CURVE SMOOTH",
"217 764 LINE",
"309 778 LINE",
"309 800 LINE",
"15 800 LINE",
"15 778 LINE",
"107 764 LINE",
"107 532 LINE SMOOTH",
"107 394 OFFCURVE",
"167 332 OFFCURVE",
"372 332 CURVE SMOOTH",
"489 332 OFFCURVE",
"567 373 OFFCURVE",
"567 373 CURVE",
"567 36 LINE",
"444 21 LINE",
"444 0 LINE"
);
}
);
width = 808;
}
);
rightMetricsKey = H;
unicode = 0427;
},
{
color = 4;
glyphname = "Tse-cy";
lastChange = "2016-09-06 15:31:31 +0000";
layers = (
{
layerId = UUID0;
paths = (
{
closed = 1;
nodes = (
"38 0 LINE",
"677 0 LINE",
"781 -220 LINE",
"811 -220 LINE",
"796 25 LINE",
"710 25 LINE",
"710 764 LINE",
"803 779 LINE",
"803 800 LINE",
"507 800 LINE",
"507 779 LINE",
"600 764 LINE",
"600 25 LINE",
"240 25 LINE",
"240 764 LINE",
"332 779 LINE",
"332 800 LINE",
"38 800 LINE",
"38 779 LINE",
"130 764 LINE",
"130 36 LINE",
"38 22 LINE"
);
}
);
width = 846;
}
);
unicode = 0426;
},
{
color = 4;
glyphname = "Sha-cy";
lastChange = "2016-09-05 16:53:59 +0000";
layers = (
{
layerId = UUID0;
paths = (
{
closed = 1;
nodes = (
"1093 21 LINE",
"1093 0 LINE",
"38 0 LINE",
"38 21 LINE",
"130 36 LINE",
"130 764 LINE",
"38 778 LINE",
"38 800 LINE",
"332 800 LINE",
"332 778 LINE",
"240 764 LINE",
"240 25 LINE",
"510 25 LINE",
"510 764 LINE",
"418 778 LINE",
"417 778 LINE",
"417 800 LINE",
"713 800 LINE",
"713 778 LINE",
"712 778 LINE",
"620 764 LINE",
"620 25 LINE",
"890 25 LINE",
"890 764 LINE",
"797 778 LINE",
"797 800 LINE",
"1093 800 LINE",
"1093 778 LINE",
"1000 764 LINE",
"1000 36 LINE"
);
}
);
width = 1131;
}
);
unicode = 0428;
},
{
color = 4;
glyphname = "Shcha-cy";
lastChange = "2016-09-05 16:53:59 +0000";
layers = (
{
layerId = UUID0;
paths = (
{
closed = 1;
nodes = (
"38 0 LINE",
"38 21 LINE",
"130 36 LINE",
"130 764 LINE",
"38 778 LINE",
"38 800 LINE",
"332 800 LINE",
"332 778 LINE",
"240 764 LINE",
"240 25 LINE",
"510 25 LINE",
"510 764 LINE",
"418 778 LINE",
"417 778 LINE",
"417 800 LINE",
"713 800 LINE",
"713 778 LINE",
"712 778 LINE",
"620 764 LINE",
"620 25 LINE",
"890 25 LINE",
"890 764 LINE",
"797 778 LINE",
"797 800 LINE",
"1093 800 LINE",
"1093 778 LINE",
"1000 764 LINE",
"1000 25 LINE",
"1086 25 LINE",
"1101 -220 LINE",
"1071 -220 LINE",
"967 0 LINE"
);
}
);
width = 1139;
}
);
unicode = 0429;
},
{
color = 6;
glyphname = "Dzhe-cy";
lastChange = "2016-09-06 15:25:31 +0000";
layers = (
{
layerId = UUID0;
paths = (
{
closed = 1;
nodes = (
"813 0 LINE",
"813 22 LINE",
"720 36 LINE",
"720 764 LINE",
"813 779 LINE",
"813 800 LINE",
"517 800 LINE",
"517 779 LINE",
"610 764 LINE",
"610 25 LINE",
"240 25 LINE",
"240 764 LINE",
"332 779 LINE",
"332 800 LINE",
"38 800 LINE",
"38 779 LINE",
"130 764 LINE",
"130 36 LINE",
"38 22 LINE",
"38 0 LINE"
);
},
{
closed = 1;
nodes = (
"441 -220 LINE",
"491 15 LINE",
"360 15 LINE",
"410 -220 LINE"
);
}
);
width = 851;
}
);
leftMetricsKey = H;
rightMetricsKey = H;
unicode = 040F;
},
{
color = 4;
glyphname = "Softsign-cy";
lastChange = "2016-09-05 16:53:59 +0000";
layers = (
{
layerId = UUID0;
paths = (
{
closed = 1;
nodes = (
"240 450 LINE",
"240 764 LINE",
"332 779 LINE",
"332 800 LINE",
"38 800 LINE",
"38 779 LINE",
"130 764 LINE",
"130 36 LINE",
"38 22 LINE",
"38 0 LINE",
"382 0 LINE SMOOTH",
"577 0 OFFCURVE",
"674 72 OFFCURVE",
"674 225 CURVE SMOOTH",
"674 378 OFFCURVE",
"577 450 OFFCURVE",
"382 450 CURVE SMOOTH"
);
},
{
closed = 1;
nodes = (
"240 25 LINE",
"240 426 LINE",
"368 426 LINE SMOOTH",
"491 426 OFFCURVE",
"553 369 OFFCURVE",
"553 245 CURVE SMOOTH",
"553 205 LINE SMOOTH",
"553 82 OFFCURVE",
"491 25 OFFCURVE",
"368 25 CURVE SMOOTH"
);
}
);
width = 706;
}
);
unicode = 042C;
},
{
color = 4;
glyphname = "Hardsign-cy";
lastChange = "2016-09-05 16:53:59 +0000";
layers = (
{
layerId = UUID0;
paths = (
{
closed = 1;
nodes = (
"227 775 LINE",
"276 775 LINE",
"276 36 LINE",
"184 22 LINE",
"184 0 LINE",
"528 0 LINE SMOOTH",
"723 0 OFFCURVE",
"820 72 OFFCURVE",
"820 225 CURVE SMOOTH",
"820 378 OFFCURVE",
"723 450 OFFCURVE",
"528 450 CURVE SMOOTH",
"386 450 LINE",
"386 764 LINE",
"478 779 LINE",
"478 800 LINE",
"227 800 LINE"
);
},
{
closed = 1;
nodes = (
"386 25 LINE",
"386 426 LINE",
"514 426 LINE SMOOTH",
"637 426 OFFCURVE",
"699 369 OFFCURVE",
"699 245 CURVE SMOOTH",
"699 205 LINE SMOOTH",
"699 82 OFFCURVE",
"637 25 OFFCURVE",
"514 25 CURVE SMOOTH"
);
},
{
closed = 1;
nodes = (
"227 800 LINE",
"14 800 LINE",
"14 577 LINE",
"43 577 LINE",
"119 775 LINE",
"227 775 LINE"
);
}
);
width = 849;
}
);
unicode = 042A;
},
{
color = 4;
glyphname = "Yeru-cy";
lastChange = "2016-09-06 18:03:07 +0000";
layers = (
{
anchors = (
{
name = top;
position = "{510, 800}";
}
);
layerId = UUID0;
paths = (
{
closed = 1;
nodes = (
"992 21 LINE",
"992 0 LINE",
"698 0 LINE",
"698 21 LINE",
"790 36 LINE",
"790 764 LINE",
"698 778 LINE",
"698 800 LINE",
"992 800 LINE",
"992 778 LINE",
"900 764 LINE",
"900 36 LINE"
);
},
{
closed = 1;
nodes = (
"240 450 LINE",
"240 764 LINE",
"332 779 LINE",
"332 800 LINE",
"38 800 LINE",
"38 779 LINE",
"130 764 LINE",
"130 36 LINE",
"38 22 LINE",
"38 0 LINE",
"382 0 LINE SMOOTH",
"577 0 OFFCURVE",
"674 72 OFFCURVE",
"674 225 CURVE SMOOTH",
"674 378 OFFCURVE",
"577 450 OFFCURVE",
"382 450 CURVE SMOOTH"
);
},
{
closed = 1;
nodes = (
"240 25 LINE",
"240 426 LINE",
"368 426 LINE SMOOTH",
"491 426 OFFCURVE",
"553 369 OFFCURVE",
"553 245 CURVE SMOOTH",
"553 205 LINE SMOOTH",
"553 82 OFFCURVE",
"491 25 OFFCURVE",
"368 25 CURVE SMOOTH"
);
}
);
width = 1030;
}
);
unicode = 042B;
},
{
color = 6;
glyphname = "Lje-cy";
lastChange = "2016-09-06 15:25:31 +0000";
layers = (
{
layerId = UUID0;
paths = (
{
closed = 1;
nodes = (
"630 426 LINE",
"758 426 LINE SMOOTH",
"881 426 OFFCURVE",
"943 369 OFFCURVE",
"943 245 CURVE SMOOTH",
"943 205 LINE SMOOTH",
"943 82 OFFCURVE",
"881 25 OFFCURVE",
"758 25 CURVE SMOOTH",
"630 25 LINE"
);
},
{
closed = 1;
nodes = (
"630 764 LINE",
"723 778 LINE",
"723 800 LINE",
"91 800 LINE",
"91 778 LINE",
"197 732 LINE",
"197 359 LINE SMOOTH",
"197 98 OFFCURVE",
"154 48 OFFCURVE",
"115 48 CURVE SMOOTH",
"91 48 OFFCURVE",
"76 84 OFFCURVE",
"109 114 CURVE",
"109 114 OFFCURVE",
"91 151 OFFCURVE",
"45 151 CURVE SMOOTH",
"9 151 OFFCURVE",
"-25 126 OFFCURVE",
"-25 78 CURVE SMOOTH",
"-25 19 OFFCURVE",
"22 -10 OFFCURVE",
"80 -10 CURVE SMOOTH",
"159 -10 OFFCURVE",
"224 42 OFFCURVE",
"224 359 CURVE SMOOTH",
"224 775 LINE",
"521 775 LINE",
"521 36 LINE",
"428 21 LINE",
"428 0 LINE",
"630 0 LINE",
"774 0 LINE SMOOTH",
"969 0 OFFCURVE",
"1066 72 OFFCURVE",
"1066 225 CURVE SMOOTH",
"1066 378 OFFCURVE",
"969 450 OFFCURVE",
"774 450 CURVE SMOOTH",
"630 450 LINE"
);
}
);
width = 1098;
}
);
leftMetricsKey = "El-cy";
rightMetricsKey = "Softsign-cy";
unicode = 0409;
},
{
color = 6;
glyphname = "Nje-cy";
lastChange = "2016-09-06 15:25:31 +0000";
layers = (
{
layerId = UUID0;
paths = (
{
closed = 1;
nodes = (
"332 0 LINE",
"332 21 LINE",
"240 36 LINE",
"240 411 LINE",
"620 411 LINE",
"620 36 LINE",
"528 22 LINE",
"528 0 LINE",
"872 0 LINE SMOOTH",
"1067 0 OFFCURVE",
"1164 70 OFFCURVE",
"1164 220 CURVE SMOOTH",
"1164 367 OFFCURVE",
"1067 436 OFFCURVE",
"872 436 CURVE SMOOTH",
"730 436 LINE",
"730 764 LINE",
"822 779 LINE",
"822 800 LINE",
"528 800 LINE",
"528 779 LINE",
"620 764 LINE",
"620 436 LINE",
"240 436 LINE",
"240 764 LINE",
"332 778 LINE",
"332 800 LINE",
"38 800 LINE",
"38 778 LINE",
"130 764 LINE",
"130 36 LINE",
"38 21 LINE",
"38 0 LINE"
);
},
{
closed = 1;
nodes = (
"730 411 LINE",
"858 411 LINE SMOOTH",
"981 411 OFFCURVE",
"1043 357 OFFCURVE",
"1043 240 CURVE SMOOTH",
"1043 200 LINE SMOOTH",
"1043 80 OFFCURVE",
"981 25 OFFCURVE",
"858 25 CURVE SMOOTH",
"730 25 LINE"
);
}
);
width = 1196;
}
);
leftMetricsKey = H;
rightMetricsKey = "Softsign-cy";
unicode = 040A;
},
{
color = 4;
glyphname = "Ereversed-cy";
lastChange = "2016-09-05 16:53:59 +0000";
layers = (
{
layerId = UUID0;
paths = (
{
closed = 1;
nodes = (
"188 401 LINE",
"548 401 LINE",
"548 309 LINE SMOOTH",
"548 118 OFFCURVE",
"457 3 OFFCURVE",
"316 3 CURVE SMOOTH",
"248 3 OFFCURVE",
"174 35 OFFCURVE",
"129 86 CURVE",
"71 247 LINE",
"50 247 LINE",
"50 -10 LINE",
"71 -10 LINE",
"141 41 LINE",
"194 0 OFFCURVE",
"252 -20 OFFCURVE",
"316 -20 CURVE SMOOTH",
"536 -20 OFFCURVE",
"678 150 OFFCURVE",
"678 400 CURVE SMOOTH",
"678 647 OFFCURVE",
"533 820 OFFCURVE",
"313 820 CURVE SMOOTH",
"253 820 OFFCURVE",
"195 801 OFFCURVE",
"143 763 CURVE",
"76 820 LINE",
"55 820 LINE",
"55 572 LINE",
"76 572 LINE",
"138 727 LINE",
"189 774 OFFCURVE",
"248 797 OFFCURVE",
"313 797 CURVE SMOOTH",
"454 797 OFFCURVE",
"548 681 OFFCURVE",
"548 492 CURVE SMOOTH",
"548 425 LINE",
"188 425 LINE"
);
}
);
width = 729;
}
);
unicode = 042D;
},
{
color = 6;
glyphname = "Tshe-cy";
lastChange = "2016-09-06 15:25:31 +0000";
layers = (
{
layerId = UUID0;
paths = (
{
closed = 1;
nodes = (
"844 36 LINE",
"936 22 LINE",
"936 0 LINE",
"642 0 LINE",
"642 22 LINE",
"734 36 LINE",
"734 256 LINE SMOOTH",
"734 368 OFFCURVE",
"697 425 OFFCURVE",
"599 425 CURVE SMOOTH",
"476 425 OFFCURVE",
"404 381 OFFCURVE",
"404 381 CURVE",
"404 407 LINE",
"404 407 OFFCURVE",
"482 448 OFFCURVE",
"599 448 CURVE SMOOTH",
"788 448 OFFCURVE",
"844 389 OFFCURVE",
"844 258 CURVE SMOOTH"
);
},
{
closed = 1;
nodes = (
"625 577 LINE",
"655 577 LINE",
"655 800 LINE",
"43 800 LINE",
"43 577 LINE",
"72 577 LINE",
"148 775 LINE",
"294 775 LINE",
"294 36 LINE",
"202 21 LINE",
"202 0 LINE",
"496 0 LINE",
"496 21 LINE",
"404 36 LINE",
"404 775 LINE",
"550 775 LINE"
);
}
);
width = 951;
}
);
unicode = 040B;
},
{
color = 4;
glyphname = "Iu-cy";
lastChange = "2016-09-05 16:53:59 +0000";
layers = (
{
layerId = UUID0;
paths = (
{
closed = 1;
nodes = (
"385 401 LINE",
"240 401 LINE",
"240 36 LINE",
"332 21 LINE",
"332 0 LINE",
"38 0 LINE",
"38 21 LINE",
"130 36 LINE",
"130 764 LINE",
"38 778 LINE",
"38 800 LINE",
"332 800 LINE",
"332 778 LINE",
"240 764 LINE",
"240 426 LINE",
"385 426 LINE",
"396 661 OFFCURVE",
"548 820 OFFCURVE",
"758 820 CURVE SMOOTH",
"976 820 OFFCURVE",
"1131 647 OFFCURVE",
"1131 400 CURVE SMOOTH",
"1131 155 OFFCURVE",
"978 -20 OFFCURVE",
"758 -20 CURVE SMOOTH",
"540 -20 OFFCURVE",
"385 153 OFFCURVE",
"385 400 CURVE"
);
},
{
closed = 1;
nodes = (
"1007 477 LINE SMOOTH",
"1007 673 OFFCURVE",
"903 797 OFFCURVE",
"758 797 CURVE SMOOTH",
"613 797 OFFCURVE",
"509 673 OFFCURVE",
"509 477 CURVE SMOOTH",
"509 323 LINE SMOOTH",
"509 125 OFFCURVE",
"612 3 OFFCURVE",
"758 3 CURVE SMOOTH",
"904 3 OFFCURVE",
"1007 125 OFFCURVE",
"1007 323 CURVE"
);
}
);
width = 1182;
}
);
rightMetricsKey = O;
unicode = 042E;
},
{
color = 4;
glyphname = "Ia-cy";
lastChange = "2016-09-05 16:53:59 +0000";
layers = (
{
layerId = UUID0;
paths = (
{
closed = 1;
nodes = (
"-3 69 LINE",
"22 43 OFFCURVE",
"46 32 OFFCURVE",
"69 36 CURVE SMOOTH",
"92 41 OFFCURVE",
"102 64 OFFCURVE",
"112 131 CURVE SMOOTH",
"127 227 LINE SMOOTH",
"143 327 OFFCURVE",
"199 365 OFFCURVE",
"307 380 CURVE",
"307 386 LINE",
"168 404 OFFCURVE",
"93 470 OFFCURVE",
"93 588 CURVE SMOOTH",
"93 730 OFFCURVE",
"188 800 OFFCURVE",
"408 800 CURVE SMOOTH",
"688 800 LINE",
"688 778 LINE",
"596 764 LINE",
"596 36 LINE",
"688 21 LINE",
"688 0 LINE",
"394 0 LINE",
"394 21 LINE",
"486 36 LINE",
"486 377 LINE",
"408 377 LINE SMOOTH",
"315 377 OFFCURVE",
"262 340 OFFCURVE",
"248 243 CURVE SMOOTH",
"229 109 LINE SMOOTH",
"216 22 OFFCURVE",
"182 -10 OFFCURVE",
"107 -10 CURVE SMOOTH",
"58 -10 OFFCURVE",
"16 10 OFFCURVE",
"-20 51 CURVE"
);
},
{
closed = 1;
nodes = (
"408 775 LINE SMOOTH",
"280 775 OFFCURVE",
"214 720 OFFCURVE",
"214 609 CURVE SMOOTH",
"214 577 LINE SMOOTH",
"214 461 OFFCURVE",
"277 401 OFFCURVE",
"374 401 CURVE SMOOTH",
"486 401 LINE",
"486 775 LINE"
);
}
);
width = 725;
}
);
unicode = 042F;
},
{
color = 6;
glyphname = "Dje-cy";
lastChange = "2016-09-06 15:25:31 +0000";
layers = (
{
layerId = UUID0;
paths = (
{
closed = 1;
nodes = (
"625 577 LINE",
"655 577 LINE",
"655 800 LINE",
"43 800 LINE",
"43 577 LINE",
"72 577 LINE",
"148 775 LINE",
"294 775 LINE",
"294 36 LINE",
"202 21 LINE",
"202 0 LINE",
"496 0 LINE",
"496 21 LINE",
"404 36 LINE",
"404 775 LINE",
"550 775 LINE"
);
},
{
closed = 1;
nodes = (
"712 17 OFFCURVE",
"754 94 OFFCURVE",
"754 219 CURVE SMOOTH",
"754 346 OFFCURVE",
"709 425 OFFCURVE",
"589 425 CURVE SMOOTH",
"472 425 OFFCURVE",
"404 381 OFFCURVE",
"404 381 CURVE",
"404 407 LINE",
"404 407 OFFCURVE",
"478 448 OFFCURVE",
"589 448 CURVE SMOOTH",
"801 448 OFFCURVE",
"864 365 OFFCURVE",
"864 219 CURVE SMOOTH",
"864 75 OFFCURVE",
"803 -6 OFFCURVE",
"599 -6 CURVE",
"599 17 LINE"
);
}
);
width = 899;
}
);
unicode = 0402;
},
{
color = 6;
glyphname = "Yat-cy";
lastChange = "2016-09-06 15:48:52 +0000";
layers = (
{
components = (
{
name = "Softsign-cy";
}
);
layerId = UUID0;
paths = (
{
closed = 1;
nodes = (
"376 675 LINE",
"451 517 LINE",
"481 517 LINE",
"481 700 LINE",
"-110 700 LINE",
"-110 517 LINE",
"-81 517 LINE",
"-5 675 LINE"
);
}
);
width = 706;
}
);
unicode = 0462;
},
{
color = 6;
glyphname = "Yusbig-cy";
lastChange = "2016-09-06 17:38:49 +0000";
layers = (
{
layerId = UUID0;
paths = (
{
closed = 1;
nodes = (
"172 -10 OFFCURVE",
"206 22 OFFCURVE",
"219 109 CURVE SMOOTH",
"243 278 LINE SMOOTH",
"256 370 OFFCURVE",
"292 413 OFFCURVE",
"392 413 CURVE SMOOTH",
"466 413 LINE",
"466 36 LINE",
"374 21 LINE",
"374 0 LINE",
"668 0 LINE",
"668 21 LINE",
"576 36 LINE",
"576 413 LINE",
"650 413 LINE SMOOTH",
"750 413 OFFCURVE",
"786 370 OFFCURVE",
"799 278 CURVE SMOOTH",
"823 109 LINE SMOOTH",
"836 22 OFFCURVE",
"870 -10 OFFCURVE",
"945 -10 CURVE SMOOTH",
"994 -10 OFFCURVE",
"1036 10 OFFCURVE",
"1072 51 CURVE",
"1055 69 LINE",
"1030 43 OFFCURVE",
"1006 32 OFFCURVE",
"983 36 CURVE SMOOTH",
"960 41 OFFCURVE",
"951 64 OFFCURVE",
"940 131 CURVE SMOOTH",
"917 282 LINE SMOOTH",
"901 388 OFFCURVE",
"832 437 OFFCURVE",
"705 437 CURVE SMOOTH",
"337 437 LINE SMOOTH",
"210 437 OFFCURVE",
"141 388 OFFCURVE",
"125 282 CURVE SMOOTH",
"102 131 LINE SMOOTH",
"91 64 OFFCURVE",
"82 41 OFFCURVE",
"59 36 CURVE SMOOTH",
"36 32 OFFCURVE",
"12 43 OFFCURVE",
"-13 69 CURVE",
"-30 51 LINE",
"6 10 OFFCURVE",
"48 -10 OFFCURVE",
"97 -10 CURVE SMOOTH"
);
},
{
closed = 1;
nodes = (
"586 422 LINE",
"898 800 LINE",
"867 800 LINE",
"554 422 LINE",
"445 422 LINE",
"586 422 LINE",
"579 422 LINE",
"270 800 LINE",
"137 800 LINE",
"445 422 LINE",
"554 422 LINE",
"579 422 LINE"
);
},
{
closed = 1;
nodes = (
"874 778 LINE",
"874 800 LINE",
"188 800 LINE",
"188 778 LINE"
);
}
);
width = 1042;
}
);
leftMetricsKey = "=Zhe-cy-20";
rightMetricsKey = "=Zhe-cy-20";
unicode = 046A;
},
{
color = 6;
glyphname = "Fita-cy";
lastChange = "2016-09-06 15:25:31 +0000";
layers = (
{
components = (
{
name = O;
}
);
layerId = UUID0;
paths = (
{
closed = 1;
nodes = (
"736 436 LINE",
"96 436 LINE",
"96 411 LINE",
"736 411 LINE"
);
}
);
width = 856;
}
);
leftMetricsKey = O;
rightMetricsKey = O;
unicode = 0472;
},
{
color = 6;
glyphname = "Izhitsa-cy";
lastChange = "2016-09-06 17:50:00 +0000";
layers = (
{
layerId = UUID0;
paths = (
{
closed = 1;
nodes = (
"391 167 LINE",
"171 766 LINE",
"265 778 LINE",
"265 800 LINE",
"-28 800 LINE",
"-28 778 LINE",
"52 764 LINE",
"340 -20 LINE",
"348 -20 LINE",
"624 707 LINE SMOOTH",
"637 742 OFFCURVE",
"651 751 OFFCURVE",
"672 751 CURVE SMOOTH",
"690 751 OFFCURVE",
"701 739 OFFCURVE",
"701 725 CURVE SMOOTH",
"701 710 OFFCURVE",
"695 697 OFFCURVE",
"682 685 CURVE",
"682 685 OFFCURVE",
"700 648 OFFCURVE",
"746 648 CURVE SMOOTH",
"782 648 OFFCURVE",
"816 673 OFFCURVE",
"816 721 CURVE SMOOTH",
"816 780 OFFCURVE",
"769 809 OFFCURVE",
"715 809 CURVE SMOOTH",
"666 809 OFFCURVE",
"631 794 OFFCURVE",
"600 712 CURVE SMOOTH"
);
}
);
width = 716;
}
);
unicode = 0474;
},
{
color = 6;
glyphname = "Ghemiddlehook-cy";
lastChange = "2016-09-06 19:14:19 +0000";
layers = (
{
components = (
{
name = "Ge-cy";
}
);
layerId = UUID0;
paths = (
{
closed = 1;
nodes = (
"680 370 OFFCURVE",
"610 456 OFFCURVE",
"415 456 CURVE SMOOTH",
"310 456 OFFCURVE",
"240 407 OFFCURVE",
"240 407 CURVE",
"240 377 LINE",
"240 377 OFFCURVE",
"304 430 OFFCURVE",
"415 430 CURVE SMOOTH",
"519 430 OFFCURVE",
"567 349 OFFCURVE",
"567 219 CURVE SMOOTH",
"567 62 OFFCURVE",
"525 -131 OFFCURVE",
"352 -274 CURVE",
"366 -288 LINE",
"564 -140 OFFCURVE",
"680 28 OFFCURVE",
"680 219 CURVE SMOOTH"
);
}
);
width = 725;
}
);
rightMetricsKey = "Be-cy";
unicode = 0494;
},
{
color = 6;
glyphname = "Zhedescender-cy";
lastChange = "2016-09-06 15:25:31 +0000";
layers = (
{
layerId = UUID0;
paths = (
{
closed = 1;
nodes = (
"999 25 OFFCURVE",
"978 44 OFFCURVE",
"962 121 CURVE SMOOTH",
"937 282 LINE SMOOTH",
"924 368 OFFCURVE",
"869 421 OFFCURVE",
"755 434 CURVE",
"795 452 OFFCURVE",
"827 497 OFFCURVE",
"844 559 CURVE",
"875 685 LINE SMOOTH",
"880 706 OFFCURVE",
"893 719 OFFCURVE",
"916 719 CURVE SMOOTH",
"943 719 OFFCURVE",
"958 698 OFFCURVE",
"966 676 CURVE",
"986 676 LINE SMOOTH",
"1023 676 OFFCURVE",
"1046 703 OFFCURVE",
"1046 741 CURVE SMOOTH",
"1046 783 OFFCURVE",
"1013 810 OFFCURVE",
"964 810 CURVE SMOOTH",
"908 810 OFFCURVE",
"873 774 OFFCURVE",
"853 698 CURVE",
"822 572 LINE",
"799 491 OFFCURVE",
"753 439 OFFCURVE",
"693 437 CURVE",
"596 437 LINE",
"596 764 LINE",
"688 778 LINE",
"688 800 LINE",
"394 800 LINE",
"394 778 LINE",
"486 764 LINE",
"486 437 LINE",
"390 437 LINE",
"329 438 OFFCURVE",
"282 490 OFFCURVE",
"260 572 CURVE",
"229 698 LINE",
"209 774 OFFCURVE",
"174 810 OFFCURVE",
"118 810 CURVE SMOOTH",
"69 810 OFFCURVE",
"36 783 OFFCURVE",
"36 741 CURVE SMOOTH",
"36 703 OFFCURVE",
"59 676 OFFCURVE",
"96 676 CURVE SMOOTH",
"116 676 LINE",
"124 698 OFFCURVE",
"139 719 OFFCURVE",
"166 719 CURVE SMOOTH",
"189 719 OFFCURVE",
"202 706 OFFCURVE",
"207 685 CURVE SMOOTH",
"238 559 LINE",
"255 497 OFFCURVE",
"286 452 OFFCURVE",
"327 434 CURVE",
"213 421 OFFCURVE",
"158 368 OFFCURVE",
"145 282 CURVE SMOOTH",
"122 131 LINE SMOOTH",
"111 64 OFFCURVE",
"102 41 OFFCURVE",
"79 36 CURVE SMOOTH",
"56 32 OFFCURVE",
"32 43 OFFCURVE",
"7 69 CURVE",
"-10 51 LINE",
"26 10 OFFCURVE",
"68 -10 OFFCURVE",
"117 -10 CURVE SMOOTH",
"192 -10 OFFCURVE",
"226 22 OFFCURVE",
"239 109 CURVE SMOOTH",
"263 278 LINE SMOOTH",
"276 370 OFFCURVE",
"312 413 OFFCURVE",
"412 413 CURVE SMOOTH",
"486 413 LINE",
"486 36 LINE",
"394 21 LINE",
"394 0 LINE",
"688 0 LINE",
"688 21 LINE",
"596 36 LINE",
"596 413 LINE",
"670 413 LINE SMOOTH",
"770 413 OFFCURVE",
"806 370 OFFCURVE",
"819 278 CURVE SMOOTH",
"843 109 LINE SMOOTH",
"856 29 OFFCURVE",
"890 0 OFFCURVE",
"965 0 CURVE SMOOTH",
"1001 0 LINE",
"1105 -220 LINE",
"1135 -220 LINE",
"1120 25 LINE",
"1041 25 LINE SMOOTH"
);
}
);
width = 1090;
},
{
anchors = (
{
name = _bottom;
position = "{1225.333, 0}";
}
);
associatedMasterId = UUID0;
layerId = "53D6403E-8073-488E-B50D-BDDC83B6941D";
name = "Regular Sep 6 16, 18:04";
paths = (
{
closed = 1;
nodes = (
"1082 0 LINE",
"1141 0 LINE",
"1245 -220 LINE",
"1275 -220 LINE",
"1260 25 LINE",
"1082 25 LINE"
);
},
{
closed = 1;
nodes = (
"486 437 LINE",
"390 437 LINE",
"329 438 OFFCURVE",
"282 490 OFFCURVE",
"260 572 CURVE",
"229 698 LINE",
"209 774 OFFCURVE",
"174 810 OFFCURVE",
"118 810 CURVE SMOOTH",
"69 810 OFFCURVE",
"36 783 OFFCURVE",
"36 741 CURVE SMOOTH",
"36 703 OFFCURVE",
"59 676 OFFCURVE",
"96 676 CURVE SMOOTH",
"116 676 LINE",
"124 698 OFFCURVE",
"139 719 OFFCURVE",
"166 719 CURVE SMOOTH",
"189 719 OFFCURVE",
"202 706 OFFCURVE",
"207 685 CURVE SMOOTH",
"238 559 LINE",
"255 497 OFFCURVE",
"286 452 OFFCURVE",
"327 434 CURVE",
"213 421 OFFCURVE",
"158 368 OFFCURVE",
"145 282 CURVE SMOOTH",
"122 131 LINE SMOOTH",
"111 64 OFFCURVE",
"102 41 OFFCURVE",
"79 36 CURVE SMOOTH",
"56 32 OFFCURVE",
"32 43 OFFCURVE",
"7 69 CURVE",
"-10 51 LINE",
"26 10 OFFCURVE",
"68 -10 OFFCURVE",
"117 -10 CURVE SMOOTH",
"192 -10 OFFCURVE",
"226 22 OFFCURVE",
"239 109 CURVE SMOOTH",
"263 278 LINE SMOOTH",
"276 370 OFFCURVE",
"312 413 OFFCURVE",
"412 413 CURVE SMOOTH",
"486 413 LINE",
"486 36 LINE",
"394 21 LINE",
"394 0 LINE",
"688 0 LINE",
"688 21 LINE",
"596 36 LINE",
"596 413 LINE",
"670 413 LINE SMOOTH",
"770 413 OFFCURVE",
"806 370 OFFCURVE",
"819 278 CURVE SMOOTH",
"843 109 LINE SMOOTH",
"856 22 OFFCURVE",
"890 -10 OFFCURVE",
"965 -10 CURVE SMOOTH",
"1014 -10 OFFCURVE",
"1056 10 OFFCURVE",
"1092 51 CURVE",
"1075 69 LINE",
"1050 43 OFFCURVE",
"1026 32 OFFCURVE",
"1003 36 CURVE SMOOTH",
"980 41 OFFCURVE",
"971 64 OFFCURVE",
"960 131 CURVE SMOOTH",
"937 282 LINE SMOOTH",
"924 368 OFFCURVE",
"869 421 OFFCURVE",
"755 434 CURVE",
"795 452 OFFCURVE",
"827 497 OFFCURVE",
"844 559 CURVE",
"875 685 LINE SMOOTH",
"880 706 OFFCURVE",
"893 719 OFFCURVE",
"916 719 CURVE SMOOTH",
"943 719 OFFCURVE",
"958 698 OFFCURVE",
"966 676 CURVE",
"986 676 LINE SMOOTH",
"1023 676 OFFCURVE",
"1046 703 OFFCURVE",
"1046 741 CURVE SMOOTH",
"1046 783 OFFCURVE",
"1013 810 OFFCURVE",
"964 810 CURVE SMOOTH",
"908 810 OFFCURVE",
"873 774 OFFCURVE",
"853 698 CURVE",
"822 572 LINE",
"799 491 OFFCURVE",
"753 439 OFFCURVE",
"693 437 CURVE",
"596 437 LINE",
"596 764 LINE",
"688 778 LINE",
"688 800 LINE",
"394 800 LINE",
"394 778 LINE",
"486 764 LINE"
);
}
);
width = 1425;
visible = 1;
}
);
unicode = 0496;
},
{
color = 6;
glyphname = "Zedescender-cy";
lastChange = "2016-09-06 19:32:11 +0000";
layers = (
{
components = (
{
name = "Ze-cy";
}
);
layerId = UUID0;
paths = (
{
closed = 1;
nodes = (
"260 -3 LINE",
"306 -220 LINE",
"337 -220 LINE",
"383 -3 LINE"
);
}
);
width = 660;
}
);
unicode = 0498;
},
{
color = 6;
glyphname = "Kadescender-cy";
lastChange = "2016-09-06 15:25:31 +0000";
layers = (
{
layerId = UUID0;
paths = (
{
closed = 1;
nodes = (
"591 282 LINE SMOOTH",
"578 367 OFFCURVE",
"523 420 OFFCURVE",
"410 433 CURVE",
"450 452 OFFCURVE",
"482 496 OFFCURVE",
"498 559 CURVE SMOOTH",
"529 685 LINE SMOOTH",
"534 706 OFFCURVE",
"547 719 OFFCURVE",
"570 719 CURVE SMOOTH",
"597 719 OFFCURVE",
"612 698 OFFCURVE",
"620 676 CURVE",
"640 676 LINE SMOOTH",
"677 676 OFFCURVE",
"700 703 OFFCURVE",
"700 741 CURVE SMOOTH",
"700 783 OFFCURVE",
"661 810 OFFCURVE",
"618 810 CURVE SMOOTH",
"566 810 OFFCURVE",
"526 774 OFFCURVE",
"507 698 CURVE SMOOTH",
"476 572 LINE SMOOTH",
"455 490 OFFCURVE",
"407 439 OFFCURVE",
"347 437 CURVE SMOOTH",
"345 437 LINE",
"240 437 LINE",
"240 764 LINE",
"332 778 LINE",
"332 800 LINE",
"38 800 LINE",
"38 778 LINE",
"130 764 LINE",
"130 36 LINE",
"38 21 LINE",
"38 0 LINE",
"332 0 LINE",
"332 21 LINE",
"240 36 LINE",
"240 413 LINE",
"324 413 LINE SMOOTH",
"424 413 OFFCURVE",
"460 370 OFFCURVE",
"473 278 CURVE SMOOTH",
"497 109 LINE SMOOTH",
"510 29 OFFCURVE",
"544 0 OFFCURVE",
"619 0 CURVE SMOOTH",
"655 0 LINE",
"759 -220 LINE",
"789 -220 LINE",
"774 25 LINE",
"695 25 LINE SMOOTH",
"653 25 OFFCURVE",
"632 44 OFFCURVE",
"616 121 CURVE SMOOTH"
);
}
);
width = 744;
},
{
anchors = (
{
name = top;
position = "{356, 800}";
}
);
associatedMasterId = UUID0;
layerId = "D7D95750-44F5-4DB0-BD67-EFD4A0E10F02";
name = "Regular Sep 6 16, 18:07";
paths = (
{
closed = 1;
nodes = (
"240 437 LINE",
"240 764 LINE",
"332 778 LINE",
"332 800 LINE",
"38 800 LINE",
"38 778 LINE",
"130 764 LINE",
"130 36 LINE",
"38 21 LINE",
"38 0 LINE",
"332 0 LINE",
"332 21 LINE",
"240 36 LINE",
"240 413 LINE",
"324 413 LINE SMOOTH",
"424 413 OFFCURVE",
"460 370 OFFCURVE",
"473 278 CURVE SMOOTH",
"497 109 LINE SMOOTH",
"510 22 OFFCURVE",
"544 -10 OFFCURVE",
"619 -10 CURVE SMOOTH",
"668 -10 OFFCURVE",
"710 10 OFFCURVE",
"746 51 CURVE",
"729 69 LINE",
"704 43 OFFCURVE",
"680 32 OFFCURVE",
"657 36 CURVE SMOOTH",
"634 41 OFFCURVE",
"625 64 OFFCURVE",
"614 131 CURVE SMOOTH",
"591 282 LINE SMOOTH",
"578 367 OFFCURVE",
"523 420 OFFCURVE",
"410 433 CURVE",
"450 452 OFFCURVE",
"482 496 OFFCURVE",
"498 559 CURVE SMOOTH",
"529 685 LINE SMOOTH",
"534 706 OFFCURVE",
"547 719 OFFCURVE",
"570 719 CURVE SMOOTH",
"597 719 OFFCURVE",
"612 698 OFFCURVE",
"620 676 CURVE",
"640 676 LINE SMOOTH",
"677 676 OFFCURVE",
"700 703 OFFCURVE",
"700 741 CURVE SMOOTH",
"700 783 OFFCURVE",
"661 810 OFFCURVE",
"618 810 CURVE SMOOTH",
"566 810 OFFCURVE",
"526 774 OFFCURVE",
"507 698 CURVE SMOOTH",
"476 572 LINE SMOOTH",
"455 490 OFFCURVE",
"407 439 OFFCURVE",
"347 437 CURVE SMOOTH",
"345 437 LINE"
);
}
);
width = 736;
visible = 1;
}
);
unicode = 049A;
},
{
color = 6;
glyphname = "Kabashkir-cy";
lastChange = "2016-09-06 18:34:25 +0000";
layers = (
{
anchors = (
{
name = top;
position = "{502, 800}";
}
);
layerId = UUID0;
paths = (
{
closed = 1;
nodes = (
"386 673 LINE",
"386 764 LINE",
"478 779 LINE",
"478 800 LINE",
"14 800 LINE",
"14 577 LINE",
"43 577 LINE",
"119 775 LINE",
"276 775 LINE",
"276 673 LINE"
);
},
{
closed = 1;
nodes = (
"276 673 LINE",
"276 36 LINE",
"184 21 LINE",
"184 0 LINE",
"478 0 LINE",
"478 21 LINE",
"386 36 LINE",
"386 413 LINE",
"470 413 LINE SMOOTH",
"570 413 OFFCURVE",
"606 370 OFFCURVE",
"619 278 CURVE SMOOTH",
"643 109 LINE SMOOTH",
"656 22 OFFCURVE",
"690 -10 OFFCURVE",
"765 -10 CURVE SMOOTH",
"814 -10 OFFCURVE",
"856 10 OFFCURVE",
"892 51 CURVE",
"875 69 LINE",
"850 43 OFFCURVE",
"826 32 OFFCURVE",
"803 36 CURVE SMOOTH",
"780 41 OFFCURVE",
"771 64 OFFCURVE",
"760 131 CURVE SMOOTH",
"737 282 LINE SMOOTH",
"724 367 OFFCURVE",
"669 420 OFFCURVE",
"556 433 CURVE",
"596 452 OFFCURVE",
"628 496 OFFCURVE",
"644 559 CURVE SMOOTH",
"675 685 LINE SMOOTH",
"680 706 OFFCURVE",
"693 719 OFFCURVE",
"716 719 CURVE SMOOTH",
"743 719 OFFCURVE",
"758 698 OFFCURVE",
"766 676 CURVE",
"786 676 LINE SMOOTH",
"823 676 OFFCURVE",
"846 703 OFFCURVE",
"846 741 CURVE SMOOTH",
"846 783 OFFCURVE",
"807 810 OFFCURVE",
"764 810 CURVE SMOOTH",
"712 810 OFFCURVE",
"672 774 OFFCURVE",
"653 698 CURVE SMOOTH",
"622 572 LINE SMOOTH",
"601 490 OFFCURVE",
"553 439 OFFCURVE",
"493 437 CURVE SMOOTH",
"491 437 LINE",
"386 437 LINE",
"386 673 LINE"
);
}
);
width = 882;
}
);
leftMetricsKey = "Hardsign-cy";
rightMetricsKey = "Ka-cy";
unicode = 04A0;
},
{
color = 6;
glyphname = "Endescender-cy";
lastChange = "2016-09-06 15:32:05 +0000";
layers = (
{
layerId = UUID0;
paths = (
{
closed = 1;
nodes = (
"696 0 LINE",
"800 -220 LINE",
"830 -220 LINE",
"815 25 LINE",
"729 25 LINE",
"729 764 LINE",
"822 778 LINE",
"822 800 LINE",
"527 800 LINE",
"527 778 LINE",
"620 764 LINE",
"620 436 LINE",
"240 436 LINE",
"240 764 LINE",
"332 778 LINE",
"332 800 LINE",
"38 800 LINE",
"38 778 LINE",
"130 764 LINE",
"130 36 LINE",
"38 21 LINE",
"38 0 LINE",
"332 0 LINE",
"332 21 LINE",
"240 36 LINE",
"240 411 LINE",
"620 411 LINE",
"620 0 LINE"
);
},
{
closed = 1;
nodes = (
"527 22 LINE",
"527 0 LINE",
"620 0 LINE",
"665 43 LINE"
);
}
);
width = 865;
}
);
leftMetricsKey = H;
rightMetricsKey = "Tse-cy";
unicode = 04A2;
},
{
color = 6;
glyphname = "Pedescender-cy";
lastChange = "2016-09-06 15:31:51 +0000";
layers = (
{
layerId = UUID0;
paths = (
{
closed = 1;
nodes = (
"791 -220 LINE",
"821 -220 LINE",
"806 25 LINE",
"720 25 LINE",
"720 764 LINE",
"813 778 LINE",
"813 800 LINE",
"38 800 LINE",
"38 778 LINE",
"130 764 LINE",
"130 36 LINE",
"38 21 LINE",
"38 0 LINE",
"332 0 LINE",
"332 21 LINE",
"240 36 LINE",
"240 775 LINE",
"610 775 LINE",
"610 36 LINE",
"518 21 LINE",
"518 0 LINE",
"687 0 LINE"
);
}
);
width = 856;
}
);
rightMetricsKey = "Tse-cy";
unicode = 0524;
},
{
color = 6;
glyphname = "Esdescender-cy";
lastChange = "2016-09-06 19:32:11 +0000";
layers = (
{
components = (
{
name = "Es-cy";
}
);
layerId = UUID0;
paths = (
{
closed = 1;
nodes = (
"348 -3 LINE",
"394 -220 LINE",
"425 -220 LINE",
"471 -3 LINE"
);
}
);
width = 740;
}
);
unicode = 04AA;
},
{
color = 6;
glyphname = "Chedescender-cy";
lastChange = "2016-09-06 15:25:37 +0000";
layers = (
{
layerId = UUID0;
paths = (
{
closed = 1;
nodes = (
"676 764 LINE",
"769 778 LINE",
"769 800 LINE",
"474 800 LINE",
"474 778 LINE",
"567 764 LINE",
"567 399 LINE",
"567 399 OFFCURVE",
"495 355 OFFCURVE",
"372 355 CURVE SMOOTH",
"260 355 OFFCURVE",
"217 415 OFFCURVE",
"217 534 CURVE SMOOTH",
"217 764 LINE",
"309 778 LINE",
"309 800 LINE",
"15 800 LINE",
"15 778 LINE",
"107 764 LINE",
"107 532 LINE SMOOTH",
"107 394 OFFCURVE",
"167 332 OFFCURVE",
"372 332 CURVE SMOOTH",
"489 332 OFFCURVE",
"567 373 OFFCURVE",
"567 373 CURVE",
"567 0 LINE",
"642 0 LINE",
"746 -220 LINE",
"776 -220 LINE",
"761 25 LINE",
"676 25 LINE"
);
},
{
closed = 1;
nodes = (
"444 22 LINE",
"444 0 LINE",
"567 0 LINE",
"612 43 LINE"
);
}
);
width = 807;
}
);
unicode = 04B6;
},
{
color = 6;
glyphname = "Chekhakassian-cy";
lastChange = "2016-09-06 15:25:37 +0000";
layers = (
{
layerId = UUID0;
paths = (
{
closed = 1;
nodes = (
"497 -220 LINE",
"601 0 LINE",
"676 0 LINE",
"676 764 LINE",
"769 778 LINE",
"769 800 LINE",
"474 800 LINE",
"474 778 LINE",
"567 764 LINE",
"567 399 LINE",
"567 399 OFFCURVE",
"495 355 OFFCURVE",
"372 355 CURVE SMOOTH",
"260 355 OFFCURVE",
"217 415 OFFCURVE",
"217 534 CURVE SMOOTH",
"217 764 LINE",
"309 778 LINE",
"309 800 LINE",
"15 800 LINE",
"15 778 LINE",
"107 764 LINE",
"107 532 LINE SMOOTH",
"107 394 OFFCURVE",
"167 332 OFFCURVE",
"372 332 CURVE SMOOTH",
"489 332 OFFCURVE",
"567 373 OFFCURVE",
"567 373 CURVE",
"567 25 LINE",
"482 25 LINE",
"467 -220 LINE"
);
},
{
closed = 1;
nodes = (
"769 0 LINE",
"769 22 LINE",
"631 43 LINE",
"676 0 LINE"
);
}
);
width = 807;
}
);
unicode = 04CB;
},
{
color = 6;
glyphname = "Obarred-cy";
lastChange = "2016-09-06 19:16:57 +0000";
layers = (
{
components = (
{
name = O;
}
);
layerId = UUID0;
paths = (
{
closed = 1;
nodes = (
"716 436 LINE",
"136 436 LINE",
"136 411 LINE",
"716 411 LINE"
);
}
);
width = 856;
}
);
leftMetricsKey = O;
rightMetricsKey = O;
unicode = 04E8;
},
{
color = 0;
glyphname = "Uhungarumlaut-cy";
lastChange = "2016-09-06 19:41:25 +0000";
layers = (
{
anchors = (
{
name = _top;
position = "{203.333, 800}";
}
);
components = (
{
name = "U-cy";
},
{
name = acutecomb.case;
transform = "{1, 0, 0, 1, 363, 40}";
}
);
layerId = UUID0;
paths = (
{
closed = 1;
nodes = (
"425 946 LINE SMOOTH",
"441 958 OFFCURVE",
"450 979 OFFCURVE",
"443 999 CURVE SMOOTH",
"435 1022 OFFCURVE",
"409 1038 OFFCURVE",
"384 1029 CURVE SMOOTH",
"373 1025 OFFCURVE",
"363 1018 OFFCURVE",
"357 1008 CURVE SMOOTH",
"268 858 LINE",
"282 845 LINE"
);
}
);
width = 727;
}
);
unicode = 04F2;
},
{
color = 6;
glyphname = "Gedescender-cy";
lastChange = "2016-09-06 19:37:32 +0000";
layers = (
{
layerId = UUID0;
paths = (
{
closed = 1;
nodes = (
"311 -220 LINE",
"341 -220 LINE",
"326 25 LINE",
"240 25 LINE",
"240 775 LINE",
"526 775 LINE",
"601 577 LINE",
"631 577 LINE",
"631 800 LINE",
"38 800 LINE",
"38 775 LINE",
"130 760 LINE",
"130 36 LINE",
"38 21 LINE",
"38 0 LINE",
"207 0 LINE"
);
}
);
width = 651;
}
);
leftMetricsKey = H;
rightMetricsKey = "Ge-cy";
unicode = 04F6;
},
{
color = 4;
glyphname = "be-cy";
lastChange = "2016-09-05 19:45:30 +0000";
layers = (
{
layerId = UUID0;
paths = (
{
closed = 1;
nodes = (
"516 800 LINE",
"516 754 OFFCURVE",
"486 730 OFFCURVE",
"418 730 CURVE SMOOTH",
"344 730 LINE SMOOTH",
"153 730 OFFCURVE",
"39 594 OFFCURVE",
"39 333 CURVE SMOOTH",
"39 87 OFFCURVE",
"167 -10 OFFCURVE",
"317 -10 CURVE SMOOTH",
"460 -10 OFFCURVE",
"576 93 OFFCURVE",
"576 254 CURVE SMOOTH",
"576 415 OFFCURVE",
"460 518 OFFCURVE",
"317 518 CURVE SMOOTH",
"204 518 OFFCURVE",
"106 448 OFFCURVE",
"75 333 CURVE",
"69 333 LINE",
"69 573 OFFCURVE",
"194 630 OFFCURVE",
"327 630 CURVE SMOOTH",
"403 630 LINE SMOOTH",
"504 630 OFFCURVE",
"540 675 OFFCURVE",
"540 800 CURVE"
);
},
{
closed = 1;
nodes = (
"466 204 LINE SMOOTH",
"466 91 OFFCURVE",
"420 14 OFFCURVE",
"317 14 CURVE SMOOTH",
"214 14 OFFCURVE",
"168 91 OFFCURVE",
"168 204 CURVE SMOOTH",
"168 304 LINE SMOOTH",
"168 417 OFFCURVE",
"214 494 OFFCURVE",
"317 494 CURVE SMOOTH",
"420 494 OFFCURVE",
"466 417 OFFCURVE",
"466 304 CURVE SMOOTH"
);
}
);
width = 617;
},
{
associatedMasterId = UUID0;
layerId = "4AA6CF8C-76B6-4FFC-9B1A-13153CB6B86F";
name = "1";
paths = (
{
closed = 1;
nodes = (
"516 800 LINE",
"516 754 OFFCURVE",
"486 730 OFFCURVE",
"418 730 CURVE SMOOTH",
"367 730 LINE SMOOTH",
"299 730 OFFCURVE",
"242 721 OFFCURVE",
"195 692 CURVE SMOOTH",
"95 630 OFFCURVE",
"45 499 OFFCURVE",
"45 333 CURVE SMOOTH",
"45 120 OFFCURVE",
"167 -10 OFFCURVE",
"317 -10 CURVE SMOOTH",
"460 -10 OFFCURVE",
"576 93 OFFCURVE",
"576 254 CURVE SMOOTH",
"576 415 OFFCURVE",
"460 518 OFFCURVE",
"317 518 CURVE SMOOTH",
"204 518 OFFCURVE",
"107 448 OFFCURVE",
"76 333 CURVE",
"69 333 LINE",
"69 473 OFFCURVE",
"119 580 OFFCURVE",
"234 617 CURVE SMOOTH",
"271 629 OFFCURVE",
"316 630 OFFCURVE",
"367 630 CURVE SMOOTH",
"403 630 LINE SMOOTH",
"504 630 OFFCURVE",
"540 675 OFFCURVE",
"540 800 CURVE"
);
},
{
closed = 1;
nodes = (
"466 204 LINE SMOOTH",
"466 91 OFFCURVE",
"420 14 OFFCURVE",
"317 14 CURVE SMOOTH",
"214 14 OFFCURVE",
"168 91 OFFCURVE",
"168 204 CURVE SMOOTH",
"168 304 LINE SMOOTH",
"168 417 OFFCURVE",
"214 494 OFFCURVE",
"317 494 CURVE SMOOTH",
"420 494 OFFCURVE",
"466 417 OFFCURVE",
"466 304 CURVE SMOOTH"
);
}
);
width = 617;
visible = 1;
}
);
unicode = 0431;
},
{
color = 4;
glyphname = "ve-cy";
lastChange = "2016-09-05 16:58:27 +0000";
layers = (
{
layerId = UUID0;
paths = (
{
closed = 1;
nodes = (
"96 30 LINE",
"26 20 LINE",
"26 0 LINE",
"332 0 LINE SMOOTH",
"450 0 OFFCURVE",
"525 45 OFFCURVE",
"525 140 CURVE SMOOTH",
"525 216 OFFCURVE",
"474 261 OFFCURVE",
"373 275 CURVE",
"373 278 LINE",
"451 295 OFFCURVE",
"491 335 OFFCURVE",
"491 397 CURVE SMOOTH",
"491 482 OFFCURVE",
"438 518 OFFCURVE",
"300 518 CURVE SMOOTH",
"26 518 LINE",
"26 498 LINE",
"96 488 LINE"
);
},
{
closed = 1;
nodes = (
"302 260 LINE SMOOTH",
"376 260 OFFCURVE",
"417 223 OFFCURVE",
"417 146 CURVE SMOOTH",
"417 139 LINE SMOOTH",
"417 64 OFFCURVE",
"375 25 OFFCURVE",
"302 25 CURVE SMOOTH",
"196 25 LINE",
"196 260 LINE"
);
},
{
closed = 1;
nodes = (
"270 493 LINE SMOOTH",
"346 493 OFFCURVE",
"383 462 OFFCURVE",
"383 396 CURVE SMOOTH",
"383 392 LINE SMOOTH",
"383 320 OFFCURVE",
"345 284 OFFCURVE",
"276 284 CURVE SMOOTH",
"196 284 LINE",
"196 493 LINE"
);
}
);
width = 565;
}
);
unicode = 0432;
},
{
color = 4;
glyphname = "ge-cy";
lastChange = "2016-09-05 17:28:08 +0000";
layers = (
{
anchors = (
{
name = bottomright;
position = "{236, 0}";
},
{
name = top;
position = "{246, 518}";
}
);
layerId = UUID0;
paths = (
{
closed = 1;
nodes = (
"96 30 LINE",
"26 20 LINE",
"26 0 LINE",
"286 0 LINE",
"286 20 LINE",
"196 30 LINE",
"196 493 LINE",
"362 493 LINE",
"450 328 LINE",
"478 328 LINE",
"463 518 LINE",
"26 518 LINE",
"26 498 LINE",
"96 488 LINE"
);
}
);
width = 485;
}
);
unicode = 0433;
},
{
color = 6;
glyphname = "gheupturn-cy";
lastChange = "2016-09-06 19:37:32 +0000";
layers = (
{
layerId = UUID0;
paths = (
{
closed = 1;
nodes = (
"286 0 LINE",
"286 20 LINE",
"196 30 LINE",
"196 493 LINE",
"463 493 LINE",
"478 683 LINE",
"450 683 LINE",
"362 518 LINE",
"26 518 LINE",
"26 498 LINE",
"96 488 LINE",
"96 30 LINE",
"26 20 LINE",
"26 0 LINE"
);
}
);
width = 485;
}
);
unicode = 0491;
},
{
color = 4;
glyphname = "de-cy";
lastChange = "2016-09-05 16:59:01 +0000";
layers = (
{
layerId = UUID0;
paths = (
{
closed = 1;
nodes = (
"552 518 LINE",
"56 518 LINE",
"56 498 LINE",
"138 452 LINE",
"138 259 LINE SMOOTH",
"138 96 OFFCURVE",
"85 25 OFFCURVE",
"22 25 CURVE SMOOTH",
"0 25 LINE",
"-15 -165 LINE",
"13 -165 LINE",
"100 0 LINE",
"452 0 LINE",
"540 -165 LINE",
"568 -165 LINE",
"553 25 LINE",
"482 25 LINE",
"482 488 LINE",
"552 498 LINE"
);
},
{
closed = 1;
nodes = (
"163 452 LINE",
"238 493 LINE",
"382 493 LINE",
"382 25 LINE",
"90 25 LINE",
"136 63 OFFCURVE",
"163 144 OFFCURVE",
"163 260 CURVE"
);
}
);
width = 594;
}
);
unicode = 0434;
},
{
color = 4;
glyphname = "zhe-cy";
lastChange = "2016-09-06 18:11:53 +0000";
layers = (
{
anchors = (
{
name = top;
position = "{425, 518}";
}
);
layerId = UUID0;
paths = (
{
closed = 1;
nodes = (
"547 518 LINE",
"303 518 LINE",
"303 497 LINE",
"375 487 LINE",
"375 286 LINE",
"296 286 LINE",
"292 286 LINE",
"290 286 LINE SMOOTH",
"257 288 OFFCURVE",
"238 306 OFFCURVE",
"226 357 CURVE SMOOTH",
"208 429 LINE SMOOTH",
"194 487 OFFCURVE",
"174 527 OFFCURVE",
"112 527 CURVE SMOOTH",
"61 527 OFFCURVE",
"36 495 OFFCURVE",
"36 460 CURVE SMOOTH",
"36 419 OFFCURVE",
"70 383 OFFCURVE",
"126 402 CURVE",
"116 429 OFFCURVE",
"130 450 OFFCURVE",
"151 450 CURVE SMOOTH",
"168 450 OFFCURVE",
"178 440 OFFCURVE",
"183 422 CURVE SMOOTH",
"202 350 LINE SMOOTH",
"209 322 OFFCURVE",
"219 299 OFFCURVE",
"235 284 CURVE",
"145 276 OFFCURVE",
"111 241 OFFCURVE",
"99 173 CURVE",
"82 85 LINE SMOOTH",
"74 41 OFFCURVE",
"65 30 OFFCURVE",
"45 30 CURVE SMOOTH",
"35 30 OFFCURVE",
"23 35 OFFCURVE",
"10 48 CURVE",
"-5 33 LINE",
"21 3 OFFCURVE",
"59 -12 OFFCURVE",
"91 -12 CURVE SMOOTH",
"150 -12 OFFCURVE",
"174 12 OFFCURVE",
"185 69 CURVE SMOOTH",
"205 177 LINE",
"216 243 OFFCURVE",
"246 262 OFFCURVE",
"292 263 CURVE SMOOTH",
"296 263 LINE",
"297 263 LINE",
"375 263 LINE",
"375 31 LINE",
"303 20 LINE",
"303 0 LINE",
"547 0 LINE",
"547 20 LINE",
"475 31 LINE",
"475 263 LINE",
"553 263 LINE SMOOTH",
"602 263 OFFCURVE",
"632 246 OFFCURVE",
"645 177 CURVE SMOOTH",
"665 69 LINE SMOOTH",
"676 12 OFFCURVE",
"700 -12 OFFCURVE",
"759 -12 CURVE SMOOTH",
"791 -12 OFFCURVE",
"829 3 OFFCURVE",
"855 33 CURVE",
"840 48 LINE",
"827 35 OFFCURVE",
"815 30 OFFCURVE",
"805 30 CURVE SMOOTH",
"785 30 OFFCURVE",
"776 41 OFFCURVE",
"768 85 CURVE SMOOTH",
"751 173 LINE",
"739 241 OFFCURVE",
"705 276 OFFCURVE",
"614 284 CURVE",
"630 299 OFFCURVE",
"641 322 OFFCURVE",
"648 350 CURVE SMOOTH",
"667 422 LINE SMOOTH",
"672 440 OFFCURVE",
"682 450 OFFCURVE",
"699 450 CURVE SMOOTH",
"720 450 OFFCURVE",
"734 429 OFFCURVE",
"724 402 CURVE",
"780 383 OFFCURVE",
"814 419 OFFCURVE",
"814 460 CURVE SMOOTH",
"814 495 OFFCURVE",
"789 527 OFFCURVE",
"738 527 CURVE SMOOTH",
"676 527 OFFCURVE",
"656 487 OFFCURVE",
"642 429 CURVE SMOOTH",
"624 357 LINE SMOOTH",
"611 306 OFFCURVE",
"591 287 OFFCURVE",
"558 286 CURVE",
"475 286 LINE",
"475 487 LINE",
"547 497 LINE"
);
}
);
width = 850;
}
);
unicode = 0436;
},
{
color = 4;
glyphname = "ze-cy";
lastChange = "2016-09-06 18:13:01 +0000";
layers = (
{
anchors = (
{
name = top;
position = "{250, 518}";
}
);
layerId = UUID0;
paths = (
{
closed = 1;
nodes = (
"183 260 LINE",
"239 260 LINE SMOOTH",
"313 260 OFFCURVE",
"380 223 OFFCURVE",
"380 146 CURVE SMOOTH",
"380 133 LINE SMOOTH",
"380 49 OFFCURVE",
"323 9 OFFCURVE",
"247 9 CURVE SMOOTH",
"180 9 OFFCURVE",
"137 43 OFFCURVE",
"137 88 CURVE SMOOTH",
"137 103 OFFCURVE",
"143 117 OFFCURVE",
"154 130 CURVE",
"146 155 OFFCURVE",
"123 168 OFFCURVE",
"99 168 CURVE SMOOTH",
"60 168 OFFCURVE",
"35 140 OFFCURVE",
"35 101 CURVE SMOOTH",
"35 44 OFFCURVE",
"87 -10 OFFCURVE",
"247 -10 CURVE SMOOTH",
"413 -10 OFFCURVE",
"488 48 OFFCURVE",
"488 140 CURVE SMOOTH",
"488 216 OFFCURVE",
"435 265 OFFCURVE",
"326 276 CURVE",
"326 277 LINE",
"419 292 OFFCURVE",
"464 335 OFFCURVE",
"464 397 CURVE SMOOTH",
"464 482 OFFCURVE",
"404 527 OFFCURVE",
"252 527 CURVE SMOOTH",
"201 527 OFFCURVE",
"162 512 OFFCURVE",
"135 498 CURVE",
"75 527 LINE",
"64 337 LINE",
"85 337 LINE",
"145 480 LINE",
"169 494 OFFCURVE",
"205 508 OFFCURVE",
"250 508 CURVE SMOOTH",
"330 508 OFFCURVE",
"356 461 OFFCURVE",
"356 396 CURVE SMOOTH",
"356 392 LINE SMOOTH",
"356 320 OFFCURVE",
"314 284 OFFCURVE",
"239 284 CURVE SMOOTH",
"183 284 LINE"
);
}
);
width = 528;
},
{
associatedMasterId = UUID0;
layerId = "5F5C6053-78AE-4D32-9E69-A5A36581D3CD";
name = "Regular Sep 6 16, 20:42";
paths = (
{
closed = 1;
nodes = (
"183 260 LINE",
"239 260 LINE SMOOTH",
"313 260 OFFCURVE",
"380 223 OFFCURVE",
"380 146 CURVE SMOOTH",
"380 133 LINE SMOOTH",
"380 49 OFFCURVE",
"323 9 OFFCURVE",
"247 9 CURVE SMOOTH",
"180 9 OFFCURVE",
"137 43 OFFCURVE",
"137 88 CURVE SMOOTH",
"137 103 OFFCURVE",
"143 117 OFFCURVE",
"154 130 CURVE",
"146 155 OFFCURVE",
"123 168 OFFCURVE",
"99 168 CURVE SMOOTH",
"60 168 OFFCURVE",
"35 140 OFFCURVE",
"35 101 CURVE SMOOTH",
"35 44 OFFCURVE",
"87 -10 OFFCURVE",
"247 -10 CURVE SMOOTH",
"413 -10 OFFCURVE",
"488 48 OFFCURVE",
"488 140 CURVE SMOOTH",
"488 216 OFFCURVE",
"435 265 OFFCURVE",
"326 276 CURVE",
"326 277 LINE",
"413 292 OFFCURVE",
"454 335 OFFCURVE",
"454 397 CURVE SMOOTH",
"454 482 OFFCURVE",
"397 527 OFFCURVE",
"252 527 CURVE SMOOTH",
"201 527 OFFCURVE",
"162 512 OFFCURVE",
"135 498 CURVE",
"75 527 LINE",
"64 337 LINE",
"85 337 LINE",
"145 480 LINE",
"169 494 OFFCURVE",
"205 508 OFFCURVE",
"250 508 CURVE SMOOTH",
"322 508 OFFCURVE",
"346 461 OFFCURVE",
"346 396 CURVE SMOOTH",
"346 392 LINE SMOOTH",
"346 320 OFFCURVE",
"308 284 OFFCURVE",
"239 284 CURVE SMOOTH",
"183 284 LINE"
);
}
);
width = 528;
visible = 1;
}
);
unicode = 0437;
},
{
color = 4;
glyphname = "ii-cy";
lastChange = "2016-09-05 17:18:59 +0000";
layers = (
{
anchors = (
{
name = top;
position = "{325, 518}";
}
);
layerId = UUID0;
paths = (
{
closed = 1;
nodes = (
"96 488 LINE",
"96 30 LINE",
"26 20 LINE",
"26 0 LINE",
"256 0 LINE",
"256 20 LINE",
"196 30 LINE",
"196 56 LINE",
"449 426 LINE",
"449 30 LINE",
"389 20 LINE",
"389 0 LINE",
"619 0 LINE",
"619 20 LINE",
"549 30 LINE",
"549 488 LINE",
"619 498 LINE",
"619 518 LINE",
"389 518 LINE",
"389 498 LINE",
"449 488 LINE",
"449 468 LINE",
"196 99 LINE",
"196 488 LINE",
"256 498 LINE",
"256 518 LINE",
"26 518 LINE",
"26 498 LINE"
);
}
);
width = 645;
}
);
unicode = 0438;
},
{
color = 4;
glyphname = "ka-cy";
lastChange = "2016-09-06 18:39:56 +0000";
layers = (
{
anchors = (
{
name = center;
position = "{273, 275}";
},
{
name = top;
position = "{303, 518}";
}
);
layerId = UUID0;
paths = (
{
closed = 1;
nodes = (
"287 263 LINE",
"291 263 LINE SMOOTH",
"337 262 OFFCURVE",
"365 243 OFFCURVE",
"378 177 CURVE SMOOTH",
"398 71 LINE SMOOTH",
"409 14 OFFCURVE",
"433 -10 OFFCURVE",
"492 -10 CURVE SMOOTH",
"524 -10 OFFCURVE",
"562 5 OFFCURVE",
"588 35 CURVE",
"573 50 LINE",
"560 37 OFFCURVE",
"548 32 OFFCURVE",
"538 32 CURVE SMOOTH",
"518 32 OFFCURVE",
"510 43 OFFCURVE",
"501 87 CURVE SMOOTH",
"484 173 LINE SMOOTH",
"471 241 OFFCURVE",
"437 276 OFFCURVE",
"347 284 CURVE",
"363 299 OFFCURVE",
"373 322 OFFCURVE",
"381 350 CURVE SMOOTH",
"400 422 LINE SMOOTH",
"405 440 OFFCURVE",
"415 450 OFFCURVE",
"432 450 CURVE SMOOTH",
"453 450 OFFCURVE",
"467 429 OFFCURVE",
"457 402 CURVE",
"513 383 OFFCURVE",
"547 419 OFFCURVE",
"547 460 CURVE SMOOTH",
"547 495 OFFCURVE",
"522 527 OFFCURVE",
"471 527 CURVE SMOOTH",
"409 527 OFFCURVE",
"389 487 OFFCURVE",
"375 429 CURVE SMOOTH",
"357 357 LINE SMOOTH",
"344 306 OFFCURVE",
"325 288 OFFCURVE",
"292 286 CURVE",
"198 286 LINE",
"198 487 LINE",
"270 497 LINE",
"270 518 LINE",
"26 518 LINE",
"26 497 LINE",
"98 487 LINE",
"98 31 LINE",
"26 20 LINE",
"26 0 LINE",
"270 0 LINE",
"270 20 LINE",
"198 31 LINE",
"198 263 LINE",
"286 263 LINE"
);
}
);
width = 583;
}
);
leftMetricsKey = n;
unicode = 043A;
},
{
color = 4;
glyphname = "el-cy";
lastChange = "2016-09-05 17:00:07 +0000";
layers = (
{
layerId = UUID0;
paths = (
{
closed = 1;
nodes = (
"583 518 LINE",
"87 518 LINE",
"87 497 LINE",
"182 446 LINE",
"182 228 LINE SMOOTH",
"182 79 OFFCURVE",
"155 43 OFFCURVE",
"119 43 CURVE SMOOTH",
"97 43 OFFCURVE",
"83 76 OFFCURVE",
"113 104 CURVE",
"113 104 OFFCURVE",
"97 138 OFFCURVE",
"54 138 CURVE SMOOTH",
"21 138 OFFCURVE",
"-10 115 OFFCURVE",
"-10 71 CURVE SMOOTH",
"-10 17 OFFCURVE",
"32 -11 OFFCURVE",
"87 -10 CURVE SMOOTH",
"161 -9 OFFCURVE",
"207 44 OFFCURVE",
"207 228 CURVE SMOOTH",
"207 446 LINE",
"294 493 LINE",
"413 493 LINE",
"413 31 LINE",
"351 21 LINE",
"351 0 LINE",
"585 0 LINE",
"585 21 LINE",
"513 31 LINE",
"513 488 LINE",
"583 498 LINE"
);
}
);
width = 611;
}
);
unicode = 043B;
},
{
color = 4;
glyphname = "em-cy";
lastChange = "2016-09-06 15:38:07 +0000";
layers = (
{
layerId = UUID0;
paths = (
{
closed = 1;
nodes = (
"725 518 LINE",
"541 518 LINE",
"384 144 LINE",
"226 518 LINE",
"32 518 LINE",
"32 498 LINE",
"102 489 LINE",
"102 50 LINE",
"26 20 LINE",
"26 0 LINE",
"203 0 LINE",
"203 20 LINE",
"127 50 LINE",
"127 485 LINE",
"336 0 LINE",
"348 0 LINE",
"555 485 LINE",
"555 30 LINE",
"495 20 LINE",
"495 0 LINE",
"725 0 LINE",
"725 20 LINE",
"655 30 LINE",
"655 488 LINE",
"725 498 LINE"
);
}
);
width = 751;
}
);
unicode = 043C;
},
{
color = 4;
glyphname = "en-cy";
lastChange = "2016-09-06 15:30:43 +0000";
layers = (
{
layerId = UUID0;
paths = (
{
closed = 1;
nodes = (
"443 30 LINE",
"383 20 LINE",
"383 0 LINE",
"613 0 LINE",
"613 20 LINE",
"543 30 LINE",
"543 488 LINE",
"613 498 LINE",
"613 518 LINE",
"383 518 LINE",
"383 498 LINE",
"443 488 LINE",
"443 275 LINE",
"196 275 LINE",
"196 488 LINE",
"256 498 LINE",
"256 518 LINE",
"26 518 LINE",
"26 498 LINE",
"96 488 LINE",
"96 30 LINE",
"26 20 LINE",
"26 0 LINE",
"256 0 LINE",
"256 20 LINE",
"196 30 LINE",
"196 250 LINE",
"443 250 LINE"
);
}
);
width = 639;
}
);
unicode = 043D;
},
{
color = 4;
glyphname = "pe-cy";
lastChange = "2016-09-06 15:30:00 +0000";
layers = (
{
layerId = UUID0;
paths = (
{
closed = 1;
nodes = (
"436 493 LINE",
"436 30 LINE",
"376 20 LINE",
"376 0 LINE",
"606 0 LINE",
"606 20 LINE",
"536 30 LINE",
"536 488 LINE",
"606 498 LINE",
"606 518 LINE",
"26 518 LINE",
"26 498 LINE",
"96 488 LINE",
"96 30 LINE",
"26 20 LINE",
"26 0 LINE",
"256 0 LINE",
"256 20 LINE",
"196 30 LINE",
"196 493 LINE"
);
}
);
width = 632;
}
);
unicode = 043F;
},
{
color = 4;
glyphname = "te-cy";
lastChange = "2016-09-05 17:00:46 +0000";
layers = (
{
layerId = UUID0;
paths = (
{
closed = 1;
nodes = (
"38 328 LINE",
"125 493 LINE",
"211 493 LINE",
"211 30 LINE",
"131 20 LINE",
"131 0 LINE",
"391 0 LINE",
"391 20 LINE",
"311 30 LINE",
"311 493 LINE",
"396 493 LINE",
"484 328 LINE",
"512 328 LINE",
"497 518 LINE",
"25 518 LINE",
"10 328 LINE"
);
}
);
width = 522;
}
);
unicode = 0442;
},
{
color = 4;
glyphname = "ef-cy";
lastChange = "2016-09-05 17:00:56 +0000";
layers = (
{
layerId = UUID0;
paths = (
{
closed = 1;
nodes = (
"491 -283 LINE",
"491 -263 LINE",
"421 -253 LINE",
"421 -10 LINE",
"578 -10 OFFCURVE",
"701 102 OFFCURVE",
"701 259 CURVE SMOOTH",
"701 417 OFFCURVE",
"577 527 OFFCURVE",
"421 527 CURVE",
"421 800 LINE",
"251 800 LINE",
"251 780 LINE",
"321 770 LINE",
"321 527 LINE",
"165 527 OFFCURVE",
"41 417 OFFCURVE",
"41 259 CURVE SMOOTH",
"41 102 OFFCURVE",
"164 -10 OFFCURVE",
"321 -10 CURVE",
"321 -253 LINE",
"251 -263 LINE",
"251 -283 LINE"
);
},
{
closed = 1;
nodes = (
"421 505 LINE",
"531 505 OFFCURVE",
"591 429 OFFCURVE",
"591 309 CURVE SMOOTH",
"591 209 LINE SMOOTH",
"591 90 OFFCURVE",
"530 12 OFFCURVE",
"421 12 CURVE"
);
},
{
closed = 1;
nodes = (
"321 12 LINE",
"212 12 OFFCURVE",
"151 90 OFFCURVE",
"151 209 CURVE SMOOTH",
"151 309 LINE SMOOTH",
"151 429 OFFCURVE",
"211 505 OFFCURVE",
"321 505 CURVE"
);
}
);
width = 742;
}
);
unicode = 0444;
},
{
color = 4;
glyphname = "che-cy";
lastChange = "2016-09-06 18:40:38 +0000";
layers = (
{
anchors = (
{
name = center;
position = "{305, 212}";
},
{
name = top;
position = "{295, 518}";
}
);
layerId = UUID0;
paths = (
{
closed = 1;
nodes = (
"76 488 LINE",
"76 332 LINE SMOOTH",
"76 225 OFFCURVE",
"146 188 OFFCURVE",
"249 188 CURVE SMOOTH",
"329 188 OFFCURVE",
"385 210 OFFCURVE",
"412 224 CURVE",
"412 30 LINE",
"312 20 LINE",
"312 0 LINE",
"582 0 LINE",
"582 20 LINE",
"512 30 LINE",
"512 488 LINE",
"582 498 LINE",
"582 518 LINE",
"352 518 LINE",
"352 498 LINE",
"412 488 LINE",
"412 251 LINE",
"390 238 OFFCURVE",
"344 218 OFFCURVE",
"275 218 CURVE SMOOTH",
"201 218 OFFCURVE",
"176 261 OFFCURVE",
"176 332 CURVE SMOOTH",
"176 488 LINE",
"236 498 LINE",
"236 518 LINE",
"6 518 LINE",
"6 498 LINE"
);
}
);
width = 608;
}
);
unicode = 0447;
},
{
color = 4;
glyphname = "tse-cy";
lastChange = "2016-09-06 15:31:27 +0000";
layers = (
{
layerId = UUID0;
paths = (
{
closed = 1;
nodes = (
"430 488 LINE",
"430 25 LINE",
"196 25 LINE",
"196 488 LINE",
"256 498 LINE",
"256 518 LINE",
"26 518 LINE",
"26 498 LINE",
"96 488 LINE",
"96 30 LINE",
"26 20 LINE",
"26 0 LINE",
"500 0 LINE",
"588 -165 LINE",
"616 -165 LINE",
"601 25 LINE",
"530 25 LINE",
"530 488 LINE",
"600 498 LINE",
"600 518 LINE",
"370 518 LINE",
"370 498 LINE"
);
}
);
width = 640;
}
);
unicode = 0446;
},
{
color = 4;
glyphname = "sha-cy";
lastChange = "2016-09-05 17:01:41 +0000";
layers = (
{
layerId = UUID0;
paths = (
{
closed = 1;
nodes = (
"786 488 LINE",
"856 498 LINE",
"856 518 LINE",
"616 518 LINE",
"616 498 LINE",
"686 488 LINE",
"686 25 LINE",
"491 25 LINE",
"491 488 LINE",
"561 498 LINE",
"561 518 LINE",
"321 518 LINE",
"321 498 LINE",
"391 488 LINE",
"391 25 LINE",
"196 25 LINE",
"196 488 LINE",
"266 498 LINE",
"266 518 LINE",
"26 518 LINE",
"26 498 LINE",
"96 488 LINE",
"96 30 LINE",
"26 20 LINE",
"26 0 LINE",
"856 0 LINE",
"856 20 LINE",
"786 30 LINE"
);
}
);
width = 882;
}
);
unicode = 0448;
},
{
color = 4;
glyphname = "shcha-cy";
lastChange = "2016-09-05 17:01:49 +0000";
layers = (
{
layerId = UUID0;
paths = (
{
closed = 1;
nodes = (
"786 488 LINE",
"856 498 LINE",
"856 518 LINE",
"616 518 LINE",
"616 498 LINE",
"686 488 LINE",
"686 25 LINE",
"491 25 LINE",
"491 488 LINE",
"561 498 LINE",
"561 518 LINE",
"321 518 LINE",
"321 498 LINE",
"391 488 LINE",
"391 25 LINE",
"196 25 LINE",
"196 488 LINE",
"266 498 LINE",
"266 518 LINE",
"26 518 LINE",
"26 498 LINE",
"96 488 LINE",
"96 30 LINE",
"26 20 LINE",
"26 0 LINE",
"756 0 LINE",
"844 -165 LINE",
"872 -165 LINE",
"857 25 LINE",
"786 25 LINE"
);
}
);
width = 882;
}
);
unicode = 0449;
},
{
color = 6;
glyphname = "dzhe-cy";
lastChange = "2016-09-06 15:25:46 +0000";
layers = (
{
layerId = UUID0;
paths = (
{
closed = 1;
nodes = (
"196 488 LINE",
"256 498 LINE",
"256 518 LINE",
"26 518 LINE",
"26 498 LINE",
"96 488 LINE",
"96 30 LINE",
"26 20 LINE",
"26 0 LINE",
"603 0 LINE",
"603 20 LINE",
"533 30 LINE",
"533 488 LINE",
"603 498 LINE",
"603 518 LINE",
"373 518 LINE",
"373 498 LINE",
"433 488 LINE",
"433 25 LINE",
"196 25 LINE"
);
},
{
closed = 1;
nodes = (
"327 -164 LINE",
"365 15 LINE",
"266 15 LINE",
"304 -164 LINE"
);
}
);
width = 629;
}
);
leftMetricsKey = "en-cy";
rightMetricsKey = "en-cy";
unicode = 045F;
},
{
color = 4;
glyphname = "softsign-cy";
lastChange = "2016-09-05 17:01:59 +0000";
layers = (
{
layerId = UUID0;
paths = (
{
closed = 1;
nodes = (
"96 488 LINE",
"96 30 LINE",
"26 20 LINE",
"26 0 LINE",
"332 0 LINE SMOOTH",
"450 0 OFFCURVE",
"525 50 OFFCURVE",
"525 150 CURVE SMOOTH",
"525 250 OFFCURVE",
"450 300 OFFCURVE",
"332 300 CURVE SMOOTH",
"196 300 LINE",
"196 488 LINE",
"266 498 LINE",
"266 518 LINE",
"26 518 LINE",
"26 498 LINE"
);
},
{
closed = 1;
nodes = (
"196 275 LINE",
"302 275 LINE SMOOTH",
"375 275 OFFCURVE",
"417 231 OFFCURVE",
"417 151 CURVE SMOOTH",
"417 149 LINE SMOOTH",
"417 69 OFFCURVE",
"375 25 OFFCURVE",
"302 25 CURVE SMOOTH",
"196 25 LINE"
);
}
);
width = 540;
}
);
unicode = 044C;
},
{
color = 4;
glyphname = "hardsign-cy";
lastChange = "2016-09-05 17:02:11 +0000";
layers = (
{
layerId = UUID0;
paths = (
{
closed = 1;
nodes = (
"306 300 LINE",
"306 488 LINE",
"376 498 LINE",
"376 518 LINE",
"25 518 LINE",
"10 328 LINE",
"38 328 LINE",
"125 493 LINE",
"206 493 LINE",
"206 30 LINE",
"136 20 LINE",
"136 0 LINE",
"442 0 LINE SMOOTH",
"560 0 OFFCURVE",
"635 50 OFFCURVE",
"635 150 CURVE SMOOTH",
"635 250 OFFCURVE",
"560 300 OFFCURVE",
"442 300 CURVE SMOOTH"
);
},
{
closed = 1;
nodes = (
"306 275 LINE",
"412 275 LINE SMOOTH",
"485 275 OFFCURVE",
"527 231 OFFCURVE",
"527 151 CURVE SMOOTH",
"527 149 LINE SMOOTH",
"527 69 OFFCURVE",
"485 25 OFFCURVE",
"412 25 CURVE SMOOTH",
"306 25 LINE"
);
}
);
width = 650;
}
);
unicode = 044A;
},
{
color = 4;
glyphname = "yeru-cy";
lastChange = "2016-09-06 18:13:48 +0000";
layers = (
{
anchors = (
{
name = top;
position = "{398, 518}";
}
);
layerId = UUID0;
paths = (
{
closed = 1;
nodes = (
"96 488 LINE",
"96 30 LINE",
"26 20 LINE",
"26 0 LINE",
"332 0 LINE SMOOTH",
"450 0 OFFCURVE",
"525 50 OFFCURVE",
"525 150 CURVE SMOOTH",
"525 250 OFFCURVE",
"450 300 OFFCURVE",
"332 300 CURVE SMOOTH",
"196 300 LINE",
"196 488 LINE",
"266 498 LINE",
"266 518 LINE",
"26 518 LINE",
"26 498 LINE"
);
},
{
closed = 1;
nodes = (
"196 275 LINE",
"302 275 LINE SMOOTH",
"375 275 OFFCURVE",
"417 231 OFFCURVE",
"417 151 CURVE SMOOTH",
"417 149 LINE SMOOTH",
"417 69 OFFCURVE",
"375 25 OFFCURVE",
"302 25 CURVE SMOOTH",
"196 25 LINE"
);
},
{
closed = 1;
nodes = (
"597 30 LINE",
"597 488 LINE",
"527 498 LINE",
"527 518 LINE",
"767 518 LINE",
"767 498 LINE",
"697 488 LINE",
"697 30 LINE",
"767 20 LINE",
"767 0 LINE",
"527 0 LINE",
"527 20 LINE"
);
}
);
width = 793;
}
);
unicode = 044B;
},
{
color = 6;
glyphname = "lje-cy";
lastChange = "2016-09-06 15:25:46 +0000";
layers = (
{
layerId = UUID0;
paths = (
{
closed = 1;
nodes = (
"-10 17 OFFCURVE",
"32 -11 OFFCURVE",
"87 -10 CURVE SMOOTH",
"161 -9 OFFCURVE",
"207 44 OFFCURVE",
"207 228 CURVE SMOOTH",
"207 446 LINE",
"294 493 LINE",
"413 493 LINE",
"413 30 LINE",
"343 20 LINE",
"343 0 LINE",
"649 0 LINE SMOOTH",
"767 0 OFFCURVE",
"842 50 OFFCURVE",
"842 150 CURVE SMOOTH",
"842 250 OFFCURVE",
"767 300 OFFCURVE",
"649 300 CURVE SMOOTH",
"513 300 LINE",
"513 488 LINE",
"583 498 LINE",
"583 518 LINE",
"87 518 LINE",
"87 497 LINE",
"182 446 LINE",
"182 228 LINE SMOOTH",
"182 79 OFFCURVE",
"155 43 OFFCURVE",
"119 43 CURVE SMOOTH",
"97 43 OFFCURVE",
"83 76 OFFCURVE",
"113 104 CURVE",
"113 104 OFFCURVE",
"97 138 OFFCURVE",
"54 138 CURVE SMOOTH",
"21 138 OFFCURVE",
"-10 115 OFFCURVE",
"-10 71 CURVE SMOOTH"
);
},
{
closed = 1;
nodes = (
"513 275 LINE",
"619 275 LINE SMOOTH",
"692 275 OFFCURVE",
"734 231 OFFCURVE",
"734 151 CURVE SMOOTH",
"734 149 LINE SMOOTH",
"734 69 OFFCURVE",
"692 25 OFFCURVE",
"619 25 CURVE SMOOTH",
"513 25 LINE"
);
}
);
width = 857;
}
);
leftMetricsKey = "el-cy";
rightMetricsKey = "softsign-cy";
unicode = 0459;
},
{
color = 6;
glyphname = "nje-cy";
lastChange = "2016-09-06 15:25:46 +0000";
layers = (
{
guideLines = (
{
position = "{319, 275}";
},
{
angle = 180;
position = "{319, 250}";
}
);
layerId = UUID0;
paths = (
{
closed = 1;
nodes = (
"441 275 LINE",
"196 275 LINE",
"196 488 LINE",
"256 498 LINE",
"256 518 LINE",
"26 518 LINE",
"26 498 LINE",
"96 488 LINE",
"96 30 LINE",
"26 20 LINE",
"26 0 LINE",
"256 0 LINE",
"256 20 LINE",
"196 30 LINE",
"196 250 LINE",
"441 250 LINE"
);
},
{
closed = 1;
nodes = (
"441 488 LINE",
"441 30 LINE",
"371 20 LINE",
"371 0 LINE",
"682 0 LINE SMOOTH",
"797 0 OFFCURVE",
"870 46 OFFCURVE",
"870 137 CURVE SMOOTH",
"870 229 OFFCURVE",
"797 275 OFFCURVE",
"682 275 CURVE SMOOTH",
"541 275 LINE",
"541 488 LINE",
"611 498 LINE",
"611 518 LINE",
"371 518 LINE",
"371 498 LINE"
);
},
{
closed = 1;
nodes = (
"541 250 LINE",
"652 250 LINE SMOOTH",
"722 250 OFFCURVE",
"762 210 OFFCURVE",
"762 138 CURVE SMOOTH",
"762 136 LINE SMOOTH",
"762 65 OFFCURVE",
"722 25 OFFCURVE",
"652 25 CURVE SMOOTH",
"541 25 LINE"
);
}
);
width = 885;
}
);
leftMetricsKey = "en-cy";
rightMetricsKey = "softsign-cy";
unicode = 045A;
},
{
color = 6;
glyphname = "e-cy";
lastChange = "2016-09-06 15:25:46 +0000";
layers = (
{
layerId = UUID0;
paths = (
{
closed = 1;
nodes = (
"381 279 LINE",
"151 279 LINE",
"151 309 LINE SMOOTH",
"151 428 OFFCURVE",
"201 506 OFFCURVE",
"300 506 CURVE SMOOTH",
"367 506 OFFCURVE",
"410 475 OFFCURVE",
"410 430 CURVE SMOOTH",
"410 415 OFFCURVE",
"404 401 OFFCURVE",
"393 388 CURVE",
"401 363 OFFCURVE",
"424 350 OFFCURVE",
"448 350 CURVE SMOOTH",
"487 350 OFFCURVE",
"512 378 OFFCURVE",
"512 417 CURVE SMOOTH",
"512 474 OFFCURVE",
"460 528 OFFCURVE",
"300 528 CURVE SMOOTH",
"146 528 OFFCURVE",
"41 419 OFFCURVE",
"41 259 CURVE SMOOTH",
"41 103 OFFCURVE",
"145 -9 OFFCURVE",
"300 -9 CURVE SMOOTH",
"355 -9 OFFCURVE",
"399 8 OFFCURVE",
"428 22 CURVE",
"492 -9 LINE",
"503 181 LINE",
"482 181 LINE",
"426 48 LINE",
"399 31 OFFCURVE",
"356 12 OFFCURVE",
"300 12 CURVE SMOOTH",
"204 12 OFFCURVE",
"151 85 OFFCURVE",
"151 209 CURVE SMOOTH",
"151 254 LINE",
"381 254 LINE"
);
}
);
width = 557;
},
{
associatedMasterId = UUID0;
layerId = "2E9D853F-D873-4994-97D9-3F9ADF94D209";
name = "Regular Sep 6 16, 17:07";
paths = (
{
closed = 1;
nodes = (
"166 255 LINE",
"396 255 LINE",
"396 209 LINE SMOOTH",
"396 90 OFFCURVE",
"346 12 OFFCURVE",
"247 12 CURVE SMOOTH",
"180 12 OFFCURVE",
"137 43 OFFCURVE",
"137 88 CURVE SMOOTH",
"137 103 OFFCURVE",
"143 117 OFFCURVE",
"154 130 CURVE",
"146 155 OFFCURVE",
"123 168 OFFCURVE",
"99 168 CURVE SMOOTH",
"60 168 OFFCURVE",
"35 140 OFFCURVE",
"35 101 CURVE SMOOTH",
"35 44 OFFCURVE",
"87 -10 OFFCURVE",
"247 -10 CURVE SMOOTH",
"320 -10 OFFCURVE",
"382 15 OFFCURVE",
"432 64 CURVE",
"481 114 OFFCURVE",
"506 179 OFFCURVE",
"506 259 CURVE SMOOTH",
"506 342 OFFCURVE",
"480 407 OFFCURVE",
"429 455 CURVE SMOOTH",
"378 503 OFFCURVE",
"317 527 OFFCURVE",
"247 527 CURVE SMOOTH",
"192 527 OFFCURVE",
"148 510 OFFCURVE",
"119 496 CURVE",
"55 527 LINE",
"44 337 LINE",
"65 337 LINE",
"121 470 LINE",
"148 487 OFFCURVE",
"191 506 OFFCURVE",
"247 506 CURVE SMOOTH",
"343 506 OFFCURVE",
"396 433 OFFCURVE",
"396 309 CURVE SMOOTH",
"396 280 LINE",
"166 280 LINE"
);
}
);
width = 600;
},
{
associatedMasterId = UUID0;
layerId = "8C068B16-EF42-49A5-AFB5-544A24A14F1C";
name = "Regular Sep 6 16, 17:08";
paths = (
{
closed = 1;
nodes = (
"381 279 LINE",
"151 279 LINE",
"151 308 LINE SMOOTH",
"151 427 OFFCURVE",
"201 505 OFFCURVE",
"300 505 CURVE SMOOTH",
"367 505 OFFCURVE",
"410 474 OFFCURVE",
"410 429 CURVE SMOOTH",
"410 414 OFFCURVE",
"404 400 OFFCURVE",
"393 387 CURVE",
"401 362 OFFCURVE",
"424 349 OFFCURVE",
"448 349 CURVE SMOOTH",
"487 349 OFFCURVE",
"512 377 OFFCURVE",
"512 416 CURVE SMOOTH",
"512 473 OFFCURVE",
"460 527 OFFCURVE",
"300 527 CURVE SMOOTH",
"227 527 OFFCURVE",
"165 502 OFFCURVE",
"115 453 CURVE",
"66 403 OFFCURVE",
"41 338 OFFCURVE",
"41 258 CURVE SMOOTH",
"41 175 OFFCURVE",
"67 110 OFFCURVE",
"118 62 CURVE SMOOTH",
"169 14 OFFCURVE",
"230 -10 OFFCURVE",
"300 -10 CURVE SMOOTH",
"355 -10 OFFCURVE",
"399 7 OFFCURVE",
"428 21 CURVE",
"492 -10 LINE",
"503 180 LINE",
"482 180 LINE",
"426 47 LINE",
"399 30 OFFCURVE",
"356 11 OFFCURVE",
"300 11 CURVE SMOOTH",
"204 11 OFFCURVE",
"151 84 OFFCURVE",
"151 208 CURVE SMOOTH",
"151 254 LINE",
"381 254 LINE"
);
}
);
width = 549;
},
{
associatedMasterId = UUID0;
layerId = "5F1878FA-302D-437C-A654-765AFF9008E2";
name = "1";
paths = (
{
closed = 1;
nodes = (
"87 254 LINE",
"381 254 LINE",
"381 279 LINE",
"87 279 LINE"
);
},
{
closed = 1;
nodes = (
"377 505 OFFCURVE",
"410 462 OFFCURVE",
"410 415 CURVE SMOOTH",
"410 400 OFFCURVE",
"404 386 OFFCURVE",
"393 373 CURVE",
"401 348 OFFCURVE",
"424 335 OFFCURVE",
"448 335 CURVE SMOOTH",
"487 335 OFFCURVE",
"512 363 OFFCURVE",
"512 402 CURVE SMOOTH",
"512 461 OFFCURVE",
"464 527 OFFCURVE",
"310 527 CURVE SMOOTH",
"168 527 OFFCURVE",
"41 432 OFFCURVE",
"41 259 CURVE SMOOTH",
"41 96 OFFCURVE",
"157 -10 OFFCURVE",
"300 -10 CURVE SMOOTH",
"405 -10 OFFCURVE",
"485 53 OFFCURVE",
"504 152 CURVE",
"481 152 LINE",
"465 68 OFFCURVE",
"390 12 OFFCURVE",
"300 12 CURVE SMOOTH",
"197 12 OFFCURVE",
"151 96 OFFCURVE",
"151 209 CURVE SMOOTH",
"151 309 LINE SMOOTH",
"151 432 OFFCURVE",
"204 505 OFFCURVE",
"310 505 CURVE SMOOTH"
);
}
);
width = 549;
visible = 1;
}
);
leftMetricsKey = c;
unicode = 0454;
},
{
color = 4;
glyphname = "ereversed-cy";
lastChange = "2016-09-06 14:53:06 +0000";
layers = (
{
layerId = UUID0;
paths = (
{
closed = 1;
nodes = (
"176 255 LINE",
"406 255 LINE",
"406 209 LINE SMOOTH",
"406 90 OFFCURVE",
"356 12 OFFCURVE",
"257 12 CURVE SMOOTH",
"190 12 OFFCURVE",
"147 43 OFFCURVE",
"147 88 CURVE SMOOTH",
"147 103 OFFCURVE",
"153 117 OFFCURVE",
"164 130 CURVE",
"156 155 OFFCURVE",
"133 168 OFFCURVE",
"109 168 CURVE SMOOTH",
"70 168 OFFCURVE",
"45 140 OFFCURVE",
"45 101 CURVE SMOOTH",
"45 44 OFFCURVE",
"97 -10 OFFCURVE",
"257 -10 CURVE SMOOTH",
"411 -10 OFFCURVE",
"516 99 OFFCURVE",
"516 259 CURVE SMOOTH",
"516 415 OFFCURVE",
"412 527 OFFCURVE",
"257 527 CURVE SMOOTH",
"202 527 OFFCURVE",
"158 510 OFFCURVE",
"129 496 CURVE",
"65 527 LINE",
"54 337 LINE",
"75 337 LINE",
"131 470 LINE",
"158 487 OFFCURVE",
"201 506 OFFCURVE",
"257 506 CURVE SMOOTH",
"353 506 OFFCURVE",
"406 433 OFFCURVE",
"406 309 CURVE SMOOTH",
"406 280 LINE",
"176 280 LINE"
);
}
);
width = 557;
},
{
associatedMasterId = UUID0;
layerId = "9CB14A94-80B6-4217-B487-1D3291C35293";
name = "Regular Sep 6 16, 17:52";
paths = (
{
closed = 1;
nodes = (
"176 255 LINE",
"406 255 LINE",
"406 209 LINE SMOOTH",
"406 90 OFFCURVE",
"356 12 OFFCURVE",
"257 12 CURVE SMOOTH",
"190 12 OFFCURVE",
"147 43 OFFCURVE",
"147 88 CURVE SMOOTH",
"147 103 OFFCURVE",
"153 117 OFFCURVE",
"164 130 CURVE",
"156 155 OFFCURVE",
"133 168 OFFCURVE",
"109 168 CURVE SMOOTH",
"70 168 OFFCURVE",
"45 140 OFFCURVE",
"45 101 CURVE SMOOTH",
"45 44 OFFCURVE",
"97 -10 OFFCURVE",
"257 -10 CURVE SMOOTH",
"330 -10 OFFCURVE",
"392 15 OFFCURVE",
"442 64 CURVE",
"491 114 OFFCURVE",
"516 179 OFFCURVE",
"516 259 CURVE SMOOTH",
"516 342 OFFCURVE",
"490 407 OFFCURVE",
"439 455 CURVE SMOOTH",
"388 503 OFFCURVE",
"327 527 OFFCURVE",
"257 527 CURVE SMOOTH",
"202 527 OFFCURVE",
"158 510 OFFCURVE",
"129 496 CURVE",
"65 527 LINE",
"54 337 LINE",
"75 337 LINE",
"131 470 LINE",
"158 487 OFFCURVE",
"201 506 OFFCURVE",
"257 506 CURVE SMOOTH",
"353 506 OFFCURVE",
"406 433 OFFCURVE",
"406 309 CURVE SMOOTH",
"406 280 LINE",
"176 280 LINE"
);
}
);
width = 557;
visible = 1;
}
);
rightMetricsKey = o;
unicode = 044D;
},
{
color = 6;
glyphname = "tshe-cy";
lastChange = "2016-09-06 15:25:46 +0000";
layers = (
{
layerId = UUID0;
paths = (
{
closed = 1;
nodes = (
"20 780 LINE",
"90 770 LINE",
"90 30 LINE",
"20 20 LINE",
"20 0 LINE",
"250 0 LINE",
"250 20 LINE",
"190 30 LINE",
"190 355 LINE",
"228 412 OFFCURVE",
"288 471 OFFCURVE",
"354 471 CURVE SMOOTH",
"414 471 OFFCURVE",
"440 429 OFFCURVE",
"440 362 CURVE SMOOTH",
"440 30 LINE",
"380 20 LINE",
"380 0 LINE",
"610 0 LINE",
"610 20 LINE",
"540 30 LINE",
"540 364 LINE SMOOTH",
"540 462 OFFCURVE",
"478 507 OFFCURVE",
"385 507 CURVE SMOOTH",
"305 507 OFFCURVE",
"237 458 OFFCURVE",
"190 390 CURVE",
"190 800 LINE",
"20 800 LINE"
);
},
{
closed = 1;
nodes = (
"0 636 LINE",
"375 636 LINE",
"375 661 LINE",
"0 661 LINE"
);
}
);
width = 627;
}
);
unicode = 045B;
},
{
color = 4;
glyphname = "iu-cy";
lastChange = "2016-09-05 17:02:38 +0000";
layers = (
{
layerId = UUID0;
paths = (
{
closed = 1;
nodes = (
"196 30 LINE",
"196 250 LINE",
"291 250 LINE",
"293 175 OFFCURVE",
"318 113 OFFCURVE",
"365 64 CURVE",
"416 15 OFFCURVE",
"477 -10 OFFCURVE",
"550 -10 CURVE SMOOTH",
"697 -10 OFFCURVE",
"809 102 OFFCURVE",
"809 259 CURVE SMOOTH",
"809 417 OFFCURVE",
"696 527 OFFCURVE",
"550 527 CURVE SMOOTH",
"410 527 OFFCURVE",
"299 427 OFFCURVE",
"291 275 CURVE",
"196 275 LINE",
"196 488 LINE",
"256 498 LINE",
"256 518 LINE",
"26 518 LINE",
"26 498 LINE",
"96 488 LINE",
"96 30 LINE",
"26 20 LINE",
"26 0 LINE",
"256 0 LINE",
"256 20 LINE"
);
},
{
closed = 1;
nodes = (
"699 209 LINE SMOOTH",
"699 90 OFFCURVE",
"649 12 OFFCURVE",
"550 12 CURVE SMOOTH",
"451 12 OFFCURVE",
"401 90 OFFCURVE",
"401 209 CURVE SMOOTH",
"401 309 LINE SMOOTH",
"401 429 OFFCURVE",
"450 505 OFFCURVE",
"550 505 CURVE SMOOTH",
"650 505 OFFCURVE",
"699 429 OFFCURVE",
"699 309 CURVE SMOOTH"
);
}
);
width = 850;
}
);
rightMetricsKey = o;
unicode = 044E;
},
{
color = 4;
glyphname = "ia-cy";
lastChange = "2016-09-06 17:22:14 +0000";
layers = (
{
layerId = UUID0;
paths = (
{
closed = 1;
nodes = (
"317 20 LINE",
"317 0 LINE",
"561 0 LINE",
"561 20 LINE",
"489 31 LINE",
"489 487 LINE",
"561 497 LINE",
"561 518 LINE",
"270 518 LINE SMOOTH",
"132 518 OFFCURVE",
"79 470 OFFCURVE",
"79 384 CURVE SMOOTH",
"79 291 OFFCURVE",
"178 264 OFFCURVE",
"204 259 CURVE",
"204 254 LINE",
"127 240 OFFCURVE",
"105 207 OFFCURVE",
"95 153 CURVE SMOOTH",
"82 87 LINE SMOOTH",
"73 43 OFFCURVE",
"65 32 OFFCURVE",
"45 32 CURVE SMOOTH",
"35 32 OFFCURVE",
"23 37 OFFCURVE",
"10 50 CURVE",
"-5 35 LINE",
"21 5 OFFCURVE",
"59 -10 OFFCURVE",
"91 -10 CURVE SMOOTH",
"150 -10 OFFCURVE",
"174 14 OFFCURVE",
"185 71 CURVE SMOOTH",
"201 157 LINE SMOOTH",
"214 226 OFFCURVE",
"248 242 OFFCURVE",
"297 242 CURVE SMOOTH",
"389 242 LINE",
"389 31 LINE"
);
},
{
closed = 1;
nodes = (
"294 267 LINE SMOOTH",
"231 267 OFFCURVE",
"187 296 OFFCURVE",
"187 373 CURVE SMOOTH",
"187 386 LINE SMOOTH",
"187 462 OFFCURVE",
"224 493 OFFCURVE",
"300 493 CURVE SMOOTH",
"389 493 LINE",
"389 267 LINE"
);
}
);
width = 587;
}
);
unicode = 044F;
},
{
color = 6;
glyphname = "dje-cy";
lastChange = "2016-09-06 15:25:46 +0000";
layers = (
{
layerId = UUID0;
paths = (
{
closed = 1;
nodes = (
"457 -89 OFFCURVE",
"540 15 OFFCURVE",
"540 219 CURVE SMOOTH",
"540 364 LINE SMOOTH",
"540 462 OFFCURVE",
"478 507 OFFCURVE",
"385 507 CURVE SMOOTH",
"305 507 OFFCURVE",
"237 458 OFFCURVE",
"190 390 CURVE",
"190 800 LINE",
"20 800 LINE",
"20 780 LINE",
"90 770 LINE",
"90 30 LINE",
"20 20 LINE",
"20 0 LINE",
"250 0 LINE",
"250 20 LINE",
"190 30 LINE",
"190 355 LINE",
"228 412 OFFCURVE",
"288 471 OFFCURVE",
"354 471 CURVE SMOOTH",
"414 471 OFFCURVE",
"440 429 OFFCURVE",
"440 362 CURVE SMOOTH",
"440 219 LINE SMOOTH",
"440 44 OFFCURVE",
"411 -77 OFFCURVE",
"297 -177 CURVE",
"313 -193 LINE"
);
},
{
closed = 1;
nodes = (
"375 636 LINE",
"375 661 LINE",
"0 661 LINE",
"0 636 LINE"
);
}
);
width = 615;
}
);
unicode = 0452;
},
{
color = 6;
glyphname = "yat-cy";
lastChange = "2016-09-06 15:48:52 +0000";
layers = (
{
layerId = UUID0;
paths = (
{
closed = 1;
nodes = (
"206 770 LINE",
"206 30 LINE",
"136 20 LINE",
"136 0 LINE",
"442 0 LINE SMOOTH",
"560 0 OFFCURVE",
"635 50 OFFCURVE",
"635 150 CURVE SMOOTH",
"635 250 OFFCURVE",
"560 300 OFFCURVE",
"442 300 CURVE SMOOTH",
"306 300 LINE",
"306 800 LINE",
"136 800 LINE",
"136 780 LINE"
);
},
{
closed = 1;
nodes = (
"306 275 LINE",
"412 275 LINE SMOOTH",
"485 275 OFFCURVE",
"527 231 OFFCURVE",
"527 151 CURVE SMOOTH",
"527 149 LINE SMOOTH",
"527 69 OFFCURVE",
"485 25 OFFCURVE",
"412 25 CURVE SMOOTH",
"306 25 LINE"
);
},
{
closed = 1;
nodes = (
"391 563 LINE",
"479 398 LINE",
"507 398 LINE",
"492 588 LINE",
"20 588 LINE",
"5 398 LINE",
"33 398 LINE",
"120 563 LINE"
);
}
);
width = 650;
}
);
rightMetricsKey = "softsign-cy";
unicode = 0463;
},
{
color = 6;
glyphname = "yusbig-cy";
lastChange = "2016-09-06 17:38:43 +0000";
layers = (
{
layerId = UUID0;
paths = (
{
closed = 1;
nodes = (
"152 286 OFFCURVE",
"101 259 OFFCURVE",
"84 173 CURVE SMOOTH",
"67 85 LINE SMOOTH",
"59 41 OFFCURVE",
"50 30 OFFCURVE",
"30 30 CURVE SMOOTH",
"20 30 OFFCURVE",
"8 35 OFFCURVE",
"-5 48 CURVE",
"-20 33 LINE",
"6 3 OFFCURVE",
"44 -12 OFFCURVE",
"76 -12 CURVE SMOOTH",
"135 -12 OFFCURVE",
"159 12 OFFCURVE",
"170 69 CURVE SMOOTH",
"190 177 LINE SMOOTH",
"201 243 OFFCURVE",
"231 263 OFFCURVE",
"277 263 CURVE SMOOTH",
"360 263 LINE",
"360 31 LINE",
"288 20 LINE",
"288 0 LINE",
"532 0 LINE",
"532 20 LINE",
"460 31 LINE",
"460 263 LINE",
"538 263 LINE SMOOTH",
"587 263 OFFCURVE",
"617 246 OFFCURVE",
"630 177 CURVE SMOOTH",
"650 69 LINE SMOOTH",
"661 12 OFFCURVE",
"685 -12 OFFCURVE",
"744 -12 CURVE SMOOTH",
"776 -12 OFFCURVE",
"814 3 OFFCURVE",
"840 33 CURVE",
"825 48 LINE",
"812 35 OFFCURVE",
"800 30 OFFCURVE",
"790 30 CURVE SMOOTH",
"770 30 OFFCURVE",
"761 41 OFFCURVE",
"753 85 CURVE SMOOTH",
"736 173 LINE SMOOTH",
"719 259 OFFCURVE",
"668 286 OFFCURVE",
"543 286 CURVE SMOOTH",
"277 286 LINE SMOOTH"
);
},
{
closed = 1;
nodes = (
"470 277 LINE",
"696 518 LINE",
"666 518 LINE",
"436 277 LINE",
"470 277 LINE",
"465 277 LINE",
"231 518 LINE",
"109 518 LINE",
"343 277 LINE",
"449 277 LINE",
"465 277 LINE"
);
},
{
closed = 1;
nodes = (
"669 495 LINE",
"669 518 LINE",
"147 518 LINE",
"147 495 LINE"
);
}
);
width = 820;
},
{
associatedMasterId = UUID0;
layerId = "5093C4C6-DDE4-4884-AC68-6F3C7F3DAFAA";
name = "Regular Sep 6 16, 20:31";
paths = (
{
closed = 1;
nodes = (
"547 518 LINE",
"303 518 LINE",
"303 497 LINE",
"375 487 LINE",
"375 286 LINE",
"296 286 LINE",
"292 286 LINE",
"290 286 LINE SMOOTH",
"257 288 OFFCURVE",
"238 306 OFFCURVE",
"226 357 CURVE SMOOTH",
"208 429 LINE SMOOTH",
"194 487 OFFCURVE",
"174 527 OFFCURVE",
"112 527 CURVE SMOOTH",
"61 527 OFFCURVE",
"36 495 OFFCURVE",
"36 460 CURVE SMOOTH",
"36 419 OFFCURVE",
"70 383 OFFCURVE",
"126 402 CURVE",
"116 429 OFFCURVE",
"130 450 OFFCURVE",
"151 450 CURVE SMOOTH",
"168 450 OFFCURVE",
"178 440 OFFCURVE",
"183 422 CURVE SMOOTH",
"202 350 LINE SMOOTH",
"209 322 OFFCURVE",
"219 299 OFFCURVE",
"235 284 CURVE",
"145 276 OFFCURVE",
"111 241 OFFCURVE",
"99 173 CURVE",
"82 85 LINE SMOOTH",
"74 41 OFFCURVE",
"65 30 OFFCURVE",
"45 30 CURVE SMOOTH",
"35 30 OFFCURVE",
"23 35 OFFCURVE",
"10 48 CURVE",
"-5 33 LINE",
"21 3 OFFCURVE",
"59 -12 OFFCURVE",
"91 -12 CURVE SMOOTH",
"150 -12 OFFCURVE",
"174 12 OFFCURVE",
"185 69 CURVE SMOOTH",
"205 177 LINE",
"216 243 OFFCURVE",
"246 262 OFFCURVE",
"292 263 CURVE SMOOTH",
"296 263 LINE",
"297 263 LINE",
"375 263 LINE",
"375 31 LINE",
"303 20 LINE",
"303 0 LINE",
"547 0 LINE",
"547 20 LINE",
"475 31 LINE",
"475 263 LINE",
"553 263 LINE SMOOTH",
"602 263 OFFCURVE",
"632 246 OFFCURVE",
"645 177 CURVE SMOOTH",
"665 69 LINE SMOOTH",
"676 12 OFFCURVE",
"700 -12 OFFCURVE",
"759 -12 CURVE SMOOTH",
"791 -12 OFFCURVE",
"829 3 OFFCURVE",
"855 33 CURVE",
"840 48 LINE",
"827 35 OFFCURVE",
"815 30 OFFCURVE",
"805 30 CURVE SMOOTH",
"785 30 OFFCURVE",
"776 41 OFFCURVE",
"768 85 CURVE SMOOTH",
"751 173 LINE",
"739 241 OFFCURVE",
"705 276 OFFCURVE",
"614 284 CURVE",
"630 299 OFFCURVE",
"641 322 OFFCURVE",
"648 350 CURVE SMOOTH",
"667 422 LINE SMOOTH",
"672 440 OFFCURVE",
"682 450 OFFCURVE",
"699 450 CURVE SMOOTH",
"720 450 OFFCURVE",
"734 429 OFFCURVE",
"724 402 CURVE",
"780 383 OFFCURVE",
"814 419 OFFCURVE",
"814 460 CURVE SMOOTH",
"814 495 OFFCURVE",
"789 527 OFFCURVE",
"738 527 CURVE SMOOTH",
"676 527 OFFCURVE",
"656 487 OFFCURVE",
"642 429 CURVE SMOOTH",
"624 357 LINE SMOOTH",
"611 306 OFFCURVE",
"591 287 OFFCURVE",
"558 286 CURVE",
"475 286 LINE",
"475 487 LINE",
"547 497 LINE"
);
},
{
closed = 0;
nodes = (
"462 277 LINE",
"676 518 LINE"
);
}
);
width = 850;
visible = 1;
}
);
leftMetricsKey = "=zhe-cy-15";
rightMetricsKey = "=zhe-cy-15";
unicode = 046B;
},
{
color = 6;
glyphname = "fita-cy";
lastChange = "2016-09-06 19:16:57 +0000";
layers = (
{
components = (
{
name = o;
}
);
layerId = UUID0;
paths = (
{
closed = 1;
nodes = (
"448 216 OFFCURVE",
"464 304 OFFCURVE",
"464 304 CURVE SMOOTH",
"451 307 LINE",
"441 285 OFFCURVE",
"420 272 OFFCURVE",
"398 272 CURVE",
"349 272 OFFCURVE",
"302 325 OFFCURVE",
"238 325 CURVE",
"153 325 OFFCURVE",
"135 236 OFFCURVE",
"136 236 CURVE SMOOTH",
"149 234 LINE",
"159 258 OFFCURVE",
"181 269 OFFCURVE",
"201 269 CURVE",
"251 269 OFFCURVE",
"297 216 OFFCURVE",
"361 216 CURVE"
);
}
);
width = 600;
}
);
leftMetricsKey = o;
rightMetricsKey = o;
unicode = 0473;
},
{
color = 6;
glyphname = "izhitsa-cy";
lastChange = "2016-09-06 17:50:00 +0000";
layers = (
{
layerId = UUID0;
paths = (
{
closed = 1;
nodes = (
"315 109 LINE",
"164 485 LINE",
"236 498 LINE",
"236 518 LINE",
"-13 518 LINE",
"-13 498 LINE",
"52 488 LINE",
"266 -20 LINE",
"294 -20 LINE",
"462 431 LINE SMOOTH",
"473 462 OFFCURVE",
"486 470 OFFCURVE",
"504 470 CURVE SMOOTH",
"520 470 OFFCURVE",
"530 459 OFFCURVE",
"530 447 CURVE SMOOTH",
"530 434 OFFCURVE",
"525 422 OFFCURVE",
"513 412 CURVE",
"513 412 OFFCURVE",
"529 379 OFFCURVE",
"570 379 CURVE SMOOTH",
"601 379 OFFCURVE",
"631 401 OFFCURVE",
"631 443 CURVE SMOOTH",
"631 495 OFFCURVE",
"590 521 OFFCURVE",
"542 521 CURVE SMOOTH",
"492 521 OFFCURVE",
"461 503 OFFCURVE",
"436 435 CURVE SMOOTH"
);
}
);
width = 571;
}
);
unicode = 0475;
},
{
color = 6;
glyphname = "ghemiddlehook-cy";
lastChange = "2016-09-06 19:14:19 +0000";
layers = (
{
components = (
{
name = "ge-cy";
}
);
layerId = UUID0;
paths = (
{
closed = 1;
nodes = (
"534 216 OFFCURVE",
"478 280 OFFCURVE",
"313 280 CURVE SMOOTH",
"244 280 OFFCURVE",
"191 257 OFFCURVE",
"191 257 CURVE",
"191 231 LINE",
"191 231 OFFCURVE",
"239 257 OFFCURVE",
"313 257 CURVE SMOOTH",
"398 257 OFFCURVE",
"433 198 OFFCURVE",
"433 104 CURVE SMOOTH",
"433 -33 OFFCURVE",
"396 -171 OFFCURVE",
"245 -276 CURVE",
"257 -288 LINE",
"432 -189 OFFCURVE",
"534 -70 OFFCURVE",
"534 104 CURVE SMOOTH"
);
}
);
width = 544;
},
{
associatedMasterId = UUID0;
components = (
{
name = "ge-cy";
}
);
layerId = "84559C83-E71B-486B-BB86-57816374C90D";
name = "Regular Sep 6 16, 22:10";
paths = (
{
closed = 1;
nodes = (
"238 277 OFFCURVE",
"156 218 OFFCURVE",
"156 218 CURVE",
"156 188 LINE",
"156 188 OFFCURVE",
"220 241 OFFCURVE",
"331 241 CURVE SMOOTH",
"391 241 OFFCURVE",
"417 199 OFFCURVE",
"417 132 CURVE SMOOTH",
"417 109 LINE SMOOTH",
"417 -60 OFFCURVE",
"388 -177 OFFCURVE",
"274 -274 CURVE",
"290 -290 LINE",
"434 -189 OFFCURVE",
"517 -88 OFFCURVE",
"517 109 CURVE SMOOTH",
"517 134 LINE SMOOTH",
"517 232 OFFCURVE",
"455 277 OFFCURVE",
"362 277 CURVE SMOOTH"
);
}
);
width = 1100;
}
);
unicode = 0495;
},
{
color = 6;
glyphname = "zhedescender-cy";
lastChange = "2016-09-06 15:25:46 +0000";
layers = (
{
layerId = UUID0;
paths = (
{
closed = 1;
nodes = (
"783 0 LINE",
"871 -165 LINE",
"899 -165 LINE",
"884 25 LINE",
"819 25 LINE"
);
},
{
closed = 1;
nodes = (
"551 518 LINE",
"303 518 LINE",
"303 497 LINE",
"375 487 LINE",
"375 286 LINE",
"291 286 LINE SMOOTH",
"258 286 OFFCURVE",
"238 306 OFFCURVE",
"226 357 CURVE SMOOTH",
"208 429 LINE SMOOTH",
"194 487 OFFCURVE",
"174 527 OFFCURVE",
"112 527 CURVE SMOOTH",
"61 527 OFFCURVE",
"36 495 OFFCURVE",
"36 460 CURVE SMOOTH",
"36 419 OFFCURVE",
"70 383 OFFCURVE",
"126 402 CURVE",
"116 429 OFFCURVE",
"130 450 OFFCURVE",
"151 450 CURVE SMOOTH",
"168 450 OFFCURVE",
"178 440 OFFCURVE",
"183 422 CURVE SMOOTH",
"202 350 LINE SMOOTH",
"209 322 OFFCURVE",
"219 299 OFFCURVE",
"235 284 CURVE",
"145 276 OFFCURVE",
"111 241 OFFCURVE",
"99 173 CURVE",
"82 85 LINE SMOOTH",
"74 41 OFFCURVE",
"65 30 OFFCURVE",
"45 30 CURVE SMOOTH",
"35 30 OFFCURVE",
"23 35 OFFCURVE",
"10 48 CURVE",
"-5 33 LINE",
"21 3 OFFCURVE",
"59 -12 OFFCURVE",
"91 -12 CURVE SMOOTH",
"150 -12 OFFCURVE",
"174 12 OFFCURVE",
"185 69 CURVE SMOOTH",
"205 177 LINE",
"216 243 OFFCURVE",
"246 262 OFFCURVE",
"292 263 CURVE",
"375 263 LINE",
"375 31 LINE",
"303 20 LINE",
"303 0 LINE",
"551 0 LINE",
"551 20 LINE",
"479 31 LINE",
"479 263 LINE",
"557 263 LINE SMOOTH",
"606 263 OFFCURVE",
"636 246 OFFCURVE",
"649 177 CURVE SMOOTH",
"668 72 LINE SMOOTH",
"677 20 OFFCURVE",
"704 0 OFFCURVE",
"763 0 CURVE SMOOTH",
"783 0 LINE",
"819 25 LINE",
"794 25 OFFCURVE",
"782 37 OFFCURVE",
"772 85 CURVE SMOOTH",
"755 173 LINE",
"743 241 OFFCURVE",
"709 276 OFFCURVE",
"618 284 CURVE",
"634 299 OFFCURVE",
"644 322 OFFCURVE",
"652 350 CURVE SMOOTH",
"671 422 LINE SMOOTH",
"676 440 OFFCURVE",
"686 450 OFFCURVE",
"703 450 CURVE SMOOTH",
"724 450 OFFCURVE",
"738 429 OFFCURVE",
"728 402 CURVE",
"784 383 OFFCURVE",
"818 419 OFFCURVE",
"818 460 CURVE SMOOTH",
"818 495 OFFCURVE",
"793 527 OFFCURVE",
"742 527 CURVE SMOOTH",
"680 527 OFFCURVE",
"660 487 OFFCURVE",
"646 429 CURVE SMOOTH",
"628 357 LINE SMOOTH",
"615 306 OFFCURVE",
"595 287 OFFCURVE",
"562 286 CURVE",
"479 286 LINE",
"479 487 LINE",
"551 497 LINE"
);
}
);
width = 859;
}
);
unicode = 0497;
},
{
color = 6;
glyphname = "zedescender-cy";
lastChange = "2016-09-06 19:30:55 +0000";
layers = (
{
components = (
{
name = "ze-cy";
}
);
layerId = UUID0;
paths = (
{
closed = 1;
nodes = (
"200 2 LINE",
"235 -164 LINE",
"258 -164 LINE",
"293 2 LINE"
);
}
);
width = 528;
}
);
unicode = 0499;
},
{
color = 6;
glyphname = "kadescender-cy";
lastChange = "2016-09-06 15:25:46 +0000";
layers = (
{
layerId = UUID0;
paths = (
{
closed = 1;
nodes = (
"488 173 LINE SMOOTH",
"475 241 OFFCURVE",
"441 276 OFFCURVE",
"351 284 CURVE",
"367 299 OFFCURVE",
"377 322 OFFCURVE",
"385 350 CURVE SMOOTH",
"404 422 LINE SMOOTH",
"409 440 OFFCURVE",
"419 450 OFFCURVE",
"436 450 CURVE SMOOTH",
"457 450 OFFCURVE",
"471 429 OFFCURVE",
"461 402 CURVE",
"517 383 OFFCURVE",
"551 419 OFFCURVE",
"551 460 CURVE SMOOTH",
"551 495 OFFCURVE",
"526 527 OFFCURVE",
"475 527 CURVE SMOOTH",
"413 527 OFFCURVE",
"393 487 OFFCURVE",
"379 429 CURVE SMOOTH",
"361 357 LINE SMOOTH",
"348 306 OFFCURVE",
"329 288 OFFCURVE",
"296 286 CURVE",
"202 286 LINE",
"202 487 LINE",
"274 497 LINE",
"274 518 LINE",
"26 518 LINE",
"26 497 LINE",
"98 487 LINE",
"98 31 LINE",
"26 20 LINE",
"26 0 LINE",
"274 0 LINE",
"274 20 LINE",
"202 31 LINE",
"202 263 LINE",
"290 263 LINE",
"291 263 LINE",
"295 263 LINE SMOOTH",
"341 262 OFFCURVE",
"370 243 OFFCURVE",
"382 177 CURVE SMOOTH",
"402 71 LINE SMOOTH",
"412 19 OFFCURVE",
"438 0 OFFCURVE",
"497 0 CURVE SMOOTH",
"517 0 LINE",
"553 25 LINE",
"528 25 OFFCURVE",
"515 39 OFFCURVE",
"505 87 CURVE SMOOTH"
);
},
{
closed = 1;
nodes = (
"517 0 LINE",
"605 -165 LINE",
"633 -165 LINE",
"618 25 LINE",
"553 25 LINE"
);
}
);
width = 593;
},
{
associatedMasterId = UUID0;
layerId = "EBD2D1DC-E0FF-4154-B820-D884A4BAECC3";
name = "Regular Sep 6 16, 18:08";
paths = (
{
closed = 1;
nodes = (
"291 263 LINE",
"295 263 LINE SMOOTH",
"341 262 OFFCURVE",
"369 243 OFFCURVE",
"382 177 CURVE SMOOTH",
"402 71 LINE SMOOTH",
"413 14 OFFCURVE",
"437 -10 OFFCURVE",
"496 -10 CURVE SMOOTH",
"528 -10 OFFCURVE",
"566 5 OFFCURVE",
"592 35 CURVE",
"577 50 LINE",
"564 37 OFFCURVE",
"552 32 OFFCURVE",
"542 32 CURVE SMOOTH",
"522 32 OFFCURVE",
"514 43 OFFCURVE",
"505 87 CURVE SMOOTH",
"488 173 LINE SMOOTH",
"475 241 OFFCURVE",
"441 276 OFFCURVE",
"351 284 CURVE",
"367 299 OFFCURVE",
"377 322 OFFCURVE",
"385 350 CURVE SMOOTH",
"404 422 LINE SMOOTH",
"409 440 OFFCURVE",
"419 450 OFFCURVE",
"436 450 CURVE SMOOTH",
"457 450 OFFCURVE",
"471 429 OFFCURVE",
"461 402 CURVE",
"517 383 OFFCURVE",
"551 419 OFFCURVE",
"551 460 CURVE SMOOTH",
"551 495 OFFCURVE",
"526 527 OFFCURVE",
"475 527 CURVE SMOOTH",
"413 527 OFFCURVE",
"393 487 OFFCURVE",
"379 429 CURVE SMOOTH",
"361 357 LINE SMOOTH",
"348 306 OFFCURVE",
"329 288 OFFCURVE",
"296 286 CURVE",
"202 286 LINE",
"202 487 LINE",
"274 497 LINE",
"274 518 LINE",
"26 518 LINE",
"26 497 LINE",
"98 487 LINE",
"98 31 LINE",
"26 20 LINE",
"26 0 LINE",
"274 0 LINE",
"274 20 LINE",
"202 31 LINE",
"202 263 LINE",
"290 263 LINE"
);
}
);
width = 587;
visible = 1;
}
);
unicode = 049B;
},
{
color = 6;
glyphname = "kabashkir-cy";
lastChange = "2016-09-06 18:44:36 +0000";
layers = (
{
anchors = (
{
name = top;
position = "{411, 518}";
}
);
layerId = UUID0;
paths = (
{
closed = 1;
nodes = (
"38 328 LINE",
"125 493 LINE",
"206 493 LINE",
"206 31 LINE",
"134 20 LINE",
"134 0 LINE",
"378 0 LINE",
"378 20 LINE",
"306 31 LINE",
"306 263 LINE",
"399 263 LINE SMOOTH",
"445 262 OFFCURVE",
"473 243 OFFCURVE",
"486 177 CURVE SMOOTH",
"506 71 LINE SMOOTH",
"517 14 OFFCURVE",
"541 -10 OFFCURVE",
"600 -10 CURVE SMOOTH",
"632 -10 OFFCURVE",
"670 5 OFFCURVE",
"696 35 CURVE",
"681 50 LINE",
"668 37 OFFCURVE",
"656 32 OFFCURVE",
"646 32 CURVE SMOOTH",
"626 32 OFFCURVE",
"618 43 OFFCURVE",
"609 87 CURVE SMOOTH",
"592 173 LINE SMOOTH",
"579 241 OFFCURVE",
"545 276 OFFCURVE",
"455 284 CURVE",
"471 299 OFFCURVE",
"481 322 OFFCURVE",
"489 350 CURVE SMOOTH",
"508 422 LINE SMOOTH",
"513 440 OFFCURVE",
"523 450 OFFCURVE",
"540 450 CURVE SMOOTH",
"561 450 OFFCURVE",
"575 429 OFFCURVE",
"565 402 CURVE",
"575 398 OFFCURVE",
"585 397 OFFCURVE",
"594 397 CURVE SMOOTH",
"632 397 OFFCURVE",
"655 427 OFFCURVE",
"655 460 CURVE SMOOTH",
"655 495 OFFCURVE",
"630 527 OFFCURVE",
"579 527 CURVE SMOOTH",
"517 527 OFFCURVE",
"497 487 OFFCURVE",
"483 429 CURVE SMOOTH",
"465 357 LINE SMOOTH",
"452 306 OFFCURVE",
"431 286 OFFCURVE",
"398 286 CURVE SMOOTH",
"306 286 LINE",
"306 488 LINE",
"376 498 LINE",
"376 518 LINE",
"25 518 LINE",
"10 328 LINE"
);
}
);
width = 691;
}
);
leftMetricsKey = "hardsign-cy";
rightMetricsKey = "ka-cy";
unicode = 04A1;
},
{
color = 6;
glyphname = "endescender-cy";
lastChange = "2016-09-06 15:40:17 +0000";
layers = (
{
layerId = UUID0;
paths = (
{
closed = 1;
nodes = (
"443 0 LINE",
"513 0 LINE",
"601 -165 LINE",
"629 -165 LINE",
"614 25 LINE",
"543 25 LINE",
"543 488 LINE",
"613 498 LINE",
"613 518 LINE",
"383 518 LINE",
"383 498 LINE",
"443 488 LINE",
"443 275 LINE",
"196 275 LINE",
"196 488 LINE",
"256 498 LINE",
"256 518 LINE",
"26 518 LINE",
"26 498 LINE",
"96 488 LINE",
"96 30 LINE",
"26 20 LINE",
"26 0 LINE",
"256 0 LINE",
"256 20 LINE",
"196 30 LINE",
"196 250 LINE",
"443 250 LINE"
);
},
{
closed = 1;
nodes = (
"383 20 LINE",
"383 0 LINE",
"443 0 LINE",
"504 40 LINE"
);
}
);
width = 653;
}
);
leftMetricsKey = n;
rightMetricsKey = "tse-cy";
unicode = 04A3;
},
{
color = 6;
glyphname = "pedescender-cy";
lastChange = "2016-09-06 15:40:12 +0000";
layers = (
{
layerId = UUID0;
paths = (
{
closed = 1;
nodes = (
"536 488 LINE",
"606 498 LINE",
"606 518 LINE",
"26 518 LINE",
"26 498 LINE",
"96 488 LINE",
"96 30 LINE",
"26 20 LINE",
"26 0 LINE",
"256 0 LINE",
"256 20 LINE",
"196 30 LINE",
"196 493 LINE",
"436 493 LINE",
"436 30 LINE",
"376 20 LINE",
"376 0 LINE",
"506 0 LINE",
"594 -165 LINE",
"622 -165 LINE",
"607 25 LINE",
"536 25 LINE"
);
}
);
width = 646;
}
);
rightMetricsKey = "tse-cy";
unicode = 0525;
},
{
color = 6;
glyphname = "esdescender-cy";
lastChange = "2016-09-06 19:30:55 +0000";
layers = (
{
components = (
{
name = "es-cy";
}
);
layerId = UUID0;
paths = (
{
closed = 1;
nodes = (
"252 2 LINE",
"287 -164 LINE",
"310 -164 LINE",
"345 2 LINE"
);
}
);
width = 543;
}
);
unicode = 04AB;
},
{
color = 6;
glyphname = "ustrait-cy";
lastChange = "2016-09-06 19:24:55 +0000";
layers = (
{
layerId = UUID0;
paths = (
{
closed = 1;
nodes = (
"228 65 LINE",
"228 -253 LINE",
"158 -263 LINE",
"158 -283 LINE",
"398 -283 LINE",
"398 -263 LINE",
"328 -253 LINE",
"328 65 LINE"
);
},
{
closed = 1;
nodes = (
"324 56 LINE",
"164 485 LINE",
"236 498 LINE",
"236 518 LINE",
"-13 518 LINE",
"-13 498 LINE",
"52 488 LINE",
"233 20 LINE"
);
},
{
closed = 1;
nodes = (
"326 26 LINE",
"478 473 LINE",
"541 497 LINE",
"541 517 LINE",
"362 517 LINE",
"362 497 LINE",
"450 472 LINE",
"299 26 LINE"
);
}
);
width = 531;
}
);
leftMetricsKey = v;
rightMetricsKey = v;
unicode = 04AF;
},
{
color = 6;
glyphname = "ustraitstroke-cy";
lastChange = "2016-09-06 19:24:13 +0000";
layers = (
{
components = (
{
name = strokeshortcomb;
transform = "{1.2653, 0, 0, 1, 76, -227}";
}
);
guideLines = (
{
position = "{298, 71}";
}
);
layerId = UUID0;
paths = (
{
closed = 1;
nodes = (
"228 65 LINE",
"228 -253 LINE",
"158 -263 LINE",
"158 -283 LINE",
"398 -283 LINE",
"398 -263 LINE",
"328 -253 LINE",
"328 65 LINE"
);
},
{
closed = 1;
nodes = (
"324 56 LINE",
"164 485 LINE",
"236 498 LINE",
"236 518 LINE",
"-13 518 LINE",
"-13 498 LINE",
"52 488 LINE",
"233 20 LINE"
);
},
{
closed = 1;
nodes = (
"326 26 LINE",
"478 473 LINE",
"541 497 LINE",
"541 517 LINE",
"362 517 LINE",
"362 497 LINE",
"450 472 LINE",
"299 26 LINE"
);
}
);
width = 531;
}
);
leftMetricsKey = v;
rightMetricsKey = v;
unicode = 04B1;
},
{
color = 6;
glyphname = "chedescender-cy";
lastChange = "2016-09-06 18:10:57 +0000";
layers = (
{
layerId = UUID0;
paths = (
{
closed = 1;
nodes = (
"482 0 LINE",
"570 -165 LINE",
"598 -165 LINE",
"583 25 LINE",
"512 25 LINE",
"512 488 LINE",
"582 498 LINE",
"582 518 LINE",
"352 518 LINE",
"352 498 LINE",
"412 488 LINE",
"412 251 LINE",
"390 238 OFFCURVE",
"344 218 OFFCURVE",
"275 218 CURVE SMOOTH",
"201 218 OFFCURVE",
"176 261 OFFCURVE",
"176 332 CURVE SMOOTH",
"176 488 LINE",
"236 498 LINE",
"236 518 LINE",
"6 518 LINE",
"6 498 LINE",
"76 488 LINE",
"76 332 LINE SMOOTH",
"76 225 OFFCURVE",
"146 188 OFFCURVE",
"249 188 CURVE SMOOTH",
"329 188 OFFCURVE",
"385 210 OFFCURVE",
"412 224 CURVE",
"412 0 LINE"
);
},
{
closed = 1;
nodes = (
"312 20 LINE",
"312 0 LINE",
"445 0 LINE",
"445 33 LINE"
);
}
);
width = 622;
}
);
leftMetricsKey = "che-cy";
rightMetricsKey = "tse-cy";
unicode = 04B7;
},
{
color = 6;
glyphname = "chekhakassian-cy";
lastChange = "2016-09-06 18:11:06 +0000";
layers = (
{
layerId = UUID0;
paths = (
{
closed = 1;
nodes = (
"354 -165 LINE",
"442 0 LINE",
"512 0 LINE",
"512 488 LINE",
"582 498 LINE",
"582 518 LINE",
"352 518 LINE",
"352 498 LINE",
"412 488 LINE",
"412 251 LINE",
"390 238 OFFCURVE",
"344 218 OFFCURVE",
"275 218 CURVE SMOOTH",
"201 218 OFFCURVE",
"176 261 OFFCURVE",
"176 332 CURVE SMOOTH",
"176 488 LINE",
"236 498 LINE",
"236 518 LINE",
"6 518 LINE",
"6 498 LINE",
"76 488 LINE",
"76 332 LINE SMOOTH",
"76 225 OFFCURVE",
"146 188 OFFCURVE",
"249 188 CURVE SMOOTH",
"329 188 OFFCURVE",
"385 210 OFFCURVE",
"412 224 CURVE",
"412 25 LINE",
"341 25 LINE",
"326 -165 LINE"
);
},
{
closed = 1;
nodes = (
"572 0 LINE",
"572 20 LINE",
"451 40 LINE",
"512 0 LINE"
);
}
);
width = 608;
}
);
leftMetricsKey = "che-cy";
rightMetricsKey = "che-cy";
unicode = 04CC;
},
{
color = 6;
glyphname = "gedescender-cy";
lastChange = "2016-09-06 19:37:32 +0000";
layers = (
{
layerId = UUID0;
paths = (
{
closed = 1;
nodes = (
"254 -165 LINE",
"282 -165 LINE",
"267 25 LINE",
"196 25 LINE",
"196 493 LINE",
"362 493 LINE",
"450 328 LINE",
"478 328 LINE",
"463 518 LINE",
"26 518 LINE",
"26 498 LINE",
"96 488 LINE",
"96 30 LINE",
"26 20 LINE",
"26 0 LINE",
"166 0 LINE"
);
}
);
width = 485;
}
);
leftMetricsKey = n;
rightMetricsKey = "ge-cy";
unicode = 04F7;
},
{
color = 6;
glyphname = "Enghe-cy";
lastChange = "2016-09-06 18:37:26 +0000";
layers = (
{
layerId = UUID0;
paths = (
{
closed = 1;
nodes = (
"528 800 LINE",
"1081 800 LINE",
"1081 577 LINE",
"1051 577 LINE",
"976 775 LINE",
"730 775 LINE",
"730 36 LINE",
"822 21 LINE",
"822 0 LINE",
"528 0 LINE",
"528 21 LINE",
"620 36 LINE",
"620 760 LINE",
"528 775 LINE"
);
},
{
closed = 1;
nodes = (
"620 436 LINE",
"240 436 LINE",
"240 764 LINE",
"332 778 LINE",
"332 800 LINE",
"38 800 LINE",
"38 778 LINE",
"130 764 LINE",
"130 36 LINE",
"38 21 LINE",
"38 0 LINE",
"332 0 LINE",
"332 21 LINE",
"240 36 LINE",
"240 411 LINE",
"620 411 LINE"
);
}
);
width = 1101;
}
);
leftMetricsKey = "En-cy";
rightMetricsKey = "Ge-cy";
unicode = 04A4;
},
{
color = 6;
glyphname = "enghe-cy";
lastChange = "2016-09-06 18:37:26 +0000";
layers = (
{
layerId = UUID0;
paths = (
{
closed = 1;
nodes = (
"443 275 LINE",
"196 275 LINE",
"196 488 LINE",
"256 498 LINE",
"256 518 LINE",
"26 518 LINE",
"26 498 LINE",
"96 488 LINE",
"96 30 LINE",
"26 20 LINE",
"26 0 LINE",
"256 0 LINE",
"256 20 LINE",
"196 30 LINE",
"196 250 LINE",
"443 250 LINE"
);
},
{
closed = 1;
nodes = (
"443 30 LINE",
"373 20 LINE",
"373 0 LINE",
"633 0 LINE",
"633 20 LINE",
"543 30 LINE",
"543 493 LINE",
"679 493 LINE",
"767 328 LINE",
"795 328 LINE",
"780 518 LINE",
"373 518 LINE",
"373 498 LINE",
"443 488 LINE"
);
}
);
width = 802;
}
);
leftMetricsKey = "en-cy";
rightMetricsKey = "ge-cy";
unicode = 04A5;
},
{
glyphname = zero;
lastChange = "2016-09-01 07:33:30 +0000";
layers = (
{
layerId = UUID0;
paths = (
{
closed = 1;
nodes = (
"517 -20 OFFCURVE",
"634 120 OFFCURVE",
"634 400 CURVE SMOOTH",
"634 680 OFFCURVE",
"517 820 OFFCURVE",
"345 820 CURVE SMOOTH",
"173 820 OFFCURVE",
"56 680 OFFCURVE",
"56 400 CURVE SMOOTH",
"56 120 OFFCURVE",
"173 -20 OFFCURVE",
"345 -20 CURVE SMOOTH"
);
},
{
closed = 1;
nodes = (
"251 3 OFFCURVE",
"184 89 OFFCURVE",
"184 304 CURVE SMOOTH",
"184 497 LINE SMOOTH",
"184 711 OFFCURVE",
"251 797 OFFCURVE",
"345 797 CURVE SMOOTH",
"440 797 OFFCURVE",
"506 711 OFFCURVE",
"506 497 CURVE SMOOTH",
"506 304 LINE SMOOTH",
"506 89 OFFCURVE",
"440 3 OFFCURVE",
"345 3 CURVE SMOOTH"
);
}
);
width = 690;
}
);
unicode = 0030;
},
{
glyphname = one;
lastChange = "2016-09-01 07:33:30 +0000";
layers = (
{
layerId = UUID0;
paths = (
{
closed = 1;
nodes = (
"52 780 LINE",
"122 770 LINE",
"122 30 LINE",
"52 20 LINE",
"52 0 LINE",
"292 0 LINE",
"292 20 LINE",
"222 30 LINE",
"222 800 LINE",
"52 800 LINE"
);
}
);
width = 340;
}
);
unicode = 0031;
},
{
glyphname = two;
lastChange = "2016-09-01 07:33:30 +0000";
layers = (
{
layerId = UUID0;
paths = (
{
closed = 1;
nodes = (
"539 253 LINE",
"513 253 LINE",
"472 105 LINE",
"99 105 LINE",
"338 316 LINE",
"426 395 OFFCURVE",
"534 474 OFFCURVE",
"534 611 CURVE SMOOTH",
"534 727 OFFCURVE",
"466 820 OFFCURVE",
"294 820 CURVE SMOOTH",
"169 820 OFFCURVE",
"55 745 OFFCURVE",
"55 634 CURVE SMOOTH",
"55 576 OFFCURVE",
"94 546 OFFCURVE",
"133 546 CURVE SMOOTH",
"170 546 OFFCURVE",
"207 569 OFFCURVE",
"207 620 CURVE",
"170 638 OFFCURVE",
"154 666 OFFCURVE",
"154 699 CURVE SMOOTH",
"154 760 OFFCURVE",
"215 797 OFFCURVE",
"278 797 CURVE SMOOTH",
"357 797 OFFCURVE",
"417 752 OFFCURVE",
"417 628 CURVE SMOOTH",
"417 506 OFFCURVE",
"350 399 OFFCURVE",
"247 292 CURVE",
"36 77 LINE",
"36 0 LINE",
"539 0 LINE"
);
}
);
width = 608;
}
);
unicode = 0032;
},
{
glyphname = three;
lastChange = "2016-09-01 07:33:30 +0000";
layers = (
{
layerId = UUID0;
paths = (
{
closed = 1;
nodes = (
"190 435 LINE",
"347 425 OFFCURVE",
"427 347 OFFCURVE",
"427 208 CURVE SMOOTH",
"427 76 OFFCURVE",
"359 3 OFFCURVE",
"265 3 CURVE SMOOTH",
"189 3 OFFCURVE",
"139 40 OFFCURVE",
"139 95 CURVE SMOOTH",
"139 129 OFFCURVE",
"155 157 OFFCURVE",
"192 175 CURVE",
"192 226 OFFCURVE",
"155 249 OFFCURVE",
"118 249 CURVE SMOOTH",
"79 249 OFFCURVE",
"40 219 OFFCURVE",
"40 161 CURVE SMOOTH",
"40 58 OFFCURVE",
"140 -20 OFFCURVE",
"265 -20 CURVE SMOOTH",
"469 -20 OFFCURVE",
"565 90 OFFCURVE",
"565 208 CURVE SMOOTH",
"565 360 OFFCURVE",
"445 436 OFFCURVE",
"287 444 CURVE",
"287 447 LINE",
"440 467 OFFCURVE",
"531 525 OFFCURVE",
"531 645 CURVE SMOOTH",
"531 757 OFFCURVE",
"440 820 OFFCURVE",
"289 820 CURVE SMOOTH",
"173 820 OFFCURVE",
"66 756 OFFCURVE",
"66 664 CURVE SMOOTH",
"66 610 OFFCURVE",
"103 580 OFFCURVE",
"140 580 CURVE SMOOTH",
"175 580 OFFCURVE",
"210 602 OFFCURVE",
"210 651 CURVE",
"175 667 OFFCURVE",
"160 692 OFFCURVE",
"160 727 CURVE SMOOTH",
"160 772 OFFCURVE",
"205 797 OFFCURVE",
"278 797 CURVE SMOOTH",
"360 797 OFFCURVE",
"412 739 OFFCURVE",
"412 650 CURVE SMOOTH",
"412 535 OFFCURVE",
"330 465 OFFCURVE",
"190 457 CURVE"
);
}
);
width = 615;
}
);
unicode = 0033;
},
{
glyphname = four;
lastChange = "2016-09-01 07:33:30 +0000";
layers = (
{
layerId = UUID0;
paths = (
{
closed = 1;
nodes = (
"0 192 LINE",
"337 192 LINE",
"337 36 LINE",
"245 21 LINE",
"245 0 LINE",
"539 0 LINE",
"539 21 LINE",
"447 36 LINE",
"447 192 LINE",
"539 192 LINE",
"539 239 LINE",
"447 239 LINE",
"447 800 LINE",
"424 800 LINE",
"0 213 LINE"
);
},
{
closed = 1;
nodes = (
"49 239 LINE",
"337 638 LINE",
"337 239 LINE"
);
}
);
width = 583;
}
);
unicode = 0034;
},
{
glyphname = five;
lastChange = "2016-09-01 07:33:30 +0000";
layers = (
{
layerId = UUID0;
paths = (
{
closed = 1;
nodes = (
"126 453 LINE",
"160 464 OFFCURVE",
"193 470 OFFCURVE",
"224 470 CURVE SMOOTH",
"332 470 OFFCURVE",
"412 396 OFFCURVE",
"412 233 CURVE SMOOTH",
"412 101 OFFCURVE",
"353 3 OFFCURVE",
"250 3 CURVE SMOOTH",
"174 3 OFFCURVE",
"124 40 OFFCURVE",
"124 95 CURVE SMOOTH",
"124 129 OFFCURVE",
"140 157 OFFCURVE",
"177 175 CURVE",
"177 226 OFFCURVE",
"140 249 OFFCURVE",
"103 249 CURVE SMOOTH",
"64 249 OFFCURVE",
"25 219 OFFCURVE",
"25 161 CURVE SMOOTH",
"25 58 OFFCURVE",
"125 -20 OFFCURVE",
"250 -20 CURVE SMOOTH",
"463 -20 OFFCURVE",
"550 115 OFFCURVE",
"550 232 CURVE SMOOTH",
"550 381 OFFCURVE",
"424 498 OFFCURVE",
"242 498 CURVE SMOOTH",
"208 498 OFFCURVE",
"173 494 OFFCURVE",
"137 484 CURVE",
"163 683 LINE",
"402 683 LINE SMOOTH",
"492 683 OFFCURVE",
"554 715 OFFCURVE",
"565 853 CURVE",
"542 854 LINE",
"528 804 OFFCURVE",
"488 800 OFFCURVE",
"417 800 CURVE SMOOTH",
"152 800 LINE",
"108 466 LINE"
);
}
);
width = 603;
}
);
unicode = 0035;
},
{
glyphname = six;
lastChange = "2016-09-01 07:33:30 +0000";
layers = (
{
layerId = UUID0;
paths = (
{
closed = 1;
nodes = (
"181 535 LINE SMOOTH",
"182 736 OFFCURVE",
"258 800 OFFCURVE",
"352 800 CURVE SMOOTH",
"418 800 OFFCURVE",
"460 761 OFFCURVE",
"460 713 CURVE SMOOTH",
"460 690 OFFCURVE",
"452 676 OFFCURVE",
"432 660 CURVE",
"432 625 OFFCURVE",
"460 604 OFFCURVE",
"495 604 CURVE SMOOTH",
"539 604 OFFCURVE",
"570 641 OFFCURVE",
"570 685 CURVE SMOOTH",
"570 763 OFFCURVE",
"477 820 OFFCURVE",
"352 820 CURVE SMOOTH",
"173 820 OFFCURVE",
"57 685 OFFCURVE",
"57 410 CURVE SMOOTH",
"57 161 OFFCURVE",
"118 -20 OFFCURVE",
"326 -20 CURVE SMOOTH",
"469 -20 OFFCURVE",
"595 75 OFFCURVE",
"595 244 CURVE SMOOTH",
"595 407 OFFCURVE",
"489 498 OFFCURVE",
"343 498 CURVE SMOOTH",
"280 498 OFFCURVE",
"220 471 OFFCURVE",
"180 423 CURVE"
);
},
{
closed = 1;
nodes = (
"431 474 OFFCURVE",
"475 405 OFFCURVE",
"475 292 CURVE SMOOTH",
"475 194 LINE SMOOTH",
"475 75 OFFCURVE",
"423 2 OFFCURVE",
"326 2 CURVE SMOOTH",
"223 2 OFFCURVE",
"178 89 OFFCURVE",
"179 236 CURVE SMOOTH",
"180 375 LINE",
"211 437 OFFCURVE",
"271 474 OFFCURVE",
"336 474 CURVE SMOOTH"
);
}
);
width = 644;
}
);
unicode = 0036;
},
{
glyphname = seven;
lastChange = "2016-09-01 07:33:30 +0000";
layers = (
{
layerId = UUID0;
paths = (
{
closed = 1;
nodes = (
"276 0 LINE",
"301 280 OFFCURVE",
"444 490 OFFCURVE",
"479 800 CURVE",
"40 800 LINE",
"40 577 LINE",
"66 577 LINE",
"93 696 LINE",
"428 696 LINE",
"351 427 OFFCURVE",
"167 278 OFFCURVE",
"139 0 CURVE"
);
}
);
width = 497;
}
);
unicode = 0037;
},
{
glyphname = eight;
lastChange = "2016-09-01 07:33:30 +0000";
layers = (
{
layerId = UUID0;
paths = (
{
closed = 1;
nodes = (
"51 54 OFFCURVE",
"154 -20 OFFCURVE",
"324 -20 CURVE SMOOTH",
"456 -20 OFFCURVE",
"595 56 OFFCURVE",
"595 214 CURVE SMOOTH",
"595 326 OFFCURVE",
"515 389 OFFCURVE",
"431 442 CURVE SMOOTH",
"405 458 LINE",
"477 500 OFFCURVE",
"550 549 OFFCURVE",
"550 652 CURVE SMOOTH",
"550 765 OFFCURVE",
"434 820 OFFCURVE",
"326 820 CURVE SMOOTH",
"197 820 OFFCURVE",
"82 748 OFFCURVE",
"82 629 CURVE SMOOTH",
"82 564 OFFCURVE",
"124 507 OFFCURVE",
"191 461 CURVE",
"237 431 LINE",
"148 386 OFFCURVE",
"51 321 OFFCURVE",
"51 188 CURVE SMOOTH"
);
},
{
closed = 1;
nodes = (
"375 342 LINE",
"460 283 OFFCURVE",
"500 225 OFFCURVE",
"500 155 CURVE SMOOTH",
"500 75 OFFCURVE",
"431 3 OFFCURVE",
"319 3 CURVE SMOOTH",
"198 3 OFFCURVE",
"153 90 OFFCURVE",
"153 182 CURVE SMOOTH",
"153 267 OFFCURVE",
"188 355 OFFCURVE",
"266 412 CURVE"
);
},
{
closed = 1;
nodes = (
"171 751 OFFCURVE",
"241 797 OFFCURVE",
"314 797 CURVE SMOOTH",
"401 797 OFFCURVE",
"459 736 OFFCURVE",
"459 649 CURVE SMOOTH",
"459 596 OFFCURVE",
"449 527 OFFCURVE",
"377 475 CURVE",
"271 542 LINE",
"210 583 OFFCURVE",
"171 624 OFFCURVE",
"171 683 CURVE SMOOTH"
);
}
);
width = 643;
}
);
unicode = 0038;
},
{
glyphname = nine;
lastChange = "2016-09-01 07:33:30 +0000";
layers = (
{
layerId = UUID0;
paths = (
{
closed = 1;
nodes = (
"226 0 OFFCURVE",
"184 39 OFFCURVE",
"184 87 CURVE SMOOTH",
"184 110 OFFCURVE",
"192 124 OFFCURVE",
"212 140 CURVE",
"212 175 OFFCURVE",
"184 196 OFFCURVE",
"149 196 CURVE SMOOTH",
"105 196 OFFCURVE",
"74 159 OFFCURVE",
"74 115 CURVE SMOOTH",
"74 37 OFFCURVE",
"167 -20 OFFCURVE",
"292 -20 CURVE SMOOTH",
"471 -20 OFFCURVE",
"587 115 OFFCURVE",
"587 390 CURVE SMOOTH",
"587 639 OFFCURVE",
"526 820 OFFCURVE",
"318 820 CURVE SMOOTH",
"175 820 OFFCURVE",
"49 725 OFFCURVE",
"49 556 CURVE SMOOTH",
"49 393 OFFCURVE",
"155 302 OFFCURVE",
"301 302 CURVE SMOOTH",
"364 302 OFFCURVE",
"424 328 OFFCURVE",
"463 377 CURVE",
"463 265 LINE SMOOTH",
"462 64 OFFCURVE",
"386 0 OFFCURVE",
"292 0 CURVE SMOOTH"
);
},
{
closed = 1;
nodes = (
"213 326 OFFCURVE",
"169 395 OFFCURVE",
"169 508 CURVE SMOOTH",
"169 606 LINE SMOOTH",
"169 725 OFFCURVE",
"221 798 OFFCURVE",
"318 798 CURVE SMOOTH",
"421 798 OFFCURVE",
"466 711 OFFCURVE",
"465 564 CURVE SMOOTH",
"464 425 LINE",
"433 363 OFFCURVE",
"372 326 OFFCURVE",
"308 326 CURVE SMOOTH"
);
}
);
width = 644;
}
);
unicode = 0039;
},
{
glyphname = onesuperior;
lastChange = "2016-09-01 07:33:30 +0000";
layers = (
{
layerId = UUID0;
paths = (
{
closed = 1;
nodes = (
"50 779 LINE",
"92 774 LINE",
"92 401 LINE",
"50 396 LINE",
"50 375 LINE",
"206 375 LINE",
"206 396 LINE",
"164 401 LINE",
"164 800 LINE",
"50 800 LINE"
);
}
);
width = 249;
}
);
unicode = 00B9;
},
{
glyphname = twosuperior;
lastChange = "2016-09-01 07:33:30 +0000";
layers = (
{
layerId = UUID0;
paths = (
{
closed = 1;
nodes = (
"325 523 LINE",
"302 523 LINE",
"274 444 LINE",
"108 444 LINE",
"228 541 LINE SMOOTH",
"282 584 OFFCURVE",
"326 630 OFFCURVE",
"326 695 CURVE SMOOTH",
"326 756 OFFCURVE",
"282 805 OFFCURVE",
"184 805 CURVE SMOOTH",
"113 805 OFFCURVE",
"59 770 OFFCURVE",
"59 703 CURVE SMOOTH",
"59 670 OFFCURVE",
"82 651 OFFCURVE",
"105 651 CURVE SMOOTH",
"128 651 OFFCURVE",
"149 665 OFFCURVE",
"149 695 CURVE",
"127 707 OFFCURVE",
"118 717 OFFCURVE",
"118 737 CURVE SMOOTH",
"118 768 OFFCURVE",
"147 783 OFFCURVE",
"180 783 CURVE SMOOTH",
"221 783 OFFCURVE",
"249 751 OFFCURVE",
"249 699 CURVE SMOOTH",
"249 638 OFFCURVE",
"218 583 OFFCURVE",
"167 533 CURVE SMOOTH",
"51 420 LINE",
"51 380 LINE",
"325 380 LINE"
);
}
);
width = 387;
}
);
unicode = 00B2;
},
{
glyphname = threesuperior;
lastChange = "2016-09-01 07:33:30 +0000";
layers = (
{
layerId = UUID0;
paths = (
{
closed = 1;
nodes = (
"131 602 LINE",
"215 596 OFFCURVE",
"245 562 OFFCURVE",
"245 492 CURVE SMOOTH",
"245 422 OFFCURVE",
"206 393 OFFCURVE",
"164 393 CURVE SMOOTH",
"118 393 OFFCURVE",
"97 409 OFFCURVE",
"97 437 CURVE SMOOTH",
"97 450 OFFCURVE",
"106 466 OFFCURVE",
"127 477 CURVE",
"127 506 OFFCURVE",
"106 519 OFFCURVE",
"85 519 CURVE SMOOTH",
"63 519 OFFCURVE",
"41 501 OFFCURVE",
"41 469 CURVE SMOOTH",
"41 410 OFFCURVE",
"98 371 OFFCURVE",
"164 371 CURVE SMOOTH",
"272 371 OFFCURVE",
"330 429 OFFCURVE",
"330 492 CURVE SMOOTH",
"330 578 OFFCURVE",
"264 606 OFFCURVE",
"183 611 CURVE",
"183 613 LINE",
"264 623 OFFCURVE",
"303 659 OFFCURVE",
"303 712 CURVE SMOOTH",
"303 774 OFFCURVE",
"253 805 OFFCURVE",
"175 805 CURVE SMOOTH",
"115 805 OFFCURVE",
"60 780 OFFCURVE",
"60 719 CURVE SMOOTH",
"60 687 OFFCURVE",
"81 669 OFFCURVE",
"103 669 CURVE SMOOTH",
"124 669 OFFCURVE",
"144 682 OFFCURVE",
"144 711 CURVE",
"126 718 OFFCURVE",
"115 727 OFFCURVE",
"115 746 CURVE SMOOTH",
"115 766 OFFCURVE",
"128 783 OFFCURVE",
"165 783 CURVE SMOOTH",
"208 783 OFFCURVE",
"228 756 OFFCURVE",
"228 715 CURVE SMOOTH",
"228 657 OFFCURVE",
"206 627 OFFCURVE",
"131 623 CURVE"
);
}
);
width = 369;
}
);
unicode = 00B3;
},
{
glyphname = foursuperior;
lastChange = "2016-09-01 07:33:30 +0000";
layers = (
{
layerId = UUID0;
paths = (
{
closed = 1;
nodes = (
"13 478 LINE",
"191 478 LINE",
"191 404 LINE",
"142 396 LINE",
"142 375 LINE",
"310 375 LINE",
"310 396 LINE",
"262 404 LINE",
"262 478 LINE",
"310 478 LINE",
"310 512 LINE",
"262 512 LINE",
"262 800 LINE",
"237 800 LINE",
"13 489 LINE"
);
},
{
closed = 1;
nodes = (
"60 512 LINE",
"191 693 LINE",
"191 512 LINE"
);
}
);
width = 359;
}
);
unicode = 2074;
},
{
glyphname = fraction;
lastChange = "2016-09-01 07:33:30 +0000";
layers = (
{
layerId = UUID0;
paths = (
{
closed = 1;
nodes = (
"429 800 LINE",
"378 800 LINE",
"-22 0 LINE",
"30 0 LINE"
);
}
);
width = 407;
}
);
unicode = 2044;
},
{
glyphname = asterisk;
lastChange = "2016-09-01 07:33:30 +0000";
layers = (
{
layerId = UUID0;
paths = (
{
closed = 1;
nodes = (
"251 542 OFFCURVE",
"334 470 OFFCURVE",
"353 459 CURVE SMOOTH",
"365 452 OFFCURVE",
"382 453 OFFCURVE",
"390 468 CURVE SMOOTH",
"399 483 OFFCURVE",
"392 498 OFFCURVE",
"379 505 CURVE SMOOTH",
"361 516 OFFCURVE",
"257 553 OFFCURVE",
"239 564 CURVE",
"257 575 OFFCURVE",
"362 611 OFFCURVE",
"380 622 CURVE SMOOTH",
"393 629 OFFCURVE",
"399 645 OFFCURVE",
"391 659 CURVE SMOOTH",
"382 674 OFFCURVE",
"366 676 OFFCURVE",
"354 668 CURVE",
"335 658 OFFCURVE",
"251 586 OFFCURVE",
"232 575 CURVE",
"232 597 OFFCURVE",
"252 706 OFFCURVE",
"252 727 CURVE SMOOTH",
"252 742 OFFCURVE",
"242 755 OFFCURVE",
"225 755 CURVE SMOOTH",
"208 755 OFFCURVE",
"198 742 OFFCURVE",
"198 727 CURVE SMOOTH",
"198 706 OFFCURVE",
"219 597 OFFCURVE",
"219 575 CURVE",
"200 586 OFFCURVE",
"116 658 OFFCURVE",
"98 668 CURVE SMOOTH",
"93 671 OFFCURVE",
"87 672 OFFCURVE",
"83 672 CURVE SMOOTH",
"68 672 OFFCURVE",
"56 661 OFFCURVE",
"56 646 CURVE SMOOTH",
"56 636 OFFCURVE",
"62 627 OFFCURVE",
"71 622 CURVE SMOOTH",
"89 611 OFFCURVE",
"194 575 OFFCURVE",
"212 564 CURVE",
"194 553 OFFCURVE",
"90 516 OFFCURVE",
"72 505 CURVE SMOOTH",
"63 500 OFFCURVE",
"57 492 OFFCURVE",
"57 482 CURVE SMOOTH",
"57 466 OFFCURVE",
"68 455 OFFCURVE",
"84 455 CURVE SMOOTH",
"89 455 OFFCURVE",
"94 456 OFFCURVE",
"99 459 CURVE SMOOTH",
"117 470 OFFCURVE",
"201 542 OFFCURVE",
"219 552 CURVE",
"219 531 OFFCURVE",
"200 422 OFFCURVE",
"199 401 CURVE SMOOTH",
"199 386 OFFCURVE",
"209 374 OFFCURVE",
"226 373 CURVE SMOOTH",
"243 373 OFFCURVE",
"253 386 OFFCURVE",
"253 401 CURVE SMOOTH",
"253 422 OFFCURVE",
"232 531 OFFCURVE",
"232 552 CURVE"
);
}
);
width = 450;
}
);
unicode = 002A;
},
{
glyphname = backslash;
lastChange = "2016-09-01 07:33:30 +0000";
layers = (
{
layerId = UUID0;
paths = (
{
closed = 1;
nodes = (
"352 0 LINE",
"404 0 LINE",
"93 700 LINE",
"42 700 LINE"
);
}
);
width = 436;
}
);
unicode = 005C;
},
{
glyphname = periodcentered;
lastChange = "2016-09-01 07:33:30 +0000";
layers = (
{
layerId = UUID0;
paths = (
{
closed = 1;
nodes = (
"55 264 OFFCURVE",
"85 234 OFFCURVE",
"120 234 CURVE SMOOTH",
"155 234 OFFCURVE",
"185 264 OFFCURVE",
"185 299 CURVE SMOOTH",
"185 334 OFFCURVE",
"155 364 OFFCURVE",
"120 364 CURVE SMOOTH",
"85 364 OFFCURVE",
"55 334 OFFCURVE",
"55 299 CURVE SMOOTH"
);
}
);
width = 240;
}
);
unicode = 00B7;
},
{
glyphname = bullet;
lastChange = "2016-09-01 07:33:30 +0000";
layers = (
{
layerId = UUID0;
paths = (
{
closed = 1;
nodes = (
"143 307 OFFCURVE",
"184 266 OFFCURVE",
"234 266 CURVE SMOOTH",
"284 266 OFFCURVE",
"325 307 OFFCURVE",
"325 357 CURVE SMOOTH",
"325 407 OFFCURVE",
"284 448 OFFCURVE",
"234 448 CURVE SMOOTH",
"184 448 OFFCURVE",
"143 407 OFFCURVE",
"143 357 CURVE SMOOTH"
);
}
);
width = 468;
}
);
unicode = 2022;
},
{
glyphname = colon;
lastChange = "2016-09-01 07:33:30 +0000";
layers = (
{
layerId = UUID0;
paths = (
{
closed = 1;
nodes = (
"62 17 OFFCURVE",
"89 -10 OFFCURVE",
"122 -10 CURVE SMOOTH",
"155 -10 OFFCURVE",
"181 17 OFFCURVE",
"181 50 CURVE SMOOTH",
"181 83 OFFCURVE",
"155 108 OFFCURVE",
"122 108 CURVE SMOOTH",
"89 108 OFFCURVE",
"62 83 OFFCURVE",
"62 50 CURVE SMOOTH"
);
},
{
closed = 1;
nodes = (
"62 368 OFFCURVE",
"89 341 OFFCURVE",
"122 341 CURVE SMOOTH",
"155 341 OFFCURVE",
"181 368 OFFCURVE",
"181 401 CURVE SMOOTH",
"181 434 OFFCURVE",
"155 459 OFFCURVE",
"122 459 CURVE SMOOTH",
"89 459 OFFCURVE",
"62 434 OFFCURVE",
"62 401 CURVE SMOOTH"
);
}
);
width = 243;
}
);
leftKerningGroup = colon;
unicode = 003A;
},
{
glyphname = comma;
lastChange = "2016-09-01 07:33:30 +0000";
layers = (
{
layerId = UUID0;
paths = (
{
closed = 1;
nodes = (
"60 -162 LINE",
"146 -120 OFFCURVE",
"184 -57 OFFCURVE",
"184 16 CURVE SMOOTH",
"184 70 OFFCURVE",
"156 108 OFFCURVE",
"108 108 CURVE SMOOTH",
"75 108 OFFCURVE",
"48 83 OFFCURVE",
"48 50 CURVE SMOOTH",
"48 17 OFFCURVE",
"75 -10 OFFCURVE",
"108 -10 CURVE SMOOTH",
"121 -10 OFFCURVE",
"128 -18 OFFCURVE",
"128 -30 CURVE SMOOTH",
"128 -78 OFFCURVE",
"83 -125 OFFCURVE",
"49 -146 CURVE"
);
}
);
width = 228;
}
);
leftKerningGroup = period;
rightKerningGroup = period;
unicode = 002C;
},
{
glyphname = exclam;
lastChange = "2016-09-01 07:33:30 +0000";
layers = (
{
layerId = UUID0;
paths = (
{
closed = 1;
nodes = (
"69 17 OFFCURVE",
"95 -10 OFFCURVE",
"128 -10 CURVE SMOOTH",
"161 -10 OFFCURVE",
"187 17 OFFCURVE",
"187 50 CURVE SMOOTH",
"187 83 OFFCURVE",
"161 108 OFFCURVE",
"128 108 CURVE SMOOTH",
"95 108 OFFCURVE",
"69 83 OFFCURVE",
"69 50 CURVE SMOOTH"
);
},
{
closed = 1;
nodes = (
"140 165 LINE",
"145 422 OFFCURVE",
"183 638 OFFCURVE",
"183 752 CURVE SMOOTH",
"183 780 OFFCURVE",
"164 810 OFFCURVE",
"128 810 CURVE SMOOTH",
"92 810 OFFCURVE",
"73 780 OFFCURVE",
"73 752 CURVE SMOOTH",
"73 638 OFFCURVE",
"112 422 OFFCURVE",
"116 165 CURVE"
);
}
);
width = 256;
}
);
unicode = 0021;
},
{
glyphname = numbersign;
lastChange = "2016-09-01 07:33:30 +0000";
layers = (
{
layerId = UUID0;
paths = (
{
closed = 1;
nodes = (
"69 383 LINE",
"172 383 LINE",
"148 255 LINE",
"36 255 LINE",
"36 210 LINE",
"139 210 LINE",
"100 0 LINE",
"145 0 LINE",
"184 210 LINE",
"339 210 LINE",
"300 0 LINE",
"345 0 LINE",
"384 210 LINE",
"508 210 LINE",
"508 255 LINE",
"393 255 LINE",
"417 383 LINE",
"541 383 LINE",
"541 428 LINE",
"425 428 LINE",
"480 715 LINE",
"434 715 LINE",
"380 428 LINE",
"225 428 LINE",
"280 715 LINE",
"234 715 LINE",
"180 428 LINE",
"69 428 LINE"
);
},
{
closed = 1;
nodes = (
"217 383 LINE",
"372 383 LINE",
"348 255 LINE",
"193 255 LINE"
);
}
);
width = 581;
}
);
unicode = 0023;
},
{
glyphname = period;
lastChange = "2016-09-01 07:33:30 +0000";
layers = (
{
layerId = UUID0;
paths = (
{
closed = 1;
nodes = (
"48 17 OFFCURVE",
"75 -10 OFFCURVE",
"108 -10 CURVE SMOOTH",
"141 -10 OFFCURVE",
"167 17 OFFCURVE",
"167 50 CURVE SMOOTH",
"167 83 OFFCURVE",
"141 108 OFFCURVE",
"108 108 CURVE SMOOTH",
"75 108 OFFCURVE",
"48 83 OFFCURVE",
"48 50 CURVE SMOOTH"
);
}
);
width = 215;
}
);
leftKerningGroup = period;
rightKerningGroup = period;
unicode = 002E;
},
{
glyphname = question;
lastChange = "2016-09-01 07:33:30 +0000";
layers = (
{
layerId = UUID0;
paths = (
{
closed = 1;
nodes = (
"174 17 OFFCURVE",
"200 -10 OFFCURVE",
"233 -10 CURVE SMOOTH",
"266 -10 OFFCURVE",
"292 17 OFFCURVE",
"292 50 CURVE SMOOTH",
"292 83 OFFCURVE",
"266 108 OFFCURVE",
"233 108 CURVE SMOOTH",
"200 108 OFFCURVE",
"174 83 OFFCURVE",
"174 50 CURVE SMOOTH"
);
},
{
closed = 1;
nodes = (
"244 165 LINE",
"244 376 OFFCURVE",
"483 434 OFFCURVE",
"483 623 CURVE SMOOTH",
"483 771 OFFCURVE",
"404 820 OFFCURVE",
"267 820 CURVE SMOOTH",
"144 820 OFFCURVE",
"33 748 OFFCURVE",
"33 641 CURVE SMOOTH",
"33 587 OFFCURVE",
"70 557 OFFCURVE",
"108 557 CURVE SMOOTH",
"143 557 OFFCURVE",
"178 579 OFFCURVE",
"178 629 CURVE",
"143 646 OFFCURVE",
"128 672 OFFCURVE",
"128 705 CURVE SMOOTH",
"128 762 OFFCURVE",
"189 798 OFFCURVE",
"251 798 CURVE SMOOTH",
"312 798 OFFCURVE",
"361 763 OFFCURVE",
"361 616 CURVE SMOOTH",
"361 452 OFFCURVE",
"222 376 OFFCURVE",
"222 165 CURVE"
);
}
);
width = 522;
}
);
unicode = 003F;
},
{
glyphname = quotedbl;
lastChange = "2016-09-01 07:33:30 +0000";
layers = (
{
layerId = UUID0;
paths = (
{
closed = 1;
nodes = (
"89 565 LINE",
"99 685 OFFCURVE",
"118 727 OFFCURVE",
"118 770 CURVE SMOOTH",
"118 790 OFFCURVE",
"105 810 OFFCURVE",
"81 810 CURVE SMOOTH",
"56 810 OFFCURVE",
"43 790 OFFCURVE",
"43 770 CURVE SMOOTH",
"43 727 OFFCURVE",
"62 685 OFFCURVE",
"72 565 CURVE"
);
},
{
closed = 1;
nodes = (
"200 565 LINE",
"210 685 OFFCURVE",
"229 727 OFFCURVE",
"229 770 CURVE SMOOTH",
"229 790 OFFCURVE",
"217 810 OFFCURVE",
"192 810 CURVE SMOOTH",
"167 810 OFFCURVE",
"154 790 OFFCURVE",
"154 770 CURVE SMOOTH",
"154 727 OFFCURVE",
"174 685 OFFCURVE",
"184 565 CURVE"
);
}
);
width = 272;
}
);
leftKerningGroup = quotesingle;
rightKerningGroup = quotesingle;
unicode = 0022;
},
{
glyphname = quotesingle;
lastChange = "2016-09-01 07:33:30 +0000";
layers = (
{
layerId = UUID0;
paths = (
{
closed = 1;
nodes = (
"90 565 LINE",
"99 685 OFFCURVE",
"119 727 OFFCURVE",
"119 770 CURVE SMOOTH",
"119 790 OFFCURVE",
"106 810 OFFCURVE",
"81 810 CURVE SMOOTH",
"56 810 OFFCURVE",
"44 790 OFFCURVE",
"44 770 CURVE SMOOTH",
"44 727 OFFCURVE",
"63 685 OFFCURVE",
"73 565 CURVE"
);
}
);
width = 162;
}
);
leftKerningGroup = quotesingle;
rightKerningGroup = quotesingle;
unicode = 0027;
},
{
glyphname = semicolon;
lastChange = "2016-09-01 07:33:30 +0000";
layers = (
{
layerId = UUID0;
paths = (
{
closed = 1;
nodes = (
"68 368 OFFCURVE",
"95 341 OFFCURVE",
"128 341 CURVE SMOOTH",
"161 341 OFFCURVE",
"187 368 OFFCURVE",
"187 401 CURVE SMOOTH",
"187 434 OFFCURVE",
"161 459 OFFCURVE",
"128 459 CURVE SMOOTH",
"95 459 OFFCURVE",
"68 434 OFFCURVE",
"68 401 CURVE SMOOTH"
);
},
{
closed = 1;
nodes = (
"80 -162 LINE",
"166 -120 OFFCURVE",
"204 -57 OFFCURVE",
"204 16 CURVE SMOOTH",
"204 70 OFFCURVE",
"176 108 OFFCURVE",
"128 108 CURVE SMOOTH",
"95 108 OFFCURVE",
"68 83 OFFCURVE",
"68 50 CURVE SMOOTH",
"68 17 OFFCURVE",
"95 -10 OFFCURVE",
"128 -10 CURVE SMOOTH",
"141 -10 OFFCURVE",
"148 -18 OFFCURVE",
"148 -30 CURVE SMOOTH",
"148 -78 OFFCURVE",
"103 -125 OFFCURVE",
"69 -146 CURVE"
);
}
);
width = 268;
}
);
leftKerningGroup = colon;
unicode = 003B;
},
{
glyphname = slash;
lastChange = "2016-09-01 07:33:30 +0000";
layers = (
{
layerId = UUID0;
paths = (
{
closed = 1;
nodes = (
"394 700 LINE",
"343 700 LINE",
"32 0 LINE",
"84 0 LINE"
);
}
);
width = 436;
}
);
unicode = 002F;
},
{
glyphname = underscore;
lastChange = "2016-09-01 07:33:30 +0000";
layers = (
{
layerId = UUID0;
paths = (
{
closed = 1;
nodes = (
"459 -78 LINE",
"0 -78 LINE",
"0 -113 LINE",
"459 -113 LINE"
);
}
);
width = 459;
}
);
unicode = 005F;
},
{
glyphname = braceleft;
lastChange = "2016-09-01 07:33:30 +0000";
layers = (
{
layerId = UUID0;
paths = (
{
closed = 1;
nodes = (
"225 583 OFFCURVE",
"206 722 OFFCURVE",
"206 777 CURVE SMOOTH",
"206 857 OFFCURVE",
"228 889 OFFCURVE",
"290 889 CURVE",
"290 907 LINE",
"177 907 OFFCURVE",
"109 869 OFFCURVE",
"109 760 CURVE SMOOTH",
"109 694 OFFCURVE",
"130 578 OFFCURVE",
"130 517 CURVE SMOOTH",
"130 438 OFFCURVE",
"104 365 OFFCURVE",
"12 365 CURVE",
"12 348 LINE",
"104 348 OFFCURVE",
"130 275 OFFCURVE",
"130 196 CURVE SMOOTH",
"130 135 OFFCURVE",
"109 19 OFFCURVE",
"109 -46 CURVE SMOOTH",
"109 -156 OFFCURVE",
"177 -194 OFFCURVE",
"290 -194 CURVE",
"290 -175 LINE",
"228 -175 OFFCURVE",
"206 -144 OFFCURVE",
"206 -63 CURVE SMOOTH",
"206 -9 OFFCURVE",
"225 130 OFFCURVE",
"225 182 CURVE SMOOTH",
"225 273 OFFCURVE",
"173 337 OFFCURVE",
"79 356 CURVE",
"173 376 OFFCURVE",
"225 440 OFFCURVE",
"225 531 CURVE SMOOTH"
);
}
);
width = 313;
}
);
unicode = 007B;
},
{
glyphname = braceright;
lastChange = "2016-09-01 07:33:30 +0000";
layers = (
{
hints = (
{
place = "{190, 118}";
},
{
place = "{149, -118}";
},
{
horizontal = 1;
place = "{-128, 48}";
},
{
horizontal = 1;
place = "{293, 47}";
},
{
horizontal = 1;
place = "{712, 48}";
},
{
horizontal = 1;
place = "{-128, 48}";
},
{
horizontal = 1;
place = "{293, 47}";
},
{
horizontal = 1;
place = "{712, 48}";
}
);
layerId = UUID0;
paths = (
{
closed = 1;
nodes = (
"88 583 OFFCURVE",
"107 722 OFFCURVE",
"107 777 CURVE SMOOTH",
"107 857 OFFCURVE",
"85 889 OFFCURVE",
"23 889 CURVE",
"23 907 LINE",
"136 907 OFFCURVE",
"204 869 OFFCURVE",
"204 760 CURVE SMOOTH",
"204 694 OFFCURVE",
"183 578 OFFCURVE",
"183 517 CURVE SMOOTH",
"183 438 OFFCURVE",
"209 365 OFFCURVE",
"301 365 CURVE",
"301 348 LINE",
"209 348 OFFCURVE",
"183 275 OFFCURVE",
"183 196 CURVE SMOOTH",
"183 135 OFFCURVE",
"204 19 OFFCURVE",
"204 -46 CURVE SMOOTH",
"204 -156 OFFCURVE",
"136 -194 OFFCURVE",
"23 -194 CURVE",
"23 -175 LINE",
"85 -175 OFFCURVE",
"107 -144 OFFCURVE",
"107 -63 CURVE SMOOTH",
"107 -9 OFFCURVE",
"88 130 OFFCURVE",
"88 182 CURVE SMOOTH",
"88 273 OFFCURVE",
"140 337 OFFCURVE",
"234 356 CURVE",
"140 376 OFFCURVE",
"88 440 OFFCURVE",
"88 531 CURVE SMOOTH"
);
}
);
width = 313;
}
);
unicode = 007D;
},
{
glyphname = bracketleft;
lastChange = "2016-09-01 07:33:30 +0000";
layers = (
{
layerId = UUID0;
paths = (
{
closed = 1;
nodes = (
"300 -185 LINE",
"300 -155 LINE",
"187 -155 LINE",
"187 867 LINE",
"300 867 LINE",
"300 897 LINE",
"86 897 LINE",
"86 -185 LINE"
);
}
);
width = 310;
}
);
unicode = 005B;
},
{
glyphname = bracketright;
lastChange = "2016-09-01 07:33:30 +0000";
layers = (
{
hints = (
{
place = "{153, 114}";
},
{
horizontal = 1;
place = "{-128, 55}";
},
{
horizontal = 1;
place = "{705, 55}";
}
);
layerId = UUID0;
paths = (
{
closed = 1;
nodes = (
"11 -185 LINE",
"11 -155 LINE",
"124 -155 LINE",
"124 867 LINE",
"11 867 LINE",
"11 897 LINE",
"225 897 LINE",
"225 -185 LINE"
);
}
);
width = 310;
}
);
unicode = 005D;
},
{
glyphname = parenleft;
lastChange = "2016-09-01 07:33:30 +0000";
layers = (
{
layerId = UUID0;
paths = (
{
closed = 1;
nodes = (
"157 693 OFFCURVE",
"239 844 OFFCURVE",
"350 884 CURVE",
"343 907 LINE",
"155 852 OFFCURVE",
"37 644 OFFCURVE",
"37 356 CURVE SMOOTH",
"37 70 OFFCURVE",
"155 -140 OFFCURVE",
"344 -195 CURVE",
"350 -171 LINE",
"269 -131 OFFCURVE",
"157 21 OFFCURVE",
"157 356 CURVE SMOOTH"
);
}
);
width = 344;
}
);
unicode = 0028;
},
{
glyphname = parenright;
lastChange = "2016-09-01 07:33:30 +0000";
layers = (
{
hints = (
{
place = "{388, -113}";
},
{
horizontal = 1;
place = "{-122, 21}";
target = up;
type = BottomGhost;
},
{
horizontal = 1;
place = "{702, -20}";
target = down;
type = TopGhost;
}
);
layerId = UUID0;
paths = (
{
closed = 1;
nodes = (
"187 693 OFFCURVE",
"105 844 OFFCURVE",
"-6 884 CURVE",
"1 907 LINE",
"189 852 OFFCURVE",
"307 644 OFFCURVE",
"307 356 CURVE SMOOTH",
"307 70 OFFCURVE",
"189 -140 OFFCURVE",
"0 -195 CURVE",
"-6 -171 LINE",
"75 -131 OFFCURVE",
"187 21 OFFCURVE",
"187 356 CURVE SMOOTH"
);
}
);
width = 344;
}
);
unicode = 0029;
},
{
glyphname = emdash;
lastChange = "2016-09-01 07:33:30 +0000";
layers = (
{
layerId = UUID0;
paths = (
{
closed = 1;
nodes = (
"1072 374 LINE",
"62 374 LINE",
"62 340 LINE",
"1072 340 LINE"
);
}
);
width = 1134;
}
);
leftKerningGroup = hyphen;
rightKerningGroup = hyphen;
unicode = 2014;
},
{
glyphname = endash;
lastChange = "2016-09-01 07:33:30 +0000";
layers = (
{
layerId = UUID0;
paths = (
{
closed = 1;
nodes = (
"572 375 LINE",
"62 375 LINE",
"62 339 LINE",
"572 339 LINE"
);
}
);
width = 634;
}
);
leftKerningGroup = hyphen;
rightKerningGroup = hyphen;
unicode = 2013;
},
{
glyphname = hyphen;
lastChange = "2016-09-01 07:33:30 +0000";
layers = (
{
layerId = UUID0;
paths = (
{
closed = 1;
nodes = (
"62 257 LINE",
"281 257 LINE",
"281 290 LINE",
"62 290 LINE"
);
}
);
width = 343;
}
);
leftKerningGroup = hyphen;
rightKerningGroup = hyphen;
unicode = 002D;
},
{
glyphname = softhyphen;
lastChange = "2016-09-01 07:33:40 +0000";
layers = (
{
layerId = UUID0;
paths = (
{
closed = 1;
nodes = (
"322 339 LINE",
"322 375 LINE",
"62 375 LINE",
"62 339 LINE"
);
}
);
width = 384;
}
);
leftKerningGroup = hyphen;
rightKerningGroup = hyphen;
unicode = 00AD;
},
{
glyphname = guillemetleft;
lastChange = "2016-09-01 07:33:40 +0000";
layers = (
{
hints = (
{
horizontal = 1;
place = "{69, 21}";
target = up;
type = BottomGhost;
},
{
horizontal = 1;
place = "{460, -20}";
target = down;
type = TopGhost;
}
);
layerId = UUID0;
paths = (
{
closed = 1;
nodes = (
"193 263 LINE",
"304 145 LINE",
"313 153 LINE",
"269 270 LINE",
"313 386 LINE",
"304 395 LINE",
"193 277 LINE"
);
},
{
closed = 1;
nodes = (
"45 279 LINE",
"45 261 LINE",
"218 70 LINE",
"227 79 LINE",
"133 270 LINE",
"227 460 LINE",
"218 470 LINE"
);
}
);
width = 365;
}
);
leftKerningGroup = guilsinglleft;
rightKerningGroup = guilsinglleft;
unicode = 00AB;
},
{
glyphname = guillemetright;
lastChange = "2016-09-01 07:33:40 +0000";
layers = (
{
hints = (
{
horizontal = 1;
place = "{69, 21}";
target = up;
type = BottomGhost;
},
{
horizontal = 1;
place = "{451, -20}";
target = down;
type = TopGhost;
},
{
horizontal = 1;
place = "{69, 21}";
target = up;
type = BottomGhost;
},
{
horizontal = 1;
place = "{460, -20}";
target = down;
type = TopGhost;
}
);
layerId = UUID0;
paths = (
{
closed = 1;
nodes = (
"172 263 LINE",
"61 145 LINE",
"52 153 LINE",
"96 270 LINE",
"52 386 LINE",
"61 395 LINE",
"172 277 LINE"
);
},
{
closed = 1;
nodes = (
"320 279 LINE",
"320 261 LINE",
"147 70 LINE",
"138 79 LINE",
"232 270 LINE",
"138 460 LINE",
"147 470 LINE"
);
}
);
width = 365;
}
);
leftKerningGroup = guilsinglright;
rightKerningGroup = guilsinglright;
unicode = 00BB;
},
{
glyphname = guilsinglleft;
lastChange = "2016-09-01 07:33:30 +0000";
layers = (
{
layerId = UUID0;
paths = (
{
closed = 1;
nodes = (
"45 279 LINE",
"45 261 LINE",
"218 70 LINE",
"227 79 LINE",
"133 270 LINE",
"227 460 LINE",
"218 470 LINE"
);
}
);
width = 278;
}
);
leftKerningGroup = guilsinglleft;
rightKerningGroup = guilsinglleft;
unicode = 2039;
},
{
glyphname = guilsinglright;
lastChange = "2016-09-01 07:33:30 +0000";
layers = (
{
hints = (
{
horizontal = 1;
place = "{470, -20}";
target = down;
type = TopGhost;
},
{
horizontal = 1;
place = "{59, 21}";
target = up;
type = BottomGhost;
}
);
layerId = UUID0;
paths = (
{
closed = 1;
nodes = (
"233 279 LINE",
"233 261 LINE",
"60 70 LINE",
"51 79 LINE",
"145 270 LINE",
"51 460 LINE",
"60 470 LINE"
);
}
);
width = 278;
}
);
leftKerningGroup = guilsinglright;
rightKerningGroup = guilsinglright;
unicode = 203A;
},
{
glyphname = quotedblbase;
lastChange = "2016-09-01 07:33:30 +0000";
layers = (
{
layerId = UUID0;
paths = (
{
closed = 1;
nodes = (
"60 -162 LINE",
"146 -120 OFFCURVE",
"184 -57 OFFCURVE",
"184 16 CURVE SMOOTH",
"184 70 OFFCURVE",
"156 108 OFFCURVE",
"108 108 CURVE SMOOTH",
"75 108 OFFCURVE",
"48 83 OFFCURVE",
"48 50 CURVE SMOOTH",
"48 17 OFFCURVE",
"75 -10 OFFCURVE",
"108 -10 CURVE SMOOTH",
"121 -10 OFFCURVE",
"128 -18 OFFCURVE",
"128 -30 CURVE SMOOTH",
"128 -78 OFFCURVE",
"83 -125 OFFCURVE",
"49 -146 CURVE"
);
},
{
closed = 1;
nodes = (
"233 -162 LINE",
"319 -120 OFFCURVE",
"357 -57 OFFCURVE",
"357 16 CURVE SMOOTH",
"357 70 OFFCURVE",
"329 108 OFFCURVE",
"281 108 CURVE SMOOTH",
"248 108 OFFCURVE",
"221 83 OFFCURVE",
"221 50 CURVE SMOOTH",
"221 17 OFFCURVE",
"248 -10 OFFCURVE",
"281 -10 CURVE SMOOTH",
"294 -10 OFFCURVE",
"301 -18 OFFCURVE",
"301 -30 CURVE SMOOTH",
"301 -78 OFFCURVE",
"256 -125 OFFCURVE",
"222 -146 CURVE"
);
},
{
closed = 1;
nodes = (
"233 -162 LINE",
"222 -146 LINE",
"237 -137 LINE",
"265 -111 LINE",
"288 -80 LINE",
"301 -47 LINE",
"301 -30 LINE",
"301 -10 LINE",
"281 -10 LINE",
"256 -10 LINE",
"221 25 LINE",
"221 50 LINE",
"221 75 LINE",
"256 108 LINE",
"281 108 LINE",
"316 108 LINE",
"357 58 LINE",
"357 16 LINE",
"357 -101 LINE"
);
},
{
closed = 1;
nodes = (
"60 -162 LINE",
"49 -146 LINE",
"64 -137 LINE",
"92 -111 LINE",
"115 -80 LINE",
"128 -47 LINE",
"128 -30 LINE",
"128 -10 LINE",
"108 -10 LINE",
"83 -10 LINE",
"48 25 LINE",
"48 50 LINE",
"48 75 LINE",
"83 108 LINE",
"108 108 LINE",
"143 108 LINE",
"184 58 LINE",
"184 16 LINE",
"184 -101 LINE"
);
}
);
width = 401;
}
);
leftKerningGroup = period;
rightKerningGroup = period;
unicode = 201E;
},
{
glyphname = quotedblleft;
lastChange = "2016-09-01 07:33:30 +0000";
layers = (
{
layerId = UUID0;
paths = (
{
closed = 1;
nodes = (
"164 809 LINE",
"78 767 OFFCURVE",
"40 704 OFFCURVE",
"40 631 CURVE SMOOTH",
"40 577 OFFCURVE",
"68 539 OFFCURVE",
"116 539 CURVE SMOOTH",
"149 539 OFFCURVE",
"176 564 OFFCURVE",
"176 597 CURVE SMOOTH",
"176 630 OFFCURVE",
"149 657 OFFCURVE",
"116 657 CURVE SMOOTH",
"103 657 OFFCURVE",
"96 665 OFFCURVE",
"96 677 CURVE SMOOTH",
"96 725 OFFCURVE",
"141 772 OFFCURVE",
"175 793 CURVE"
);
},
{
closed = 1;
nodes = (
"337 809 LINE",
"251 767 OFFCURVE",
"213 704 OFFCURVE",
"213 631 CURVE SMOOTH",
"213 577 OFFCURVE",
"241 539 OFFCURVE",
"289 539 CURVE SMOOTH",
"322 539 OFFCURVE",
"349 564 OFFCURVE",
"349 597 CURVE SMOOTH",
"349 630 OFFCURVE",
"322 657 OFFCURVE",
"289 657 CURVE SMOOTH",
"276 657 OFFCURVE",
"269 665 OFFCURVE",
"269 677 CURVE SMOOTH",
"269 725 OFFCURVE",
"314 772 OFFCURVE",
"348 793 CURVE"
);
}
);
width = 393;
}
);
leftKerningGroup = quoteleft;
rightKerningGroup = quoteleft;
unicode = 201C;
},
{
glyphname = quotedblright;
lastChange = "2016-09-01 07:33:30 +0000";
layers = (
{
layerId = UUID0;
paths = (
{
closed = 1;
nodes = (
"61 539 LINE",
"147 581 OFFCURVE",
"185 644 OFFCURVE",
"185 717 CURVE SMOOTH",
"185 771 OFFCURVE",
"157 809 OFFCURVE",
"109 809 CURVE SMOOTH",
"76 809 OFFCURVE",
"49 784 OFFCURVE",
"49 751 CURVE SMOOTH",
"49 718 OFFCURVE",
"76 691 OFFCURVE",
"109 691 CURVE SMOOTH",
"122 691 OFFCURVE",
"129 683 OFFCURVE",
"129 671 CURVE SMOOTH",
"129 623 OFFCURVE",
"84 576 OFFCURVE",
"50 555 CURVE"
);
},
{
closed = 1;
nodes = (
"234 539 LINE",
"320 581 OFFCURVE",
"358 644 OFFCURVE",
"358 717 CURVE SMOOTH",
"358 771 OFFCURVE",
"330 809 OFFCURVE",
"282 809 CURVE SMOOTH",
"249 809 OFFCURVE",
"222 784 OFFCURVE",
"222 751 CURVE SMOOTH",
"222 718 OFFCURVE",
"249 691 OFFCURVE",
"282 691 CURVE SMOOTH",
"295 691 OFFCURVE",
"302 683 OFFCURVE",
"302 671 CURVE SMOOTH",
"302 623 OFFCURVE",
"257 576 OFFCURVE",
"223 555 CURVE"
);
}
);
width = 392;
}
);
leftKerningGroup = quoteright;
rightKerningGroup = quoteright;
unicode = 201D;
},
{
glyphname = quoteleft;
lastChange = "2016-09-01 07:33:30 +0000";
layers = (
{
layerId = UUID0;
paths = (
{
closed = 1;
nodes = (
"164 809 LINE",
"78 767 OFFCURVE",
"40 704 OFFCURVE",
"40 631 CURVE SMOOTH",
"40 577 OFFCURVE",
"68 539 OFFCURVE",
"116 539 CURVE SMOOTH",
"149 539 OFFCURVE",
"176 564 OFFCURVE",
"176 597 CURVE SMOOTH",
"176 630 OFFCURVE",
"149 657 OFFCURVE",
"116 657 CURVE SMOOTH",
"103 657 OFFCURVE",
"96 665 OFFCURVE",
"96 677 CURVE SMOOTH",
"96 725 OFFCURVE",
"141 772 OFFCURVE",
"175 793 CURVE"
);
}
);
width = 220;
}
);
leftKerningGroup = quoteleft;
rightKerningGroup = quoteleft;
unicode = 2018;
},
{
glyphname = quoteright;
lastChange = "2016-09-01 07:33:30 +0000";
layers = (
{
layerId = UUID0;
paths = (
{
closed = 1;
nodes = (
"61 539 LINE",
"147 581 OFFCURVE",
"185 644 OFFCURVE",
"185 717 CURVE SMOOTH",
"185 771 OFFCURVE",
"157 809 OFFCURVE",
"109 809 CURVE SMOOTH",
"76 809 OFFCURVE",
"49 784 OFFCURVE",
"49 751 CURVE SMOOTH",
"49 718 OFFCURVE",
"76 691 OFFCURVE",
"109 691 CURVE SMOOTH",
"122 691 OFFCURVE",
"129 683 OFFCURVE",
"129 671 CURVE SMOOTH",
"129 623 OFFCURVE",
"84 576 OFFCURVE",
"50 555 CURVE"
);
}
);
width = 219;
}
);
leftKerningGroup = quoteright;
rightKerningGroup = quoteright;
unicode = 2019;
},
{
glyphname = quotesinglbase;
lastChange = "2016-09-01 07:33:30 +0000";
layers = (
{
layerId = UUID0;
paths = (
{
closed = 1;
nodes = (
"60 -162 LINE",
"146 -120 OFFCURVE",
"184 -57 OFFCURVE",
"184 16 CURVE SMOOTH",
"184 70 OFFCURVE",
"156 108 OFFCURVE",
"108 108 CURVE SMOOTH",
"75 108 OFFCURVE",
"48 83 OFFCURVE",
"48 50 CURVE SMOOTH",
"48 17 OFFCURVE",
"75 -10 OFFCURVE",
"108 -10 CURVE SMOOTH",
"121 -10 OFFCURVE",
"128 -18 OFFCURVE",
"128 -30 CURVE SMOOTH",
"128 -78 OFFCURVE",
"83 -125 OFFCURVE",
"49 -146 CURVE"
);
}
);
width = 228;
}
);
leftKerningGroup = period;
rightKerningGroup = period;
unicode = 201A;
},
{
glyphname = cent;
lastChange = "2016-09-01 07:33:30 +0000";
layers = (
{
layerId = UUID0;
paths = (
{
closed = 1;
nodes = (
"311 662 LINE",
"275 662 LINE",
"275 525 LINE",
"154 513 OFFCURVE",
"45 419 OFFCURVE",
"45 259 CURVE SMOOTH",
"45 107 OFFCURVE",
"145 4 OFFCURVE",
"275 -8 CURVE",
"275 -143 LINE",
"311 -143 LINE",
"311 -10 LINE",
"412 -7 OFFCURVE",
"488 55 OFFCURVE",
"508 152 CURVE",
"485 152 LINE",
"468 70 OFFCURVE",
"398 15 OFFCURVE",
"311 12 CURVE",
"311 505 LINE",
"372 502 OFFCURVE",
"412 468 OFFCURVE",
"412 421 CURVE SMOOTH",
"412 397 OFFCURVE",
"405 383 OFFCURVE",
"384 369 CURVE",
"384 333 OFFCURVE",
"411 306 OFFCURVE",
"447 306 CURVE SMOOTH",
"483 306 OFFCURVE",
"509 328 OFFCURVE",
"509 374 CURVE SMOOTH",
"509 461 OFFCURVE",
"423 524 OFFCURVE",
"311 527 CURVE"
);
},
{
closed = 1;
nodes = (
"155 309 LINE SMOOTH",
"155 419 OFFCURVE",
"198 489 OFFCURVE",
"275 503 CURVE",
"275 14 LINE",
"192 28 OFFCURVE",
"155 107 OFFCURVE",
"155 209 CURVE"
);
}
);
width = 547;
}
);
unicode = 00A2;
},
{
glyphname = currency;
lastChange = "2016-09-01 07:33:30 +0000";
layers = (
{
layerId = UUID0;
paths = (
{
closed = 1;
nodes = (
"57 172 LINE",
"84 145 LINE",
"159 220 LINE",
"190 196 OFFCURVE",
"229 182 OFFCURVE",
"271 182 CURVE SMOOTH",
"312 182 OFFCURVE",
"350 196 OFFCURVE",
"381 221 CURVE",
"457 146 LINE",
"484 173 LINE",
"408 248 LINE",
"433 279 OFFCURVE",
"448 317 OFFCURVE",
"448 359 CURVE SMOOTH",
"448 400 OFFCURVE",
"433 439 OFFCURVE",
"408 469 CURVE",
"484 545 LINE",
"457 573 LINE",
"380 496 LINE",
"350 520 OFFCURVE",
"312 535 OFFCURVE",
"271 535 CURVE SMOOTH",
"229 535 OFFCURVE",
"190 521 OFFCURVE",
"160 497 CURVE",
"85 572 LINE",
"58 544 LINE",
"133 470 LINE",
"108 439 OFFCURVE",
"93 401 OFFCURVE",
"93 359 CURVE SMOOTH",
"93 317 OFFCURVE",
"107 278 OFFCURVE",
"132 248 CURVE"
);
},
{
closed = 1;
nodes = (
"410 282 OFFCURVE",
"347 220 OFFCURVE",
"271 220 CURVE SMOOTH",
"194 220 OFFCURVE",
"132 282 OFFCURVE",
"132 359 CURVE SMOOTH",
"132 435 OFFCURVE",
"194 497 OFFCURVE",
"271 497 CURVE SMOOTH",
"347 497 OFFCURVE",
"410 435 OFFCURVE",
"410 359 CURVE SMOOTH"
);
}
);
width = 541;
}
);
unicode = 00A4;
},
{
glyphname = dollar;
lastChange = "2016-09-01 07:33:30 +0000";
layers = (
{
layerId = UUID0;
paths = (
{
closed = 1;
nodes = (
"87 -10 LINE",
"172 33 LINE",
"219 5 OFFCURVE",
"271 -13 OFFCURVE",
"324 -18 CURVE",
"324 -105 LINE",
"341 -105 LINE",
"341 -19 LINE",
"345 -19 OFFCURVE",
"350 -20 OFFCURVE",
"355 -20 CURVE SMOOTH",
"360 -20 LINE",
"360 -105 LINE",
"376 -105 LINE",
"376 -19 LINE",
"515 -12 OFFCURVE",
"607 74 OFFCURVE",
"607 217 CURVE SMOOTH",
"607 370 OFFCURVE",
"544 424 OFFCURVE",
"435 452 CURVE SMOOTH",
"376 467 LINE",
"376 791 LINE",
"409 785 OFFCURVE",
"439 775 OFFCURVE",
"466 762 CURVE",
"538 616 LINE",
"560 616 LINE",
"560 820 LINE",
"538 820 LINE",
"465 789 LINE",
"436 801 OFFCURVE",
"407 809 OFFCURVE",
"376 814 CURVE",
"376 895 LINE",
"360 895 LINE",
"360 816 LINE",
"353 817 OFFCURVE",
"347 818 OFFCURVE",
"341 818 CURVE",
"341 895 LINE",
"324 895 LINE",
"324 819 LINE",
"316 820 OFFCURVE",
"309 820 OFFCURVE",
"302 820 CURVE SMOOTH",
"153 820 OFFCURVE",
"68 723 OFFCURVE",
"68 585 CURVE SMOOTH",
"68 487 OFFCURVE",
"124 412 OFFCURVE",
"243 380 CURVE SMOOTH",
"324 359 LINE",
"324 4 LINE",
"268 10 OFFCURVE",
"219 29 OFFCURVE",
"173 61 CURVE",
"87 247 LINE",
"65 247 LINE",
"65 -10 LINE"
);
},
{
closed = 1;
nodes = (
"116 731 OFFCURVE",
"185 798 OFFCURVE",
"303 798 CURVE SMOOTH",
"310 798 OFFCURVE",
"317 798 OFFCURVE",
"324 797 CURVE",
"324 481 LINE",
"256 499 LINE SMOOTH",
"170 521 OFFCURVE",
"116 561 OFFCURVE",
"116 636 CURVE SMOOTH"
);
},
{
closed = 1;
nodes = (
"409 337 LINE SMOOTH",
"518 309 OFFCURVE",
"566 262 OFFCURVE",
"566 179 CURVE SMOOTH",
"566 67 OFFCURVE",
"483 7 OFFCURVE",
"376 2 CURVE",
"376 345 LINE"
);
},
{
closed = 1;
nodes = (
"341 354 LINE",
"360 349 LINE",
"360 2 LINE",
"353 2 OFFCURVE",
"347 2 OFFCURVE",
"341 3 CURVE"
);
},
{
closed = 1;
nodes = (
"360 794 LINE",
"360 471 LINE",
"341 476 LINE",
"341 796 LINE"
);
}
);
width = 657;
}
);
unicode = 0024;
},
{
glyphname = euro;
lastChange = "2016-09-01 07:33:40 +0000";
layers = (
{
layerId = UUID0;
paths = (
{
closed = 1;
nodes = (
"709 820 LINE",
"642 763 LINE",
"594 798 OFFCURVE",
"532 820 OFFCURVE",
"474 820 CURVE SMOOTH",
"274 820 OFFCURVE",
"135 681 OFFCURVE",
"111 469 CURVE",
"35 469 LINE",
"35 431 LINE",
"108 431 LINE",
"107 421 OFFCURVE",
"107 410 OFFCURVE",
"107 400 CURVE SMOOTH",
"107 383 OFFCURVE",
"108 367 OFFCURVE",
"109 352 CURVE",
"35 352 LINE",
"35 314 LINE",
"113 314 LINE",
"142 112 OFFCURVE",
"274 -20 OFFCURVE",
"469 -20 CURVE SMOOTH",
"529 -20 OFFCURVE",
"594 3 OFFCURVE",
"642 41 CURVE",
"714 -10 LINE",
"735 -10 LINE",
"735 247 LINE",
"714 247 LINE",
"656 86 LINE",
"611 36 OFFCURVE",
"537 3 OFFCURVE",
"469 3 CURVE SMOOTH",
"330 3 OFFCURVE",
"237 115 OFFCURVE",
"237 309 CURVE SMOOTH",
"237 314 LINE",
"443 314 LINE",
"458 352 LINE",
"237 352 LINE",
"237 431 LINE",
"489 431 LINE",
"504 469 LINE",
"237 469 LINE",
"237 492 LINE SMOOTH",
"237 686 OFFCURVE",
"335 797 OFFCURVE",
"474 797 CURVE SMOOTH",
"535 797 OFFCURVE",
"601 769 OFFCURVE",
"647 727 CURVE",
"709 572 LINE",
"730 572 LINE",
"730 820 LINE"
);
}
);
width = 807;
}
);
unicode = 20AC;
},
